<?xml version="1.0" encoding="UTF-8" standalone="no"?><!DOCTYPE svg PUBLIC "-//W3C//DTD SVG 1.1//EN" "http://www.w3.org/Graphics/SVG/1.1/DTD/svg11.dtd"><svg width="100%" height="100%" viewBox="0 0 2084 2084" version="1.1" xmlns="http://www.w3.org/2000/svg" xmlns:xlink="http://www.w3.org/1999/xlink" xml:space="preserve" xmlns:serif="http://www.serif.com/" style="fill-rule:evenodd;clip-rule:evenodd;stroke-linejoin:round;stroke-miterlimit:2;"><g><g><g><g><g><g><g><g><path d="M447.19,1713.32c-4.818,0 -8.984,-1.736 -12.5,-5.208c-3.472,-3.472 -5.208,-7.595 -5.208,-12.413l0,-299.392l-108.507,0c-4.818,0 -8.941,-1.736 -12.413,-5.208c-3.472,-3.516 -5.208,-7.661 -5.208,-12.413l0,-105.295c0,-4.796 1.736,-8.941 5.208,-12.413c3.472,-3.472 7.595,-5.208 12.413,-5.208l383.073,0c4.796,0 8.941,1.736 12.413,5.208c3.472,3.472 5.208,7.617 5.208,12.413l0,105.295c0,4.753 -1.736,8.898 -5.208,12.413c-3.472,3.472 -7.617,5.208 -12.413,5.208l-108.507,0l0,299.392c0,4.818 -1.78,8.941 -5.295,12.413c-3.472,3.472 -7.595,5.208 -12.326,5.208l-130.729,0Z" style="fill:url(#_Linear1);fill-rule:nonzero;"/></g></g></g><g><g><g><path d="M764.749,1713.32c-4.753,0 -8.898,-1.736 -12.413,-5.208c-3.472,-3.472 -5.208,-7.595 -5.208,-12.413l0,-422.309c0,-4.796 1.736,-8.941 5.208,-12.413c3.516,-3.472 7.661,-5.208 12.413,-5.208l133.42,0c4.731,0 8.854,1.736 12.326,5.208c3.516,3.472 5.295,7.617 5.295,12.413l0,422.309c0,4.818 -1.78,8.941 -5.295,12.413c-3.472,3.472 -7.595,5.208 -12.326,5.208l-133.42,0Z" style="fill:url(#_Linear2);fill-rule:nonzero;"/></g></g></g><g><g><g><path d="M1092.899,1713.32c-8.29,0 -14.822,-2.17 -19.618,-6.51c-4.818,-4.384 -8.073,-9.397 -9.809,-15.017l-122.917,-417.101l-0.608,-4.514c0,-3.928 1.411,-7.313 4.253,-10.156c2.821,-2.821 6.207,-4.253 10.156,-4.253l121.528,0c8.268,0 14.8,2.214 19.618,6.597c4.796,4.34 8.073,9.332 9.809,14.931l62.066,243.229l62.153,-243.229c1.736,-5.599 4.991,-10.59 9.809,-14.931c4.796,-4.384 11.328,-6.597 19.618,-6.597l121.528,0c3.928,0 7.313,1.432 10.156,4.253c2.821,2.843 4.253,6.228 4.253,10.156l-0.694,4.514l-122.83,417.101c-1.736,5.621 -5.013,10.634 -9.809,15.017c-4.818,4.34 -11.35,6.51 -19.618,6.51l-149.045,0Z" style="fill:url(#_Linear3);fill-rule:nonzero;"/></g></g></g><g><g><g><path d="M1436.632,1713.32c-4.753,0 -8.898,-1.736 -12.413,-5.208c-3.472,-3.472 -5.208,-7.595 -5.208,-12.413l0,-422.309c0,-4.796 1.736,-8.941 5.208,-12.413c3.516,-3.472 7.661,-5.208 12.413,-5.208l335.33,0c4.796,0 8.941,1.736 12.413,5.208c3.516,3.472 5.295,7.617 5.295,12.413l0,92.188c0,4.818 -1.78,8.941 -5.295,12.413c-3.472,3.472 -7.617,5.208 -12.413,5.208l-196.094,0l0,41.233l181.771,0c4.796,0 8.941,1.736 12.413,5.208c3.472,3.472 5.208,7.617 5.208,12.413l0,84.983c0,4.818 -1.736,8.941 -5.208,12.413c-3.472,3.472 -7.617,5.208 -12.413,5.208l-181.771,0l0,41.233l201.389,0c4.731,0 8.854,1.736 12.326,5.208c3.516,3.472 5.295,7.617 5.295,12.413l0,92.188c0,4.818 -1.78,8.941 -5.295,12.413c-3.472,3.472 -7.595,5.208 -12.326,5.208l-340.625,0Z" style="fill:url(#_Linear4);fill-rule:nonzero;"/></g></g></g></g></g></g><g><g><g><g><g><g><path d="M312.122,718.436c-4.167,0 -7.769,-1.497 -10.764,-4.514c-3.016,-2.995 -4.514,-6.597 -4.514,-10.764l0,-365.712c0,-4.167 1.497,-7.747 4.514,-10.764c2.995,-2.995 6.597,-4.514 10.764,-4.514l171.528,0c52.821,0 94.444,11.697 124.826,35.069c30.382,23.394 45.573,57.899 45.573,103.559c0,45.312 -15.104,79.036 -45.312,101.128c-30.165,22.049 -71.853,33.073 -125.087,33.073l-39.67,0l0,108.16c0,4.167 -1.519,7.769 -4.514,10.764c-3.016,3.016 -6.597,4.514 -10.764,4.514l-116.58,0Zm168.663,-228.125c6.814,0 12.869,-2.539 18.142,-7.639c5.252,-5.078 7.899,-12.76 7.899,-23.003c0,-8.681 -2.083,-16.189 -6.25,-22.569c-4.123,-6.424 -10.72,-9.635 -19.792,-9.635l-39.583,0l0,62.847l39.583,0Z" style="fill:url(#_Linear5);fill-rule:nonzero;"/></g></g></g><g><g><g><path d="M692.532,718.436c-4.167,0 -7.769,-1.497 -10.764,-4.514c-3.016,-2.995 -4.514,-6.597 -4.514,-10.764l0,-365.712c0,-4.167 1.497,-7.747 4.514,-10.764c2.995,-2.995 6.597,-4.514 10.764,-4.514l290.451,0c4.102,0 7.661,1.519 10.677,4.514c3.06,3.016 4.601,6.597 4.601,10.764l0,79.774c0,4.167 -1.541,7.769 -4.601,10.764c-3.016,3.016 -6.576,4.514 -10.677,4.514l-169.878,0l0,35.677l157.378,0c4.167,0 7.747,1.541 10.764,4.601c2.995,3.016 4.514,6.576 4.514,10.677l0,73.611c0,4.167 -1.519,7.769 -4.514,10.764c-3.016,3.016 -6.597,4.514 -10.764,4.514l-157.378,0l0,35.677l174.392,0c4.167,0 7.747,1.541 10.764,4.601c2.995,3.016 4.514,6.576 4.514,10.677l0,79.861c0,4.167 -1.519,7.769 -4.514,10.764c-3.016,3.016 -6.597,4.514 -10.764,4.514l-294.965,0Z" style="fill:url(#_Linear6);fill-rule:nonzero;"/></g></g></g><g><g><g><path d="M1051.431,718.436c-4.167,0 -7.769,-1.497 -10.764,-4.514c-3.016,-2.995 -4.514,-6.597 -4.514,-10.764l0,-365.712c0,-4.167 1.497,-7.747 4.514,-10.764c2.995,-2.995 6.597,-4.514 10.764,-4.514l167.535,0c54.34,0 96.788,12.196 127.344,36.545c30.599,24.306 45.92,57.964 45.92,100.955c0,24.544 -5.469,46.159 -16.406,64.844c-10.938,18.707 -25.846,34.093 -44.705,46.181l69.618,129.08c1.085,2.257 1.649,4.34 1.649,6.25c0,3.364 -1.215,6.293 -3.646,8.767c-2.431,2.431 -5.36,3.646 -8.767,3.646l-116.059,0c-6.771,0 -12.153,-1.584 -16.146,-4.774c-3.95,-3.234 -6.662,-6.727 -8.16,-10.503l-48.698,-108.16l-23.264,0l0,108.16c0,4.167 -1.519,7.769 -4.514,10.764c-3.016,3.016 -6.597,4.514 -10.764,4.514l-110.938,0Zm167.535,-230.99c8.333,0 14.757,-2.713 19.271,-8.16c4.514,-5.49 6.771,-12.413 6.771,-20.747c0,-8.268 -2.17,-15.495 -6.51,-21.701c-4.34,-6.25 -10.851,-9.375 -19.531,-9.375l-41.319,0l0,59.983l41.319,0Z" style="fill:url(#_Linear7);fill-rule:nonzero;"/></g></g></g><g><g><g><path d="M1591.465,724.078c-39.996,0 -73.872,-5.49 -101.649,-16.406c-27.734,-10.938 -48.589,-25.543 -62.587,-43.837c-13.954,-18.338 -21.311,-38.455 -22.049,-60.33c0,-3.407 1.215,-6.337 3.646,-8.767c2.474,-2.431 5.425,-3.646 8.854,-3.646l107.552,0c5.252,0 9.484,0.673 12.674,1.997c3.234,1.28 7.14,3.798 11.719,7.552c10.938,8.681 24.87,13.021 41.84,13.021c12.847,0 23.112,-1.389 30.816,-4.167c7.747,-2.821 11.632,-6.706 11.632,-11.632c0,-6.814 -5.1,-12.023 -15.278,-15.625c-10.2,-3.581 -29.427,-7.248 -57.726,-11.024c-97.396,-12.782 -146.094,-54.297 -146.094,-124.566c0,-25.282 7.248,-47.83 21.788,-67.622c14.518,-19.792 34.809,-35.156 60.851,-46.094c26.085,-10.981 56.098,-16.493 90.017,-16.493c35.525,0 66.688,6.055 93.49,18.142c26.78,12.109 47.331,27.3 61.632,45.573c14.345,18.294 21.897,36.111 22.656,53.472c0,3.429 -1.215,6.38 -3.646,8.854c-2.431,2.431 -5.187,3.646 -8.247,3.646l-113.194,0c-5.273,0 -9.44,-0.651 -12.5,-1.997c-3.016,-1.324 -6.402,-3.668 -10.156,-7.031c-7.943,-6.814 -17.947,-10.243 -30.035,-10.243c-18.121,0 -27.17,5.295 -27.17,15.885c0,5.686 4.427,10.395 13.281,14.149c8.898,3.776 25.434,7.161 49.566,10.156c37.782,4.926 68.077,12.305 90.885,22.135c22.852,9.787 39.453,22.895 49.826,39.323c10.352,16.45 15.538,37.109 15.538,61.979c0,26.801 -8.116,50.304 -24.306,70.486c-16.211,20.204 -38.585,35.764 -67.101,46.701c-28.472,10.916 -60.655,16.406 -96.528,16.406Z" style="fill:url(#_Linear8);fill-rule:nonzero;"/></g></g></g></g></g></g><g><g><g><g><g><g><path d="M1316.823,1214.416c-3.885,0 -7.248,-1.389 -10.069,-4.167c-2.778,-2.821 -4.167,-6.185 -4.167,-10.069c0,-1.736 0.195,-3.234 0.608,-4.514l144.271,-412.76c1.736,-5.599 4.97,-10.547 9.722,-14.844c4.731,-4.34 11.22,-6.51 19.444,-6.51l140.365,0c8.203,0 14.692,2.17 19.444,6.51c4.731,4.297 7.986,9.245 9.722,14.844l144.271,412.76c0.391,1.28 0.608,2.778 0.608,4.514c0,3.885 -1.432,7.248 -4.253,10.069c-2.778,2.778 -6.12,4.167 -9.983,4.167l-119.705,0c-12.912,0 -21.311,-5.382 -25.174,-16.146l-15.538,-42.708l-139.149,0l-15.538,42.708c-3.885,10.764 -12.283,16.146 -25.174,16.146l-119.705,0Zm193.403,-185.069l73.177,0l-36.892,-120.313l-36.285,120.313Z" style="fill:url(#_Linear9);fill-rule:nonzero;"/></g></g></g></g></g></g><g><g><g><g><g><g><path d="M317.287,1214.416c-4.753,0 -8.854,-1.693 -12.326,-5.122c-3.429,-3.472 -5.122,-7.574 -5.122,-12.326l0,-417.969c0,-4.731 1.693,-8.811 5.122,-12.24c3.472,-3.472 7.574,-5.208 12.326,-5.208l196.007,0c60.417,0 107.986,13.368 142.708,40.104c34.722,26.736 52.083,66.211 52.083,118.403c0,51.736 -17.274,90.234 -51.823,115.451c-34.505,25.239 -82.161,37.847 -142.969,37.847l-45.226,0l0,123.611c0,4.753 -1.736,8.854 -5.208,12.326c-3.472,3.429 -7.595,5.122 -12.326,5.122l-133.247,0Zm192.795,-260.764c7.747,0 14.627,-2.886 20.66,-8.681c6.076,-5.838 9.115,-14.583 9.115,-26.215c0,-9.896 -2.387,-18.511 -7.118,-25.868c-4.753,-7.335 -12.305,-11.024 -22.656,-11.024l-45.312,0l0,71.788l45.312,0Z" style="fill:url(#_Linear10);fill-rule:nonzero;"/></g></g></g><g><g><g><path d="M751.991,1214.416c-4.753,0 -8.854,-1.693 -12.326,-5.122c-3.429,-3.472 -5.122,-7.574 -5.122,-12.326l0,-417.969c0,-4.731 1.693,-8.811 5.122,-12.24c3.472,-3.472 7.574,-5.208 12.326,-5.208l132.031,0c4.731,0 8.811,1.736 12.24,5.208c3.472,3.429 5.208,7.509 5.208,12.24l0,417.969c0,4.753 -1.736,8.854 -5.208,12.326c-3.429,3.429 -7.509,5.122 -12.24,5.122l-132.031,0Z" style="fill:url(#_Linear11);fill-rule:nonzero;"/></g></g></g><g><g><g><path d="M968.695,1214.416c-4.753,0 -8.854,-1.693 -12.326,-5.122c-3.429,-3.472 -5.122,-7.574 -5.122,-12.326l0,-417.969c0,-4.731 1.693,-8.811 5.122,-12.24c3.472,-3.472 7.574,-5.208 12.326,-5.208l123.611,0c4.731,0 8.811,1.736 12.24,5.208c3.472,3.429 5.208,7.509 5.208,12.24l0,128.125l73.09,-131.337c5.208,-9.484 13.824,-14.236 25.868,-14.236l142.969,0c3.863,0 7.205,1.432 9.983,4.253c2.821,2.778 4.253,6.12 4.253,9.983c0,2.604 -0.651,4.991 -1.91,7.118l-116.493,195.399l127.517,214.757c1.259,1.736 1.91,4.123 1.91,7.118c0,3.885 -1.432,7.248 -4.253,10.069c-2.778,2.778 -6.12,4.167 -9.983,4.167l-147.483,0c-7.357,0 -13.194,-1.606 -17.535,-4.861c-4.297,-3.234 -7.292,-6.554 -9.028,-9.983l-78.906,-141.059l0,138.455c0,4.753 -1.736,8.854 -5.208,12.326c-3.429,3.429 -7.509,5.122 -12.24,5.122l-123.611,0Z" style="fill:url(#_Linear12);fill-rule:nonzero;"/></g></g></g></g></g></g></g></g><defs><linearGradient id="_Linear1" x1="0" y1="0" x2="1" y2="0" gradientUnits="userSpaceOnUse" gradientTransform="matrix(1550,-1105.072418,1105.072418,1550,261.111111,1603.260823)"><stop offset="0" style="stop-color:#d866ff;stop-opacity:1"/><stop offset="0.21" style="stop-color:#66b9ff;stop-opacity:1"/><stop offset="0.3" style="stop-color:#9ce996;stop-opacity:1"/><stop offset="0.37" style="stop-color:#b5ff66;stop-opacity:1"/><stop offset="0.59" style="stop-color:#ffe966;stop-opacity:1"/><stop offset="0.8" style="stop-color:#ff8466;stop-opacity:1"/><stop offset="1" style="stop-color:#f66;stop-opacity:1"/></linearGradient><linearGradient id="_Linear2" x1="0" y1="0" x2="1" y2="0" gradientUnits="userSpaceOnUse" gradientTransform="matrix(1550,-1105.072418,1105.072418,1550,261.111111,1603.260823)"><stop offset="0" style="stop-color:#d866ff;stop-opacity:1"/><stop offset="0.21" style="stop-color:#66b9ff;stop-opacity:1"/><stop offset="0.3" style="stop-color:#9ce996;stop-opacity:1"/><stop offset="0.37" style="stop-color:#b5ff66;stop-opacity:1"/><stop offset="0.59" style="stop-color:#ffe966;stop-opacity:1"/><stop offset="0.8" style="stop-color:#ff8466;stop-opacity:1"/><stop offset="1" style="stop-color:#f66;stop-opacity:1"/></linearGradient><linearGradient id="_Linear3" x1="0" y1="0" x2="1" y2="0" gradientUnits="userSpaceOnUse" gradientTransform="matrix(1550,-1105.072418,1105.072418,1550,261.111111,1603.260823)"><stop offset="0" style="stop-color:#d866ff;stop-opacity:1"/><stop offset="0.21" style="stop-color:#66b9ff;stop-opacity:1"/><stop offset="0.3" style="stop-color:#9ce996;stop-opacity:1"/><stop offset="0.37" style="stop-color:#b5ff66;stop-opacity:1"/><stop offset="0.59" style="stop-color:#ffe966;stop-opacity:1"/><stop offset="0.8" style="stop-color:#ff8466;stop-opacity:1"/><stop offset="1" style="stop-color:#f66;stop-opacity:1"/></linearGradient><linearGradient id="_Linear4" x1="0" y1="0" x2="1" y2="0" gradientUnits="userSpaceOnUse" gradientTransform="matrix(1550,-1105.072418,1105.072418,1550,261.111111,1603.260823)"><stop offset="0" style="stop-color:#d866ff;stop-opacity:1"/><stop offset="0.21" style="stop-color:#66b9ff;stop-opacity:1"/><stop offset="0.3" style="stop-color:#9ce996;stop-opacity:1"/><stop offset="0.37" style="stop-color:#b5ff66;stop-opacity:1"/><stop offset="0.59" style="stop-color:#ffe966;stop-opacity:1"/><stop offset="0.8" style="stop-color:#ff8466;stop-opacity:1"/><stop offset="1" style="stop-color:#f66;stop-opacity:1"/></linearGradient><linearGradient id="_Linear5" x1="0" y1="0" x2="1" y2="0" gradientUnits="userSpaceOnUse" gradientTransform="matrix(1550,-1105.072418,1105.072418,1550,261.111111,1603.260823)"><stop offset="0" style="stop-color:#d866ff;stop-opacity:1"/><stop offset="0.21" style="stop-color:#66b9ff;stop-opacity:1"/><stop offset="0.3" style="stop-color:#9ce996;stop-opacity:1"/><stop offset="0.37" style="stop-color:#b5ff66;stop-opacity:1"/><stop offset="0.59" style="stop-color:#ffe966;stop-opacity:1"/><stop offset="0.8" style="stop-color:#ff8466;stop-opacity:1"/><stop offset="1" style="stop-color:#f66;stop-opacity:1"/></linearGradient><linearGradient id="_Linear6" x1="0" y1="0" x2="1" y2="0" gradientUnits="userSpaceOnUse" gradientTransform="matrix(1550,-1105.072418,1105.072418,1550,261.111111,1603.260823)"><stop offset="0" style="stop-color:#d866ff;stop-opacity:1"/><stop offset="0.21" style="stop-color:#66b9ff;stop-opacity:1"/><stop offset="0.3" style="stop-color:#9ce996;stop-opacity:1"/><stop offset="0.37" style="stop-color:#b5ff66;stop-opacity:1"/><stop offset="0.59" style="stop-color:#ffe966;stop-opacity:1"/><stop offset="0.8" style="stop-color:#ff8466;stop-opacity:1"/><stop offset="1" style="stop-color:#f66;stop-opacity:1"/></linearGradient><linearGradient id="_Linear7" x1="0" y1="0" x2="1" y2="0" gradientUnits="userSpaceOnUse" gradientTransform="matrix(1550,-1105.072418,1105.072418,1550,261.111111,1603.260823)"><stop offset="0" style="stop-color:#d866ff;stop-opacity:1"/><stop offset="0.21" style="stop-color:#66b9ff;stop-opacity:1"/><stop offset="0.3" style="stop-color:#9ce996;stop-opacity:1"/><stop offset="0.37" style="stop-color:#b5ff66;stop-opacity:1"/><stop offset="0.59" style="stop-color:#ffe966;stop-opacity:1"/><stop offset="0.8" style="stop-color:#ff8466;stop-opacity:1"/><stop offset="1" style="stop-color:#f66;stop-opacity:1"/></linearGradient><linearGradient id="_Linear8" x1="0" y1="0" x2="1" y2="0" gradientUnits="userSpaceOnUse" gradientTransform="matrix(1550,-1105.072418,1105.072418,1550,261.111111,1603.260823)"><stop offset="0" style="stop-color:#d866ff;stop-opacity:1"/><stop offset="0.21" style="stop-color:#66b9ff;stop-opacity:1"/><stop offset="0.3" style="stop-color:#9ce996;stop-opacity:1"/><stop offset="0.37" style="stop-color:#b5ff66;stop-opacity:1"/><stop offset="0.59" style="stop-color:#ffe966;stop-opacity:1"/><stop offset="0.8" style="stop-color:#ff8466;stop-opacity:1"/><stop offset="1" style="stop-color:#f66;stop-opacity:1"/></linearGradient><linearGradient id="_Linear9" x1="0" y1="0" x2="1" y2="0" gradientUnits="userSpaceOnUse" gradientTransform="matrix(1550,-1105.072418,1105.072418,1550,261.111111,1603.260823)"><stop offset="0" style="stop-color:#d866ff;stop-opacity:1"/><stop offset="0.21" style="stop-color:#66b9ff;stop-opacity:1"/><stop offset="0.3" style="stop-color:#9ce996;stop-opacity:1"/><stop offset="0.37" style="stop-color:#b5ff66;stop-opacity:1"/><stop offset="0.59" style="stop-color:#ffe966;stop-opacity:1"/><stop offset="0.8" style="stop-color:#ff8466;stop-opacity:1"/><stop offset="1" style="stop-color:#f66;stop-opacity:1"/></linearGradient><linearGradient id="_Linear10" x1="0" y1="0" x2="1" y2="0" gradientUnits="userSpaceOnUse" gradientTransform="matrix(1550,-1105.072418,1105.072418,1550,261.111111,1603.260823)"><stop offset="0" style="stop-color:#d866ff;stop-opacity:1"/><stop offset="0.21" style="stop-color:#66b9ff;stop-opacity:1"/><stop offset="0.3" style="stop-color:#9ce996;stop-opacity:1"/><stop offset="0.37" style="stop-color:#b5ff66;stop-opacity:1"/><stop offset="0.59" style="stop-color:#ffe966;stop-opacity:1"/><stop offset="0.8" style="stop-color:#ff8466;stop-opacity:1"/><stop offset="1" style="stop-color:#f66;stop-opacity:1"/></linearGradient><linearGradient id="_Linear11" x1="0" y1="0" x2="1" y2="0" gradientUnits="userSpaceOnUse" gradientTransform="matrix(1550,-1105.072418,1105.072418,1550,261.111111,1603.260823)"><stop offset="0" style="stop-color:#d866ff;stop-opacity:1"/><stop offset="0.21" style="stop-color:#66b9ff;stop-opacity:1"/><stop offset="0.3" style="stop-color:#9ce996;stop-opacity:1"/><stop offset="0.37" style="stop-color:#b5ff66;stop-opacity:1"/><stop offset="0.59" style="stop-color:#ffe966;stop-opacity:1"/><stop offset="0.8" style="stop-color:#ff8466;stop-opacity:1"/><stop offset="1" style="stop-color:#f66;stop-opacity:1"/></linearGradient><linearGradient id="_Linear12" x1="0" y1="0" x2="1" y2="0" gradientUnits="userSpaceOnUse" gradientTransform="matrix(1550,-1105.072418,1105.072418,1550,261.111111,1603.260823)"><stop offset="0" style="stop-color:#d866ff;stop-opacity:1"/><stop offset="0.21" style="stop-color:#66b9ff;stop-opacity:1"/><stop offset="0.3" style="stop-color:#9ce996;stop-opacity:1"/><stop offset="0.37" style="stop-color:#b5ff66;stop-opacity:1"/><stop offset="0.59" style="stop-color:#ffe966;stop-opacity:1"/><stop offset="0.8" style="stop-color:#ff8466;stop-opacity:1"/><stop offset="1" style="stop-color:#f66;stop-opacity:1"/></linearGradient></defs></svg>