<svg xmlns="http://www.w3.org/2000/svg" xmlns:xlink="http://www.w3.org/1999/xlink" width="500" zoomAndPan="magnify" viewBox="0 0 375 374.999991" height="500" preserveAspectRatio="xMidYMid meet" version="1.0"><defs><g/><clipPath id="23244bf735"><rect x="0" width="270" y="0" height="138"/></clipPath><clipPath id="05d1a15262"><rect x="0" width="272" y="0" height="119"/></clipPath><clipPath id="9d4d397a82"><path d="M 0.519531 25 L 87.640625 25 L 87.640625 107 L 0.519531 107 Z M 0.519531 25 " clip-rule="nonzero"/></clipPath><clipPath id="11d28f2e93"><rect x="0" width="88" y="0" height="136"/></clipPath><clipPath id="32d3e165a9"><rect x="0" width="200" y="0" height="136"/></clipPath></defs><g transform="matrix(1, 0, 0, 1, 54, 199)"><g clip-path="url(#23244bf735)"><g fill="#fefefe" fill-opacity="1"><g transform="translate(0.684705, 107.532313)"><g><path d="M 27.453125 0 C 26.609375 0 25.875 -0.304688 25.25 -0.921875 C 24.632812 -1.546875 24.328125 -2.28125 24.328125 -3.125 L 24.328125 -56.1875 L 5.09375 -56.1875 C 4.25 -56.1875 3.515625 -56.492188 2.890625 -57.109375 C 2.273438 -57.722656 1.96875 -58.457031 1.96875 -59.3125 L 1.96875 -77.96875 C 1.96875 -78.8125 2.273438 -79.539062 2.890625 -80.15625 C 3.515625 -80.78125 4.25 -81.09375 5.09375 -81.09375 L 72.984375 -81.09375 C 73.828125 -81.09375 74.554688 -80.78125 75.171875 -80.15625 C 75.796875 -79.539062 76.109375 -78.8125 76.109375 -77.96875 L 76.109375 -59.3125 C 76.109375 -58.457031 75.796875 -57.722656 75.171875 -57.109375 C 74.554688 -56.492188 73.828125 -56.1875 72.984375 -56.1875 L 53.75 -56.1875 L 53.75 -3.125 C 53.75 -2.28125 53.4375 -1.546875 52.8125 -0.921875 C 52.195312 -0.304688 51.46875 0 50.625 0 Z M 27.453125 0 "/></g></g></g><g fill="#fefefe" fill-opacity="1"><g transform="translate(74.931837, 107.532313)"><g><path d="M 9.5 0 C 8.644531 0 7.910156 -0.304688 7.296875 -0.921875 C 6.679688 -1.546875 6.375 -2.28125 6.375 -3.125 L 6.375 -77.96875 C 6.375 -78.8125 6.679688 -79.539062 7.296875 -80.15625 C 7.910156 -80.78125 8.644531 -81.09375 9.5 -81.09375 L 33.125 -81.09375 C 33.976562 -81.09375 34.710938 -80.78125 35.328125 -80.15625 C 35.953125 -79.539062 36.265625 -78.8125 36.265625 -77.96875 L 36.265625 -3.125 C 36.265625 -2.28125 35.953125 -1.546875 35.328125 -0.921875 C 34.710938 -0.304688 33.976562 0 33.125 0 Z M 9.5 0 "/></g></g></g><g fill="#fefefe" fill-opacity="1"><g transform="translate(113.734649, 107.532313)"><g><path d="M 28.84375 0 C 27.375 0 26.210938 -0.382812 25.359375 -1.15625 C 24.515625 -1.925781 23.9375 -2.816406 23.625 -3.828125 L 1.859375 -77.734375 L 1.734375 -78.546875 C 1.734375 -79.234375 1.984375 -79.828125 2.484375 -80.328125 C 2.992188 -80.835938 3.59375 -81.09375 4.28125 -81.09375 L 25.828125 -81.09375 C 27.296875 -81.09375 28.453125 -80.707031 29.296875 -79.9375 C 30.148438 -79.164062 30.734375 -78.273438 31.046875 -77.265625 L 42.046875 -34.171875 L 53.0625 -77.265625 C 53.363281 -78.273438 53.9375 -79.164062 54.78125 -79.9375 C 55.632812 -80.707031 56.796875 -81.09375 58.265625 -81.09375 L 79.8125 -81.09375 C 80.507812 -81.09375 81.109375 -80.835938 81.609375 -80.328125 C 82.109375 -79.828125 82.359375 -79.234375 82.359375 -78.546875 L 82.25 -77.734375 L 60.46875 -3.828125 C 60.15625 -2.816406 59.570312 -1.925781 58.71875 -1.15625 C 57.875 -0.382812 56.71875 0 55.25 0 Z M 28.84375 0 "/></g></g></g><g fill="#fefefe" fill-opacity="1"><g transform="translate(194.004993, 107.532313)"><g><path d="M 9.5 0 C 8.644531 0 7.910156 -0.304688 7.296875 -0.921875 C 6.679688 -1.546875 6.375 -2.28125 6.375 -3.125 L 6.375 -77.96875 C 6.375 -78.8125 6.679688 -79.539062 7.296875 -80.15625 C 7.910156 -80.78125 8.644531 -81.09375 9.5 -81.09375 L 68.921875 -81.09375 C 69.773438 -81.09375 70.507812 -80.78125 71.125 -80.15625 C 71.75 -79.539062 72.0625 -78.8125 72.0625 -77.96875 L 72.0625 -61.625 C 72.0625 -60.78125 71.75 -60.046875 71.125 -59.421875 C 70.507812 -58.804688 69.773438 -58.5 68.921875 -58.5 L 34.171875 -58.5 L 34.171875 -51.203125 L 66.375 -51.203125 C 67.226562 -51.203125 67.960938 -50.890625 68.578125 -50.265625 C 69.191406 -49.648438 69.5 -48.921875 69.5 -48.078125 L 69.5 -33.015625 C 69.5 -32.160156 69.191406 -31.425781 68.578125 -30.8125 C 67.960938 -30.195312 67.226562 -29.890625 66.375 -29.890625 L 34.171875 -29.890625 L 34.171875 -22.59375 L 69.859375 -22.59375 C 70.703125 -22.59375 71.429688 -22.28125 72.046875 -21.65625 C 72.671875 -21.039062 72.984375 -20.3125 72.984375 -19.46875 L 72.984375 -3.125 C 72.984375 -2.28125 72.671875 -1.546875 72.046875 -0.921875 C 71.429688 -0.304688 70.703125 0 69.859375 0 Z M 9.5 0 "/></g></g></g></g></g><g transform="matrix(1, 0, 0, 1, 49, 37)"><g clip-path="url(#05d1a15262)"><g fill="#fefefe" fill-opacity="1"><g transform="translate(0.977428, 93.216082)"><g><path d="M 8.234375 0 C 7.492188 0 6.851562 -0.265625 6.3125 -0.796875 C 5.78125 -1.335938 5.515625 -1.972656 5.515625 -2.703125 L 5.515625 -67.53125 C 5.515625 -68.269531 5.78125 -68.90625 6.3125 -69.4375 C 6.851562 -69.96875 7.492188 -70.234375 8.234375 -70.234375 L 38.625 -70.234375 C 48 -70.234375 55.375 -68.160156 60.75 -64.015625 C 66.132812 -59.867188 68.828125 -53.75 68.828125 -45.65625 C 68.828125 -37.625 66.148438 -31.648438 60.796875 -27.734375 C 55.453125 -23.828125 48.0625 -21.875 38.625 -21.875 L 31.609375 -21.875 L 31.609375 -2.703125 C 31.609375 -1.972656 31.335938 -1.335938 30.796875 -0.796875 C 30.265625 -0.265625 29.632812 0 28.90625 0 Z M 38.125 -40.4375 C 39.332031 -40.4375 40.40625 -40.882812 41.34375 -41.78125 C 42.28125 -42.6875 42.75 -44.046875 42.75 -45.859375 C 42.75 -47.398438 42.378906 -48.738281 41.640625 -49.875 C 40.898438 -51.007812 39.726562 -51.578125 38.125 -51.578125 L 31.109375 -51.578125 L 31.109375 -40.4375 Z M 38.125 -40.4375 "/></g></g></g><g fill="#fefefe" fill-opacity="1"><g transform="translate(68.394906, 93.216082)"><g><path d="M 8.234375 0 C 7.492188 0 6.851562 -0.265625 6.3125 -0.796875 C 5.78125 -1.335938 5.515625 -1.972656 5.515625 -2.703125 L 5.515625 -67.53125 C 5.515625 -68.269531 5.78125 -68.90625 6.3125 -69.4375 C 6.851562 -69.96875 7.492188 -70.234375 8.234375 -70.234375 L 59.703125 -70.234375 C 60.441406 -70.234375 61.078125 -69.96875 61.609375 -69.4375 C 62.140625 -68.90625 62.40625 -68.269531 62.40625 -67.53125 L 62.40625 -53.390625 C 62.40625 -52.648438 62.140625 -52.007812 61.609375 -51.46875 C 61.078125 -50.9375 60.441406 -50.671875 59.703125 -50.671875 L 29.59375 -50.671875 L 29.59375 -44.359375 L 57.5 -44.359375 C 58.226562 -44.359375 58.859375 -44.085938 59.390625 -43.546875 C 59.929688 -43.015625 60.203125 -42.378906 60.203125 -41.640625 L 60.203125 -28.59375 C 60.203125 -27.863281 59.929688 -27.226562 59.390625 -26.6875 C 58.859375 -26.15625 58.226562 -25.890625 57.5 -25.890625 L 29.59375 -25.890625 L 29.59375 -19.5625 L 60.5 -19.5625 C 61.238281 -19.5625 61.875 -19.296875 62.40625 -18.765625 C 62.945312 -18.234375 63.21875 -17.597656 63.21875 -16.859375 L 63.21875 -2.703125 C 63.21875 -1.972656 62.945312 -1.335938 62.40625 -0.796875 C 61.875 -0.265625 61.238281 0 60.5 0 Z M 8.234375 0 "/></g></g></g><g fill="#fefefe" fill-opacity="1"><g transform="translate(132.000052, 93.216082)"><g><path d="M 8.234375 0 C 7.492188 0 6.851562 -0.265625 6.3125 -0.796875 C 5.78125 -1.335938 5.515625 -1.972656 5.515625 -2.703125 L 5.515625 -67.53125 C 5.515625 -68.269531 5.78125 -68.90625 6.3125 -69.4375 C 6.851562 -69.96875 7.492188 -70.234375 8.234375 -70.234375 L 37.9375 -70.234375 C 47.5625 -70.234375 55.082031 -68.078125 60.5 -63.765625 C 65.925781 -59.453125 68.640625 -53.484375 68.640625 -45.859375 C 68.640625 -41.503906 67.664062 -37.671875 65.71875 -34.359375 C 63.78125 -31.054688 61.140625 -28.332031 57.796875 -26.1875 L 70.140625 -3.3125 C 70.335938 -2.90625 70.4375 -2.535156 70.4375 -2.203125 C 70.4375 -1.597656 70.21875 -1.078125 69.78125 -0.640625 C 69.351562 -0.210938 68.835938 0 68.234375 0 L 47.65625 0 C 46.457031 0 45.503906 -0.28125 44.796875 -0.84375 C 44.097656 -1.414062 43.613281 -2.035156 43.34375 -2.703125 L 34.71875 -21.875 L 30.609375 -21.875 L 30.609375 -2.703125 C 30.609375 -1.972656 30.335938 -1.335938 29.796875 -0.796875 C 29.265625 -0.265625 28.628906 0 27.890625 0 Z M 37.9375 -40.9375 C 39.40625 -40.9375 40.539062 -41.421875 41.34375 -42.390625 C 42.144531 -43.359375 42.546875 -44.582031 42.546875 -46.0625 C 42.546875 -47.53125 42.160156 -48.816406 41.390625 -49.921875 C 40.617188 -51.023438 39.46875 -51.578125 37.9375 -51.578125 L 30.609375 -51.578125 L 30.609375 -40.9375 Z M 37.9375 -40.9375 "/></g></g></g><g fill="#fefefe" fill-opacity="1"><g transform="translate(201.123037, 93.216082)"><g><path d="M 34.8125 1 C 27.726562 1 21.726562 0.03125 16.8125 -1.90625 C 11.894531 -3.84375 8.195312 -6.429688 5.71875 -9.671875 C 3.238281 -12.921875 1.9375 -16.488281 1.8125 -20.375 C 1.8125 -20.96875 2.023438 -21.484375 2.453125 -21.921875 C 2.890625 -22.359375 3.410156 -22.578125 4.015625 -22.578125 L 23.078125 -22.578125 C 24.015625 -22.578125 24.765625 -22.457031 25.328125 -22.21875 C 25.898438 -21.988281 26.585938 -21.539062 27.390625 -20.875 C 29.328125 -19.332031 31.800781 -18.5625 34.8125 -18.5625 C 37.09375 -18.5625 38.914062 -18.8125 40.28125 -19.3125 C 41.65625 -19.8125 42.34375 -20.5 42.34375 -21.375 C 42.34375 -22.570312 41.4375 -23.488281 39.625 -24.125 C 37.820312 -24.757812 34.414062 -25.414062 29.40625 -26.09375 C 12.144531 -28.363281 3.515625 -35.722656 3.515625 -48.171875 C 3.515625 -52.648438 4.800781 -56.644531 7.375 -60.15625 C 9.945312 -63.664062 13.539062 -66.390625 18.15625 -68.328125 C 22.769531 -70.273438 28.085938 -71.25 34.109375 -71.25 C 40.398438 -71.25 45.921875 -70.175781 50.671875 -68.03125 C 55.421875 -65.894531 59.066406 -63.203125 61.609375 -59.953125 C 64.148438 -56.710938 65.488281 -53.550781 65.625 -50.46875 C 65.625 -49.863281 65.40625 -49.34375 64.96875 -48.90625 C 64.539062 -48.476562 64.054688 -48.265625 63.515625 -48.265625 L 43.453125 -48.265625 C 42.515625 -48.265625 41.773438 -48.378906 41.234375 -48.609375 C 40.703125 -48.847656 40.101562 -49.269531 39.4375 -49.875 C 38.03125 -51.070312 36.253906 -51.671875 34.109375 -51.671875 C 30.898438 -51.671875 29.296875 -50.738281 29.296875 -48.875 C 29.296875 -47.863281 30.082031 -47.023438 31.65625 -46.359375 C 33.226562 -45.691406 36.15625 -45.085938 40.4375 -44.546875 C 47.125 -43.679688 52.488281 -42.378906 56.53125 -40.640625 C 60.582031 -38.898438 63.53125 -36.570312 65.375 -33.65625 C 67.21875 -30.75 68.140625 -27.085938 68.140625 -22.671875 C 68.140625 -17.921875 66.695312 -13.753906 63.8125 -10.171875 C 60.9375 -6.597656 56.972656 -3.84375 51.921875 -1.90625 C 46.878906 0.03125 41.175781 1 34.8125 1 Z M 34.8125 1 "/></g></g></g></g></g><g transform="matrix(1, 0, 0, 1, 233, 112)"><g clip-path="url(#11d28f2e93)"><g clip-path="url(#9d4d397a82)"><g fill="#fefefe" fill-opacity="1"><g transform="translate(0.741034, 106.115176)"><g><path d="M 2.515625 0 C 1.828125 0 1.234375 -0.242188 0.734375 -0.734375 C 0.242188 -1.234375 0 -1.828125 0 -2.515625 C 0 -2.828125 0.0351562 -3.097656 0.109375 -3.328125 L 25.6875 -76.46875 C 25.988281 -77.46875 26.554688 -78.347656 27.390625 -79.109375 C 28.234375 -79.878906 29.382812 -80.265625 30.84375 -80.265625 L 55.71875 -80.265625 C 57.175781 -80.265625 58.320312 -79.878906 59.15625 -79.109375 C 60 -78.347656 60.570312 -77.46875 60.875 -76.46875 L 86.453125 -3.328125 C 86.523438 -3.097656 86.5625 -2.828125 86.5625 -2.515625 C 86.5625 -1.828125 86.3125 -1.234375 85.8125 -0.734375 C 85.320312 -0.242188 84.734375 0 84.046875 0 L 62.828125 0 C 60.535156 0 59.046875 -0.953125 58.359375 -2.859375 L 55.609375 -10.4375 L 30.953125 -10.4375 L 28.203125 -2.859375 C 27.515625 -0.953125 26.023438 0 23.734375 0 Z M 36.796875 -32.796875 L 49.765625 -32.796875 L 43.21875 -54.125 Z M 36.796875 -32.796875 "/></g></g></g></g></g></g><g transform="matrix(1, 0, 0, 1, 49, 112)"><g clip-path="url(#32d3e165a9)"><g fill="#fefefe" fill-opacity="1"><g transform="translate(0.723679, 106.115176)"><g><path d="M 9.40625 0 C 8.5625 0 7.832031 -0.300781 7.21875 -0.90625 C 6.613281 -1.519531 6.3125 -2.25 6.3125 -3.09375 L 6.3125 -77.15625 C 6.3125 -78 6.613281 -78.726562 7.21875 -79.34375 C 7.832031 -79.957031 8.5625 -80.265625 9.40625 -80.265625 L 44.140625 -80.265625 C 54.835938 -80.265625 63.265625 -77.894531 69.421875 -73.15625 C 75.578125 -68.414062 78.65625 -61.421875 78.65625 -52.171875 C 78.65625 -42.992188 75.597656 -36.171875 69.484375 -31.703125 C 63.367188 -27.234375 54.921875 -25 44.140625 -25 L 36.109375 -25 L 36.109375 -3.09375 C 36.109375 -2.25 35.800781 -1.519531 35.1875 -0.90625 C 34.582031 -0.300781 33.859375 0 33.015625 0 Z M 43.5625 -46.203125 C 44.945312 -46.203125 46.171875 -46.71875 47.234375 -47.75 C 48.304688 -48.78125 48.84375 -50.328125 48.84375 -52.390625 C 48.84375 -54.148438 48.421875 -55.679688 47.578125 -56.984375 C 46.742188 -58.285156 45.40625 -58.9375 43.5625 -58.9375 L 35.546875 -58.9375 L 35.546875 -46.203125 Z M 43.5625 -46.203125 "/></g></g></g><g fill="#fefefe" fill-opacity="1"><g transform="translate(77.763248, 106.115176)"><g><path d="M 9.40625 0 C 8.5625 0 7.832031 -0.300781 7.21875 -0.90625 C 6.613281 -1.519531 6.3125 -2.25 6.3125 -3.09375 L 6.3125 -77.15625 C 6.3125 -78 6.613281 -78.726562 7.21875 -79.34375 C 7.832031 -79.957031 8.5625 -80.265625 9.40625 -80.265625 L 32.796875 -80.265625 C 33.628906 -80.265625 34.351562 -79.957031 34.96875 -79.34375 C 35.582031 -78.726562 35.890625 -78 35.890625 -77.15625 L 35.890625 -3.09375 C 35.890625 -2.25 35.582031 -1.519531 34.96875 -0.90625 C 34.351562 -0.300781 33.628906 0 32.796875 0 Z M 9.40625 0 "/></g></g></g><g fill="#fefefe" fill-opacity="1"><g transform="translate(116.168088, 106.115176)"><g><path d="M 9.40625 0 C 8.5625 0 7.832031 -0.300781 7.21875 -0.90625 C 6.613281 -1.519531 6.3125 -2.25 6.3125 -3.09375 L 6.3125 -77.15625 C 6.3125 -78 6.613281 -78.726562 7.21875 -79.34375 C 7.832031 -79.957031 8.5625 -80.265625 9.40625 -80.265625 L 31.296875 -80.265625 C 32.140625 -80.265625 32.863281 -79.957031 33.46875 -79.34375 C 34.082031 -78.726562 34.390625 -78 34.390625 -77.15625 L 34.390625 -54.46875 L 47.359375 -77.734375 C 48.273438 -79.421875 49.800781 -80.265625 51.9375 -80.265625 L 77.28125 -80.265625 C 77.96875 -80.265625 78.554688 -80.015625 79.046875 -79.515625 C 79.546875 -79.015625 79.796875 -78.421875 79.796875 -77.734375 C 79.796875 -77.273438 79.679688 -76.851562 79.453125 -76.46875 L 58.8125 -41.84375 L 81.40625 -3.78125 C 81.632812 -3.476562 81.75 -3.054688 81.75 -2.515625 C 81.75 -1.828125 81.5 -1.234375 81 -0.734375 C 80.507812 -0.242188 79.921875 0 79.234375 0 L 53.078125 0 C 51.785156 0 50.753906 -0.285156 49.984375 -0.859375 C 49.222656 -1.429688 48.691406 -2.023438 48.390625 -2.640625 L 34.390625 -27.625 L 34.390625 -3.09375 C 34.390625 -2.25 34.082031 -1.519531 33.46875 -0.90625 C 32.863281 -0.300781 32.140625 0 31.296875 0 Z M 9.40625 0 "/></g></g></g></g></g></svg>