<svg xmlns="http://www.w3.org/2000/svg" xmlns:xlink="http://www.w3.org/1999/xlink" width="500" zoomAndPan="magnify" viewBox="0 0 375 374.999991" height="500" preserveAspectRatio="xMidYMid meet" version="1.0"><defs><clipPath id="e18e1a05bd"><path d="M 45 65 L 330 65 L 330 314 L 45 314 Z M 45 65 " clip-rule="nonzero"/></clipPath></defs><g clip-path="url(#e18e1a05bd)"><path fill="#ffffff" d="M 187.5 191.953125 L 206.203125 210.65625 C 209.289062 213.824219 213.179688 215.355469 217.871094 215.257812 C 222.5625 215.160156 226.488281 213.476562 229.65625 210.210938 C 232.824219 206.945312 234.40625 202.988281 234.40625 198.34375 C 234.40625 193.703125 232.824219 189.789062 229.65625 186.609375 L 211.25 168.203125 L 229.65625 149.796875 C 232.824219 146.339844 234.40625 142.308594 234.40625 137.707031 C 234.40625 133.097656 232.824219 129.214844 229.65625 126.046875 C 226.488281 122.878906 222.582031 121.296875 217.9375 121.296875 C 213.296875 121.296875 209.382812 122.878906 206.203125 126.046875 L 187.5 144.453125 L 168.796875 126.046875 C 165.667969 122.878906 161.820312 121.296875 157.25 121.296875 C 152.675781 121.296875 148.808594 122.878906 145.640625 126.046875 C 142.472656 129.214844 140.890625 133.097656 140.890625 137.707031 C 140.890625 142.308594 142.472656 146.339844 145.640625 149.796875 L 163.75 168.203125 L 145.34375 186.90625 C 142.175781 189.992188 140.644531 193.832031 140.742188 198.425781 C 140.839844 203.015625 142.472656 206.945312 145.640625 210.210938 C 148.808594 213.476562 152.714844 215.109375 157.359375 215.109375 C 162 215.109375 165.914062 213.527344 169.09375 210.359375 Z M 60.140625 313.96875 C 55.785156 313.96875 52.074219 312.433594 49.007812 309.367188 C 45.941406 306.300781 44.40625 302.589844 44.40625 298.234375 C 44.40625 293.6875 45.941406 289.976562 49.007812 287.105469 C 52.074219 284.234375 55.785156 282.796875 60.140625 282.796875 L 314.859375 282.796875 C 319.214844 282.796875 322.925781 284.234375 325.992188 287.109375 C 329.058594 289.980469 330.59375 293.644531 330.59375 298.09375 C 330.59375 302.542969 329.058594 306.300781 325.992188 309.367188 C 322.925781 312.433594 319.214844 313.96875 314.859375 313.96875 Z M 95.46875 270.921875 C 84.164062 270.921875 74.609375 267.019531 66.800781 259.214844 C 58.996094 251.40625 55.09375 241.851562 55.09375 230.546875 L 55.09375 106.15625 C 55.09375 94.847656 58.996094 85.292969 66.800781 77.488281 C 74.609375 69.683594 84.164062 65.78125 95.46875 65.78125 L 279.53125 65.78125 C 290.839844 65.78125 300.394531 69.683594 308.199219 77.488281 C 316.003906 85.292969 319.90625 94.847656 319.90625 106.15625 L 319.90625 230.546875 C 319.90625 241.851562 316.003906 251.40625 308.199219 259.214844 C 300.394531 267.019531 290.839844 270.921875 279.53125 270.921875 Z M 95.46875 230.546875 L 279.53125 230.546875 L 279.53125 106.15625 L 95.46875 106.15625 Z M 95.46875 230.546875 L 95.46875 106.15625 Z M 95.46875 230.546875 " fill-opacity="1" fill-rule="nonzero"/></g></svg>