<svg xmlns="http://www.w3.org/2000/svg" xmlns:xlink="http://www.w3.org/1999/xlink" width="500" zoomAndPan="magnify" viewBox="0 0 375 374.999991" height="500" preserveAspectRatio="xMidYMid meet" version="1.0"><path fill="#ffffff" d="M 103.910156 254.710938 C 115.597656 246.03125 128.53125 239.242188 142.710938 234.347656 C 156.886719 229.449219 171.816406 227 187.5 227 C 203.183594 227 218.210938 229.546875 232.582031 234.636719 C 246.957031 239.730469 259.792969 246.488281 271.089844 254.90625 C 278.722656 245.378906 284.644531 235.015625 288.855469 223.808594 C 293.066406 212.605469 295.167969 200.503906 295.167969 187.5 C 295.167969 157.796875 284.648438 132.429688 263.609375 111.390625 C 242.570312 90.351562 217.203125 79.832031 187.5 79.832031 C 157.796875 79.832031 132.429688 90.351562 111.390625 111.390625 C 90.351562 132.429688 79.832031 157.796875 79.832031 187.5 C 79.832031 200.371094 81.902344 212.410156 86.050781 223.613281 C 90.195312 234.820312 96.148438 245.1875 103.910156 254.710938 Z M 152.132812 188.785156 C 142.589844 179.308594 137.820312 167.550781 137.820312 153.511719 C 137.820312 139.476562 142.589844 127.683594 152.132812 118.144531 C 161.671875 108.605469 173.460938 103.835938 187.5 103.835938 C 201.539062 103.835938 213.328125 108.605469 222.867188 118.144531 C 232.410156 127.683594 237.179688 139.476562 237.179688 153.511719 C 237.179688 167.550781 232.410156 179.308594 222.867188 188.785156 C 213.328125 198.261719 201.539062 203 187.5 203 C 173.460938 203 161.671875 198.261719 152.132812 188.785156 Z M 187.5 331.605469 C 167.570312 331.605469 148.855469 327.835938 131.347656 320.292969 C 113.84375 312.75 98.578125 302.46875 85.554688 289.445312 C 72.53125 276.421875 62.25 261.15625 54.707031 243.652344 C 47.164062 226.144531 43.394531 207.429688 43.394531 187.5 C 43.394531 167.570312 47.164062 148.855469 54.707031 131.347656 C 62.25 113.84375 72.53125 98.578125 85.554688 85.554688 C 98.578125 72.53125 113.84375 62.25 131.347656 54.707031 C 148.855469 47.164062 167.570312 43.394531 187.5 43.394531 C 207.429688 43.394531 226.144531 47.164062 243.652344 54.707031 C 261.15625 62.25 276.421875 72.53125 289.445312 85.554688 C 302.46875 98.578125 312.75 113.84375 320.292969 131.347656 C 327.835938 148.855469 331.605469 167.570312 331.605469 187.5 C 331.605469 207.429688 327.835938 226.144531 320.292969 243.652344 C 312.75 261.15625 302.46875 276.421875 289.445312 289.445312 C 276.421875 302.46875 261.15625 312.75 243.652344 320.292969 C 226.144531 327.835938 207.429688 331.605469 187.5 331.605469 Z M 187.5 331.605469 " fill-opacity="1" fill-rule="nonzero"/></svg>