<svg xmlns="http://www.w3.org/2000/svg" xmlns:xlink="http://www.w3.org/1999/xlink" width="500" zoomAndPan="magnify" viewBox="0 0 375 374.999991" height="500" preserveAspectRatio="xMidYMid meet" version="1.0"><path fill="#ffffff" d="M 53.90625 301.171875 L 53.90625 153.90625 C 53.90625 148.113281 55.0625 142.773438 57.375 137.890625 C 59.683594 133.007812 63.214844 128.839844 67.96875 125.390625 L 166.015625 51.171875 C 171.921875 46.746094 179.0625 44.53125 187.4375 44.53125 C 195.8125 44.53125 203.125 46.746094 209.375 51.171875 L 307.421875 125.390625 C 311.914062 128.839844 315.382812 133.007812 317.824219 137.890625 C 320.265625 142.773438 321.484375 148.113281 321.484375 153.90625 L 321.484375 301.171875 C 321.484375 311.003906 317.953125 319.382812 310.890625 326.316406 C 303.824219 333.25 295.378906 336.71875 285.546875 336.71875 L 238.671875 336.71875 C 233.269531 336.71875 228.921875 335.007812 225.636719 331.589844 C 222.347656 328.171875 220.703125 323.894531 220.703125 318.75 L 220.703125 233.984375 C 220.703125 229.101562 218.996094 224.949219 215.578125 221.53125 C 212.160156 218.113281 208.007812 216.40625 203.125 216.40625 L 172.265625 216.40625 C 167.121094 216.40625 162.84375 218.113281 159.425781 221.53125 C 156.007812 224.949219 154.296875 229.101562 154.296875 233.984375 L 154.296875 318.75 C 154.296875 323.894531 152.652344 328.171875 149.367188 331.589844 C 146.078125 335.007812 141.863281 336.71875 136.71875 336.71875 L 89.453125 336.71875 C 79.621094 336.71875 71.242188 333.25 64.308594 326.316406 C 57.375 319.382812 53.90625 311.003906 53.90625 301.171875 Z M 53.90625 301.171875 " fill-opacity="1" fill-rule="nonzero"/></svg>