<svg xmlns="http://www.w3.org/2000/svg" xmlns:xlink="http://www.w3.org/1999/xlink" width="500" zoomAndPan="magnify" viewBox="0 0 375 374.999991" height="500" preserveAspectRatio="xMidYMid meet" version="1.0"><path fill="#ffffff" d="M 89.453125 301.171875 L 139.0625 301.171875 L 139.0625 218.75 C 139.0625 213.855469 140.796875 209.636719 144.261719 206.09375 C 147.730469 202.550781 151.855469 200.78125 156.640625 200.78125 L 218.359375 200.78125 C 223.253906 200.78125 227.472656 202.550781 231.015625 206.09375 C 234.558594 209.636719 236.328125 213.855469 236.328125 218.75 L 236.328125 301.171875 L 285.546875 301.171875 L 285.546875 154.035156 L 187.5 80.46875 L 89.453125 153.777344 Z M 53.90625 301.171875 L 53.90625 153.90625 C 53.90625 148.167969 55.074219 142.835938 57.410156 137.910156 C 59.746094 132.984375 63.265625 128.8125 67.96875 125.390625 L 166.015625 51.171875 C 171.921875 46.746094 179.0625 44.53125 187.4375 44.53125 C 195.8125 44.53125 203.125 46.746094 209.375 51.171875 L 307.421875 125.390625 C 311.988281 128.8125 315.472656 132.984375 317.878906 137.910156 C 320.28125 142.835938 321.484375 148.167969 321.484375 153.90625 L 321.484375 301.171875 C 321.484375 311.015625 317.984375 319.402344 310.980469 326.328125 C 303.976562 333.253906 295.496094 336.71875 285.546875 336.71875 L 222.65625 336.71875 C 217.503906 336.71875 213.289062 334.984375 210.003906 331.515625 C 206.71875 328.042969 205.078125 323.789062 205.078125 318.75 L 205.078125 232.03125 L 170.3125 232.03125 L 170.3125 318.75 C 170.3125 323.789062 168.632812 328.042969 165.273438 331.515625 C 161.914062 334.984375 157.605469 336.71875 152.34375 336.71875 L 89.453125 336.71875 C 79.609375 336.71875 71.222656 333.253906 64.296875 326.328125 C 57.371094 319.402344 53.90625 311.015625 53.90625 301.171875 Z M 187.5 190.625 Z M 187.5 190.625 " fill-opacity="1" fill-rule="nonzero"/></svg>