<svg xmlns="http://www.w3.org/2000/svg" xmlns:xlink="http://www.w3.org/1999/xlink" width="500" zoomAndPan="magnify" viewBox="0 0 375 374.999991" height="500" preserveAspectRatio="xMidYMid meet" version="1.0"><path fill="#ffffff" d="M 113.648438 302.511719 L 113.648438 152.410156 C 113.648438 141.566406 117.449219 132.390625 125.054688 124.894531 C 132.660156 117.398438 141.882812 113.648438 152.730469 113.648438 L 302.511719 113.648438 C 313.355469 113.648438 322.554688 117.421875 330.105469 124.976562 C 337.65625 132.527344 341.433594 141.726562 341.433594 152.570312 L 341.433594 249.648438 C 341.433594 254.8125 340.457031 259.757812 338.503906 264.480469 C 336.546875 269.207031 333.742188 273.402344 330.078125 277.0625 L 277.0625 330.078125 C 273.402344 333.742188 269.207031 336.546875 264.480469 338.503906 C 259.757812 340.457031 254.8125 341.433594 249.648438 341.433594 L 152.570312 341.433594 C 141.726562 341.433594 132.527344 337.65625 124.976562 330.105469 C 117.421875 322.554688 113.648438 313.355469 113.648438 302.511719 Z M 34.144531 105.121094 C 32.257812 94.414062 34.371094 84.710938 40.472656 76.011719 C 46.578125 67.308594 54.980469 62.015625 65.6875 60.132812 L 213.425781 34.144531 C 224.132812 32.257812 233.835938 34.371094 242.539062 40.472656 C 251.238281 46.578125 256.53125 54.980469 258.414062 65.6875 L 261.671875 84.273438 L 152.570312 84.273438 C 133.648438 84.273438 117.535156 90.925781 104.230469 104.230469 C 90.925781 117.535156 84.273438 133.648438 84.273438 152.570312 L 84.273438 282.25 C 78.144531 279.769531 72.875 275.96875 68.46875 270.84375 C 64.058594 265.71875 61.28125 259.722656 60.132812 252.859375 Z M 304.585938 248.117188 L 267.578125 248.117188 C 262.171875 248.117188 257.578125 250.011719 253.792969 253.792969 C 250.011719 257.578125 248.117188 262.171875 248.117188 267.578125 L 248.117188 304.585938 Z M 304.585938 248.117188 " fill-opacity="1" fill-rule="nonzero"/></svg>