<svg xmlns="http://www.w3.org/2000/svg" xmlns:xlink="http://www.w3.org/1999/xlink" width="500" zoomAndPan="magnify" viewBox="0 0 375 374.999991" height="500" preserveAspectRatio="xMidYMid meet" version="1.0"><path fill="#ffffff" d="M 150.496094 150.496094 L 150.496094 304.585938 L 248.117188 304.585938 L 248.117188 267.578125 C 248.117188 262.171875 250.011719 257.578125 253.792969 253.792969 C 257.578125 250.011719 262.171875 248.117188 267.578125 248.117188 L 304.585938 248.117188 L 304.585938 150.496094 Z M 227.539062 227.539062 Z M 113.648438 302.511719 L 113.648438 152.410156 C 113.648438 141.617188 117.449219 132.457031 125.054688 124.929688 C 132.660156 117.410156 141.882812 113.648438 152.730469 113.648438 L 302.511719 113.648438 C 313.355469 113.648438 322.554688 117.421875 330.105469 124.976562 C 337.65625 132.527344 341.433594 141.726562 341.433594 152.570312 L 341.433594 249.648438 C 341.433594 254.847656 340.457031 259.800781 338.503906 264.507812 C 336.546875 269.214844 333.742188 273.402344 330.078125 277.0625 L 277.0625 330.078125 C 273.402344 333.742188 269.214844 336.546875 264.507812 338.503906 C 259.800781 340.457031 254.847656 341.433594 249.648438 341.433594 L 152.570312 341.433594 C 141.726562 341.433594 132.527344 337.65625 124.976562 330.105469 C 117.421875 322.554688 113.648438 313.355469 113.648438 302.511719 Z M 34.144531 105.121094 C 32.257812 94.414062 34.371094 84.710938 40.472656 76.011719 C 46.578125 67.308594 54.980469 62.015625 65.6875 60.132812 L 213.425781 34.144531 C 224.027344 32.257812 233.71875 34.222656 242.503906 40.035156 C 251.292969 45.84375 256.527344 53.980469 258.210938 64.445312 L 259.742188 72.507812 C 260.6875 78.371094 259.574219 83.082031 256.394531 86.644531 C 253.21875 90.203125 249.378906 92.367188 244.875 93.132812 C 240.375 93.898438 235.988281 93.15625 231.714844 90.902344 C 227.441406 88.65625 224.695312 84.597656 223.46875 78.730469 L 221.730469 70 L 70 96.820312 L 90.785156 215.246094 C 91.65625 220.238281 90.714844 224.800781 87.960938 228.9375 C 85.203125 233.070312 81.292969 235.644531 76.234375 236.65625 C 71.171875 237.667969 66.566406 236.734375 62.417969 233.855469 C 58.265625 230.976562 55.683594 226.902344 54.671875 221.632812 Z M 34.144531 105.121094 " fill-opacity="1" fill-rule="nonzero"/></svg>