<svg xmlns="http://www.w3.org/2000/svg" xmlns:xlink="http://www.w3.org/1999/xlink" width="500" zoomAndPan="magnify" viewBox="0 0 375 374.999991" height="500" preserveAspectRatio="xMidYMid meet" version="1.0"><path fill="#ffffff" d="M 196.070312 187.203125 L 138.988281 130.027344 C 134.769531 125.871094 132.660156 120.742188 132.660156 114.640625 C 132.660156 108.535156 134.753906 103.390625 138.941406 99.207031 C 143.128906 95.019531 148.273438 92.925781 154.375 92.925781 C 160.476562 92.925781 165.605469 95.003906 169.761719 99.160156 L 242.230469 171.628906 C 244.4375 173.835938 246.0625 176.222656 247.097656 178.78125 C 248.132812 181.34375 248.652344 184.136719 248.652344 187.15625 C 248.652344 190.175781 248.132812 192.96875 247.097656 195.527344 C 246.0625 198.089844 244.4375 200.476562 242.230469 202.683594 L 169.761719 275.152344 C 165.605469 279.308594 160.476562 281.386719 154.375 281.386719 C 148.273438 281.386719 143.128906 279.292969 138.941406 275.105469 C 134.753906 270.921875 132.660156 265.777344 132.660156 259.671875 C 132.660156 253.570312 134.769531 248.441406 138.988281 244.285156 Z M 196.070312 187.203125 " fill-opacity="1" fill-rule="nonzero"/></svg>