<svg xmlns="http://www.w3.org/2000/svg" xmlns:xlink="http://www.w3.org/1999/xlink" width="500" zoomAndPan="magnify" viewBox="0 0 375 374.999991" height="500" preserveAspectRatio="xMidYMid meet" version="1.0"><path fill="#ffffff" d="M 170.242188 187.203125 L 227.324219 244.285156 C 231.542969 248.441406 233.652344 253.570312 233.652344 259.671875 C 233.652344 265.777344 231.558594 270.921875 227.371094 275.105469 C 223.1875 279.292969 218.042969 281.386719 211.9375 281.386719 C 205.835938 281.386719 200.675781 279.308594 196.457031 275.152344 L 124.082031 202.683594 C 121.875 200.476562 120.25 198.089844 119.214844 195.527344 C 118.179688 192.96875 117.660156 190.175781 117.660156 187.15625 C 117.660156 184.136719 118.179688 181.34375 119.214844 178.78125 C 120.25 176.222656 121.875 173.835938 124.082031 171.628906 L 196.457031 99.160156 C 200.675781 95.003906 205.835938 92.925781 211.9375 92.925781 C 218.042969 92.925781 223.1875 95.019531 227.371094 99.207031 C 231.558594 103.390625 233.652344 108.535156 233.652344 114.640625 C 233.652344 120.742188 231.542969 125.871094 227.324219 130.027344 Z M 170.242188 187.203125 " fill-opacity="1" fill-rule="nonzero"/></svg>