<svg xmlns="http://www.w3.org/2000/svg" xmlns:xlink="http://www.w3.org/1999/xlink" width="500" zoomAndPan="magnify" viewBox="0 0 375 374.999991" height="500" preserveAspectRatio="xMidYMid meet" version="1.0"><defs><clipPath id="c26131ebf3"><path d="M 1.25 131.402344 L 374 131.402344 L 374 285.152344 L 1.25 285.152344 Z M 1.25 131.402344 " clip-rule="nonzero"/></clipPath></defs><g clip-path="url(#c26131ebf3)"><path fill="#fefefe" d="M 15.078125 131.402344 L 107.304688 131.402344 L 110.164062 132.117188 L 113.976562 134.023438 L 116.835938 136.644531 L 118.503906 138.554688 L 120.171875 141.890625 L 120.886719 144.511719 L 121.125 146.179688 L 121.125 231.972656 L 124.460938 232.6875 L 127.558594 234.117188 L 127.558594 145.941406 L 128.273438 142.605469 L 129.464844 139.746094 L 131.371094 137.121094 L 132.5625 135.929688 L 134.710938 134.023438 L 138.523438 132.117188 L 141.382812 131.402344 L 233.609375 131.402344 L 236.46875 132.117188 L 240.28125 134.023438 L 242.902344 136.167969 L 245.046875 139.03125 L 246.476562 141.890625 L 247.191406 144.511719 L 247.429688 146.179688 L 247.429688 232.925781 L 250.527344 231.972656 L 254.101562 231.734375 L 254.101562 145.226562 L 254.816406 142.367188 L 256.007812 139.746094 L 257.675781 137.121094 L 259.824219 134.976562 L 262.683594 133.070312 L 266.496094 131.640625 L 267.925781 131.402344 L 359.914062 131.402344 L 363.011719 132.117188 L 366.347656 133.785156 L 368.730469 135.691406 L 370.875 138.074219 L 372.542969 140.9375 L 373.496094 143.796875 L 373.734375 144.988281 L 373.734375 241.027344 L 372.78125 244.363281 L 371.351562 247.222656 L 369.445312 249.605469 L 367.0625 251.75 L 364.679688 253.179688 L 361.34375 254.371094 L 360.152344 254.609375 L 304.386719 254.609375 L 304.386719 256.992188 L 304.148438 259.613281 L 303.910156 260.328125 L 304.863281 260.566406 L 304.386719 261.761719 L 303.671875 263.429688 L 302.71875 264.382812 L 300.335938 268.195312 L 297.953125 271.054688 L 294.617188 273.675781 L 290.566406 275.582031 L 286.511719 276.535156 L 281.746094 276.535156 L 278.171875 275.820312 L 274.121094 274.152344 L 273.40625 276.296875 L 271.976562 278.917969 L 269.832031 281.300781 L 268.164062 282.730469 L 265.304688 284.160156 L 261.730469 285.113281 L 259.824219 285.351562 L 248.621094 285.351562 L 248.621094 275.582031 L 247.191406 275.34375 L 246.953125 276.535156 L 205.964844 276.535156 L 205.964844 274.867188 L 203.34375 275.820312 L 200.007812 276.535156 L 195.238281 276.535156 L 191.664062 275.820312 L 189.28125 274.867188 L 189.042969 276.535156 L 142.574219 276.535156 L 138.761719 275.582031 L 138.046875 275.34375 L 137.808594 276.535156 L 97.054688 276.535156 L 97.054688 275.820312 L 94.195312 276.535156 L 88.714844 276.535156 L 85.378906 275.820312 L 82.042969 274.390625 L 79.183594 272.484375 L 76.800781 270.339844 L 74.65625 267.71875 L 73.226562 265.335938 L 71.554688 260.804688 L 70.839844 256.753906 L 70.839844 254.609375 L 14.839844 254.609375 L 11.023438 253.417969 L 8.402344 251.988281 L 5.78125 249.84375 L 3.636719 246.984375 L 2.207031 244.125 L 1.492188 241.742188 L 1.253906 240.074219 L 1.253906 145.941406 L 1.96875 142.605469 L 3.160156 139.746094 L 5.066406 137.121094 L 6.257812 135.929688 L 8.402344 134.023438 L 12.21875 132.117188 Z M 47.011719 149.753906 L 45.34375 150.46875 L 44.152344 151.421875 L 42.722656 154.28125 L 38.667969 165.957031 L 34.617188 177.398438 L 30.328125 189.789062 L 26.277344 201.230469 L 21.75 214.335938 L 17.699219 225.773438 L 16.507812 229.347656 L 16.746094 231.019531 L 17.9375 232.210938 L 18.652344 232.449219 L 42.003906 232.449219 L 44.390625 231.496094 L 45.34375 230.300781 L 47.011719 226.011719 L 48.441406 221.960938 L 73.941406 221.960938 L 76.800781 229.824219 L 77.753906 231.257812 L 79.421875 232.210938 L 80.375 232.449219 L 86.570312 232.449219 L 89.191406 231.972656 L 93.242188 231.972656 L 97.054688 232.449219 L 97.054688 223.152344 L 103.488281 223.152344 L 103.011719 221.007812 L 98.007812 206.710938 L 92.765625 191.695312 L 87.523438 176.683594 L 82.28125 161.667969 L 79.183594 152.851562 L 77.515625 150.707031 L 76.324219 149.992188 L 75.371094 149.753906 Z M 153.535156 149.753906 L 152.105469 150.707031 L 151.390625 152.136719 L 151.390625 230.0625 L 152.105469 231.257812 L 152.582031 231.734375 L 155.679688 231.734375 L 155.679688 223.152344 L 180.941406 223.152344 L 180.941406 206.710938 L 185.945312 206.710938 L 186.660156 208.855469 L 190.472656 217.195312 L 194.285156 225.773438 L 196.433594 230.300781 L 198.101562 231.734375 L 202.390625 232.449219 L 206.203125 232.449219 L 206.203125 231.734375 L 227.175781 231.734375 L 227.890625 230.300781 L 227.652344 228.632812 L 223.597656 221.007812 L 220.738281 215.765625 L 214.066406 203.375 L 213.351562 202.183594 L 213.589844 201.230469 L 216.449219 199.082031 L 219.546875 195.984375 L 222.40625 191.933594 L 223.835938 189.074219 L 225.027344 185.5 L 225.742188 180.734375 L 225.742188 175.96875 L 225.027344 171.203125 L 223.835938 167.386719 L 221.929688 163.574219 L 219.785156 160.714844 L 216.449219 157.378906 L 212.875 154.996094 L 209.0625 153.089844 L 205.25 151.660156 L 200.007812 150.46875 L 194.046875 149.753906 Z M 278.410156 149.753906 L 277.21875 150.46875 L 276.265625 151.660156 L 276.027344 152.851562 L 276.027344 171.917969 L 276.503906 173.585938 L 277.695312 174.777344 L 278.410156 175.015625 L 298.90625 175.015625 L 298.90625 229.824219 L 299.621094 231.257812 L 300.8125 232.210938 L 301.765625 232.449219 L 326.074219 232.449219 L 327.742188 231.734375 L 328.695312 230.78125 L 328.933594 230.0625 L 328.933594 175.015625 L 349.425781 175.015625 L 350.621094 174.300781 L 351.574219 173.109375 L 351.8125 172.394531 L 351.8125 152.613281 L 351.097656 150.945312 L 350.140625 149.992188 L 349.425781 149.753906 Z M 104.445312 230.300781 L 104.445312 269.148438 L 111.59375 269.148438 L 111.832031 251.511719 L 112.785156 249.128906 L 114.214844 247.460938 L 116.359375 246.507812 L 118.265625 246.507812 L 120.171875 247.222656 L 121.363281 248.414062 L 122.554688 250.558594 L 123.03125 252.703125 L 123.269531 269.148438 L 130.417969 269.148438 L 130.417969 251.988281 L 129.703125 248.652344 L 128.511719 245.792969 L 126.84375 243.171875 L 124.9375 241.265625 L 122.316406 239.835938 L 119.933594 239.121094 L 116.597656 239.121094 L 114.214844 239.835938 L 111.59375 241.503906 L 111.59375 230.300781 Z M 163.066406 230.300781 L 163.066406 269.148438 L 170.21875 269.148438 L 170.21875 230.300781 Z M 174.507812 230.300781 L 174.269531 230.539062 L 174.269531 269.148438 L 181.65625 269.148438 L 181.65625 230.539062 L 181.417969 230.300781 Z M 89.191406 239.121094 L 86.332031 240.074219 L 83.710938 241.742188 L 81.804688 243.410156 L 79.660156 246.746094 L 78.707031 249.367188 L 78.230469 251.988281 L 78.230469 256.277344 L 78.945312 259.613281 L 80.136719 262.476562 L 81.804688 264.859375 L 84.1875 267.003906 L 87.523438 268.671875 L 89.191406 269.148438 L 93.71875 269.148438 L 96.101562 268.433594 L 98.722656 267.003906 L 101.105469 264.621094 L 101.820312 263.191406 L 96.578125 260.089844 L 95.625 259.613281 L 93.957031 261.042969 L 92.050781 261.761719 L 90.382812 261.761719 L 88.476562 261.042969 L 87.285156 259.851562 L 86.09375 257.945312 L 85.617188 256.039062 L 85.617188 252.464844 L 86.570312 249.367188 L 88.238281 247.460938 L 89.429688 246.746094 L 91.8125 246.507812 L 93.957031 247.222656 L 95.148438 248.175781 L 95.386719 248.652344 L 96.578125 248.175781 L 101.582031 245.316406 L 101.820312 244.839844 L 100.152344 242.695312 L 98.246094 241.027344 L 95.386719 239.597656 L 93.71875 239.121094 Z M 143.289062 239.121094 L 140.191406 240.074219 L 137.570312 241.980469 L 135.664062 244.125 L 133.992188 247.460938 L 133.039062 251.035156 L 132.800781 252.703125 L 132.800781 255.5625 L 133.515625 259.375 L 134.949219 262.953125 L 136.855469 265.574219 L 139 267.480469 L 141.382812 268.671875 L 143.289062 269.148438 L 146.625 269.148438 L 149.007812 268.433594 L 151.390625 267.003906 L 151.628906 269.148438 L 158.777344 269.148438 L 158.777344 239.121094 L 151.628906 239.121094 L 151.390625 241.265625 L 149.007812 239.835938 L 146.625 239.121094 Z M 195.476562 239.121094 L 192.378906 240.074219 L 189.996094 241.503906 L 188.089844 243.171875 L 185.945312 246.507812 L 184.992188 249.367188 L 184.515625 252.464844 L 184.515625 255.800781 L 185.230469 259.613281 L 186.421875 262.476562 L 188.089844 265.097656 L 189.996094 266.765625 L 193.808594 268.671875 L 195.714844 269.148438 L 199.53125 269.148438 L 202.628906 268.195312 L 204.773438 267.003906 L 207.15625 264.859375 L 208.109375 263.667969 L 207.871094 262.953125 L 202.152344 259.613281 L 200.484375 261.042969 L 198.816406 261.761719 L 196.433594 261.761719 L 194.523438 260.804688 L 192.855469 258.898438 L 191.902344 256.039062 L 210.492188 256.039062 L 210.730469 254.847656 L 210.492188 250.796875 L 209.539062 247.222656 L 208.109375 244.601562 L 205.964844 242.21875 L 204.058594 240.789062 L 202.152344 239.835938 L 199.53125 239.121094 Z M 213.351562 239.121094 L 213.351562 269.148438 L 220.738281 269.148438 L 220.976562 251.273438 L 221.929688 249.128906 L 223.359375 247.460938 L 225.503906 246.507812 L 227.414062 246.507812 L 229.320312 247.222656 L 230.988281 249.128906 L 231.941406 251.75 L 232.179688 253.179688 L 232.417969 269.148438 L 239.566406 269.148438 L 239.566406 252.703125 L 238.851562 248.890625 L 237.660156 246.03125 L 236.230469 243.648438 L 234.5625 241.742188 L 231.941406 240.074219 L 230.035156 239.359375 L 228.84375 239.121094 L 225.742188 239.121094 L 223.359375 239.835938 L 220.976562 241.265625 L 220.738281 239.121094 Z M 252.433594 239.121094 L 249.335938 240.074219 L 246.953125 241.742188 L 245.285156 243.410156 L 243.378906 246.746094 L 242.1875 250.558594 L 241.949219 252.226562 L 241.949219 256.039062 L 242.664062 259.613281 L 243.855469 262.476562 L 245.523438 265.097656 L 247.429688 267.003906 L 249.8125 268.433594 L 252.433594 269.148438 L 255.769531 269.148438 L 258.632812 268.195312 L 260.539062 266.765625 L 260.539062 268.433594 L 259.824219 270.101562 L 258.15625 270.578125 L 256.007812 270.816406 L 256.007812 277.964844 L 259.347656 277.964844 L 262.683594 277.25 L 264.828125 275.820312 L 266.257812 274.152344 L 267.210938 272.007812 L 267.925781 268.433594 L 267.925781 239.121094 L 260.777344 239.121094 L 260.777344 241.503906 L 258.15625 239.835938 L 255.769531 239.121094 Z M 281.984375 239.121094 L 279.363281 239.835938 L 276.980469 241.027344 L 274.597656 243.171875 L 272.691406 245.792969 L 271.5 248.890625 L 271.023438 251.273438 L 271.023438 256.992188 L 271.976562 260.804688 L 273.644531 263.90625 L 275.789062 266.289062 L 278.410156 267.957031 L 281.03125 268.910156 L 281.984375 269.148438 L 286.035156 269.148438 L 289.136719 268.195312 L 291.519531 266.765625 L 293.425781 265.097656 L 294.617188 263.191406 L 288.898438 259.851562 L 288.179688 259.613281 L 287.226562 260.804688 L 285.082031 261.761719 L 282.9375 261.761719 L 280.554688 260.566406 L 279.125 258.660156 L 278.410156 256.039062 L 297 256.039062 L 297 251.511719 L 296.046875 247.460938 L 294.378906 244.363281 L 292.234375 241.980469 L 289.613281 240.3125 L 286.988281 239.359375 L 286.035156 239.121094 Z M 281.984375 239.121094 " fill-opacity="1" fill-rule="nonzero"/></g><path fill="#fefefe" d="M 180.941406 171.679688 L 190.949219 171.679688 L 192.855469 172.632812 L 194.285156 174.539062 L 195 176.683594 L 195 179.542969 L 194.285156 181.6875 L 193.09375 183.117188 L 191.425781 184.070312 L 189.757812 184.308594 L 180.941406 184.308594 Z M 180.941406 171.679688 " fill-opacity="1" fill-rule="nonzero"/><path fill="#fefefe" d="M 61.070312 176.683594 L 61.546875 177.636719 L 66.789062 194.554688 L 67.742188 197.652344 L 67.742188 198.605469 L 54.636719 198.605469 L 54.875 196.9375 L 60.832031 177.160156 Z M 61.070312 176.683594 " fill-opacity="1" fill-rule="nonzero"/><path fill="#fefefe" d="M 253.863281 246.269531 L 256.007812 246.269531 L 258.394531 247.460938 L 259.824219 249.128906 L 260.777344 251.75 L 260.777344 256.515625 L 259.824219 259.136719 L 258.394531 260.804688 L 256.722656 261.761719 L 255.769531 262 L 253.863281 262 L 251.480469 260.804688 L 249.8125 258.421875 L 249.097656 255.800781 L 249.097656 252.464844 L 250.050781 249.367188 L 251.480469 247.460938 Z M 253.863281 246.269531 " fill-opacity="1" fill-rule="nonzero"/><path fill="#fefefe" d="M 144.957031 246.269531 L 146.863281 246.269531 L 149.007812 247.222656 L 150.675781 249.128906 L 151.628906 251.511719 L 151.628906 256.753906 L 150.675781 259.136719 L 149.007812 261.042969 L 146.863281 262 L 144.957031 262 L 143.050781 261.28125 L 141.382812 259.613281 L 140.191406 256.753906 L 139.953125 255.324219 L 139.953125 252.941406 L 140.667969 250.082031 L 142.097656 247.699219 L 144.003906 246.507812 Z M 144.957031 246.269531 " fill-opacity="1" fill-rule="nonzero"/><path fill="#fefefe" d="M 282.9375 246.269531 L 285.082031 246.269531 L 286.988281 247.222656 L 288.179688 248.414062 L 289.375 250.320312 L 289.375 250.796875 L 278.648438 250.796875 L 278.886719 249.605469 L 280.316406 247.699219 L 282.222656 246.507812 Z M 282.9375 246.269531 " fill-opacity="1" fill-rule="nonzero"/><path fill="#fefefe" d="M 196.433594 246.269531 L 198.578125 246.269531 L 200.960938 247.460938 L 202.390625 249.128906 L 202.867188 250.082031 L 202.867188 250.796875 L 192.140625 250.796875 L 192.855469 248.890625 L 194.761719 246.984375 Z M 196.433594 246.269531 " fill-opacity="1" fill-rule="nonzero"/></svg>