<svg xmlns="http://www.w3.org/2000/svg" xmlns:xlink="http://www.w3.org/1999/xlink" width="500" zoomAndPan="magnify" viewBox="0 0 375 374.999991" height="500" preserveAspectRatio="xMidYMid meet" version="1.0"><path fill="#ffffff" d="M 169.394531 288.332031 L 169.394531 252.355469 C 157.171875 249.453125 146.289062 244.105469 136.738281 236.3125 C 127.191406 228.519531 120.050781 219.046875 115.3125 207.894531 C 93.542969 208.582031 75.035156 201.371094 59.796875 186.265625 C 44.558594 171.160156 36.9375 152.550781 36.9375 130.4375 L 36.9375 115.769531 C 36.9375 105.578125 40.5 96.917969 47.628906 89.792969 C 54.753906 82.667969 63.410156 79.105469 73.605469 79.105469 L 106.144531 79.105469 L 106.144531 72.6875 C 106.144531 66.691406 108.457031 61.410156 113.078125 56.847656 C 117.703125 52.28125 123.070312 50 129.175781 50 L 246.050781 50 C 252.007812 50 257.335938 52.28125 262.035156 56.847656 C 266.734375 61.410156 269.082031 66.691406 269.082031 72.6875 L 269.082031 79.105469 L 301.625 79.105469 C 311.59375 79.105469 320.160156 82.667969 327.320312 89.792969 C 334.480469 96.917969 338.0625 105.578125 338.0625 115.769531 L 338.0625 130.4375 C 338.0625 152.550781 330.441406 171.160156 315.203125 186.265625 C 299.964844 201.371094 281.457031 208.582031 259.6875 207.894531 C 254.949219 219.046875 247.808594 228.519531 238.261719 236.3125 C 228.710938 244.105469 217.902344 249.453125 205.832031 252.355469 L 205.832031 288.332031 L 236.769531 288.332031 C 242.074219 288.332031 246.453125 290.125 249.914062 293.710938 C 253.375 297.296875 255.105469 301.578125 255.105469 306.550781 C 255.105469 311.84375 253.375 316.203125 249.914062 319.628906 C 246.453125 323.054688 242.03125 324.769531 236.644531 324.769531 L 138.355469 324.769531 C 133.035156 324.769531 128.667969 323.042969 125.25 319.589844 C 121.832031 316.136719 120.125 311.820312 120.125 306.640625 C 120.125 301.464844 121.832031 297.117188 125.25 293.605469 C 128.667969 290.089844 132.992188 288.332031 138.230469 288.332031 Z M 106.144531 171.230469 L 106.144531 115.769531 L 73.605469 115.769531 L 73.605469 130.4375 C 73.605469 140.292969 76.660156 148.941406 82.769531 156.390625 C 88.882812 163.839844 96.671875 168.785156 106.144531 171.230469 Z M 187.554688 218.4375 C 199.703125 218.4375 210.21875 213.960938 219.097656 205.011719 C 227.976562 196.0625 232.417969 185.488281 232.417969 173.292969 L 232.417969 86.667969 L 142.582031 86.667969 L 142.582031 173.292969 C 142.582031 185.488281 147.039062 196.0625 155.957031 205.011719 C 164.875 213.960938 175.40625 218.4375 187.554688 218.4375 Z M 269.082031 171.230469 C 278.402344 168.785156 286.15625 163.839844 292.34375 156.390625 C 298.53125 148.941406 301.625 140.292969 301.625 130.4375 L 301.625 115.769531 L 269.082031 115.769531 Z M 187.5 152.4375 Z M 187.5 152.4375 " fill-opacity="1" fill-rule="nonzero"/></svg>