<svg xmlns="http://www.w3.org/2000/svg" xmlns:xlink="http://www.w3.org/1999/xlink" width="500" zoomAndPan="magnify" viewBox="0 0 375 374.999991" height="500" preserveAspectRatio="xMidYMid meet" version="1.0"><path fill="#ffffff" d="M 94.117188 278.65625 L 94.117188 96.367188 L 94.117188 131.855469 L 94.117188 129.640625 Z M 132.394531 203.535156 L 175.6875 203.535156 C 180.152344 203.535156 183.964844 201.953125 187.121094 198.785156 C 190.28125 195.617188 191.859375 191.792969 191.859375 187.3125 C 191.859375 182.832031 190.28125 179.023438 187.121094 175.890625 C 183.964844 172.761719 180.152344 171.195312 175.6875 171.195312 L 132.394531 171.195312 C 127.925781 171.195312 124.117188 172.765625 120.957031 175.910156 C 117.800781 179.050781 116.21875 182.84375 116.21875 187.289062 C 116.21875 191.730469 117.800781 195.546875 120.957031 198.742188 C 124.117188 201.9375 127.925781 203.535156 132.394531 203.535156 Z M 132.394531 256.070312 L 175.667969 256.070312 C 180.144531 256.070312 183.964844 254.5 187.121094 251.355469 C 190.28125 248.214844 191.859375 244.421875 191.859375 239.976562 C 191.859375 235.535156 190.28125 231.714844 187.121094 228.519531 C 183.964844 225.324219 180.144531 223.730469 175.667969 223.730469 L 132.394531 223.730469 C 127.925781 223.730469 124.117188 225.3125 120.957031 228.480469 C 117.800781 231.648438 116.21875 235.472656 116.21875 239.953125 C 116.21875 244.433594 117.800781 248.238281 120.957031 251.371094 C 124.117188 254.503906 127.925781 256.070312 132.394531 256.070312 Z M 132.394531 150.816406 L 238.128906 150.816406 C 242.59375 150.816406 246.40625 149.230469 249.5625 146.0625 C 252.722656 142.894531 254.300781 139.070312 254.300781 134.589844 C 254.300781 130.109375 252.722656 126.304688 249.5625 123.171875 C 246.40625 120.035156 242.59375 118.46875 238.128906 118.46875 L 132.394531 118.46875 C 127.925781 118.46875 124.117188 120.042969 120.957031 123.1875 C 117.800781 126.328125 116.21875 130.121094 116.21875 134.5625 C 116.21875 139.007812 117.800781 142.824219 120.957031 146.023438 C 124.117188 149.21875 127.925781 150.816406 132.394531 150.816406 Z M 94.117188 319.671875 C 82.648438 319.671875 72.945312 315.703125 65.007812 307.765625 C 57.070312 299.828125 53.101562 290.125 53.101562 278.65625 L 53.101562 96.367188 C 53.101562 84.898438 57.070312 75.195312 65.007812 67.257812 C 72.945312 59.320312 82.648438 55.351562 94.117188 55.351562 L 276.40625 55.351562 C 287.875 55.351562 297.578125 59.320312 305.515625 67.257812 C 313.453125 75.195312 317.421875 84.898438 317.421875 96.367188 L 317.421875 127.378906 C 317.421875 132.972656 315.402344 137.734375 311.367188 141.660156 C 307.328125 145.589844 302.511719 147.554688 296.914062 147.554688 C 291.316406 147.554688 286.5 145.578125 282.460938 141.628906 C 278.421875 137.675781 276.40625 132.816406 276.40625 127.042969 L 276.40625 96.367188 L 94.117188 96.367188 L 94.117188 278.65625 L 137.367188 278.65625 C 143.140625 278.65625 148 280.671875 151.953125 284.710938 C 155.902344 288.75 157.875 293.566406 157.875 299.164062 C 157.875 304.761719 155.902344 309.578125 151.953125 313.617188 C 148 317.652344 143.140625 319.671875 137.367188 319.671875 Z M 230.332031 226.214844 C 222.378906 218.261719 218.402344 208.601562 218.402344 197.234375 C 218.402344 185.867188 222.378906 176.207031 230.332031 168.253906 C 238.285156 160.304688 247.976562 156.328125 259.40625 156.328125 C 270.835938 156.328125 280.492188 160.304688 288.382812 168.253906 C 296.273438 176.207031 300.21875 185.867188 300.21875 197.234375 C 300.21875 208.601562 296.273438 218.261719 288.382812 226.214844 C 280.492188 234.167969 270.835938 238.144531 259.40625 238.144531 C 247.976562 238.144531 238.285156 234.167969 230.332031 226.214844 Z M 259.449219 251.488281 C 268.664062 251.488281 277.78125 252.347656 286.804688 254.0625 C 295.824219 255.78125 304.625 258.480469 313.199219 262.164062 C 319.4375 265.011719 324.449219 269.234375 328.234375 274.835938 C 332.019531 280.4375 333.914062 286.742188 333.914062 293.761719 L 333.914062 299.164062 C 333.914062 304.761719 331.894531 309.578125 327.855469 313.617188 C 323.820312 317.652344 319 319.671875 313.402344 319.671875 L 205.074219 319.671875 C 199.476562 319.671875 194.660156 317.652344 190.621094 313.617188 C 186.582031 309.578125 184.5625 304.761719 184.5625 299.164062 L 184.5625 293.679688 C 184.5625 286.773438 186.382812 280.5 190.019531 274.859375 C 193.652344 269.21875 198.691406 264.972656 205.128906 262.117188 C 213.679688 258.464844 222.511719 255.78125 231.625 254.0625 C 240.738281 252.347656 250.011719 251.488281 259.449219 251.488281 Z M 259.449219 251.488281 " fill-opacity="1" fill-rule="nonzero"/></svg>