<svg xmlns="http://www.w3.org/2000/svg" xmlns:xlink="http://www.w3.org/1999/xlink" width="500" zoomAndPan="magnify" viewBox="0 0 375 374.999991" height="500" preserveAspectRatio="xMidYMid meet" version="1.0"><defs><clipPath id="f63a9d7c15"><path d="M 45 46 L 316 46 L 316 340 L 45 340 Z M 45 46 " clip-rule="nonzero"/></clipPath><clipPath id="25ad2038b4"><path d="M 59.214844 -9.464844 L 393.769531 49.722656 L 334.582031 384.277344 L 0.0273438 325.089844 Z M 59.214844 -9.464844 " clip-rule="nonzero"/></clipPath><clipPath id="6ee0ebedc3"><path d="M 59.214844 -9.464844 L 393.769531 49.722656 L 334.582031 384.277344 L 0.0273438 325.089844 Z M 59.214844 -9.464844 " clip-rule="nonzero"/></clipPath><clipPath id="e02ddfcdb9"><path d="M 59.214844 -9.464844 L 393.769531 49.722656 L 334.582031 384.277344 L 0.0273438 325.089844 Z M 59.214844 -9.464844 " clip-rule="nonzero"/></clipPath></defs><g clip-path="url(#f63a9d7c15)"><g clip-path="url(#25ad2038b4)"><g clip-path="url(#6ee0ebedc3)"><g clip-path="url(#e02ddfcdb9)"><path fill="#ffffff" d="M 77.324219 304.621094 C 61.296875 301.785156 51.097656 292.554688 46.734375 276.925781 C 42.371094 261.300781 46.332031 248.222656 58.617188 237.699219 L 148.402344 160.855469 L 160.917969 90.113281 L 157.433594 89.496094 C 151.625 88.46875 146.996094 85.523438 143.542969 80.660156 C 140.089844 75.796875 138.878906 70.460938 139.90625 64.652344 C 140.933594 58.84375 143.902344 54.246094 148.816406 50.863281 C 153.726562 47.476562 159.085938 46.300781 164.894531 47.328125 L 275.367188 66.871094 C 281.175781 67.898438 285.804688 70.84375 289.257812 75.707031 C 292.710938 80.574219 293.921875 85.910156 292.894531 91.714844 C 291.867188 97.523438 288.898438 102.121094 283.988281 105.503906 C 279.074219 108.890625 273.714844 110.066406 267.90625 109.039062 L 264.421875 108.421875 L 251.90625 179.167969 L 309.53125 282.089844 C 317.597656 296.09375 316.921875 309.722656 307.511719 322.972656 C 298.097656 336.222656 285.378906 341.429688 269.347656 338.59375 Z M 123.023438 255.5625 L 243.253906 276.832031 L 212.199219 222.816406 L 170.726562 215.480469 Z M 123.023438 255.5625 " fill-opacity="1" fill-rule="nonzero"/></g></g></g></g></svg>