<svg xmlns="http://www.w3.org/2000/svg" xmlns:xlink="http://www.w3.org/1999/xlink" width="500" zoomAndPan="magnify" viewBox="0 0 375 374.999991" height="500" preserveAspectRatio="xMidYMid meet" version="1.0"><defs><clipPath id="31622bdce5"><path d="M 44 46 L 316 46 L 316 340 L 44 340 Z M 44 46 " clip-rule="nonzero"/></clipPath><clipPath id="95b45e134b"><path d="M 58.679688 -9.34375 L 393.335938 49.277344 L 334.714844 383.929688 L 0.0625 325.3125 Z M 58.679688 -9.34375 " clip-rule="nonzero"/></clipPath><clipPath id="f163c2b51e"><path d="M 58.679688 -9.34375 L 393.335938 49.277344 L 334.714844 383.929688 L 0.0625 325.3125 Z M 58.679688 -9.34375 " clip-rule="nonzero"/></clipPath><clipPath id="24fb784c52"><path d="M 58.679688 -9.34375 L 393.335938 49.277344 L 334.714844 383.929688 L 0.0625 325.3125 Z M 58.679688 -9.34375 " clip-rule="nonzero"/></clipPath></defs><g clip-path="url(#31622bdce5)"><g clip-path="url(#95b45e134b)"><g clip-path="url(#f163c2b51e)"><g clip-path="url(#24fb784c52)"><path fill="#ffffff" d="M 77.324219 304.710938 C 61.285156 301.902344 51.070312 292.6875 46.683594 277.070312 C 42.296875 261.449219 46.234375 248.367188 58.5 237.820312 L 148.160156 160.828125 L 160.554688 90.0625 L 157.070312 89.449219 C 151.222656 88.425781 146.578125 85.484375 143.136719 80.617188 C 139.699219 75.753906 138.484375 70.421875 139.5 64.621094 C 140.515625 58.820312 143.46875 54.222656 148.355469 50.828125 C 153.246094 47.433594 158.613281 46.246094 164.457031 47.269531 L 274.964844 66.628906 C 280.808594 67.652344 285.453125 70.59375 288.894531 75.460938 C 292.335938 80.324219 293.546875 85.65625 292.53125 91.457031 C 291.515625 97.257812 288.5625 101.855469 283.675781 105.25 C 278.785156 108.644531 273.417969 109.832031 267.574219 108.808594 L 264.089844 108.195312 L 251.691406 178.960938 L 309.492188 281.785156 C 317.582031 295.777344 316.929688 309.40625 307.539062 322.671875 C 298.152344 335.9375 285.4375 341.167969 269.402344 338.359375 Z M 122.9375 255.574219 L 243.207031 276.640625 L 212.058594 222.679688 L 170.574219 215.414062 Z M 93.777344 264.121094 L 267.726562 294.589844 L 206.875 186.621094 L 221.90625 100.808594 L 202.734375 97.449219 L 187.714844 183.207031 Z M 196.566406 189.066406 Z M 196.566406 189.066406 " fill-opacity="1" fill-rule="nonzero"/></g></g></g></g></svg>