<svg xmlns="http://www.w3.org/2000/svg" height="20px" viewBox="0 -960 960 960" width="20px" fill="#FFFFFF"><path d="M322-104.25q-74-32.25-130.25-88.5t-88-130.63Q72-397.75 72-482q0-84.64 31.92-157.98 31.93-73.34 87.76-128.91 55.84-55.57 130.03-87.34Q395.91-888 480.45-888q84.55 0 158.27 31.77 73.72 31.77 129.56 87.34 55.85 55.57 87.79 128.91Q888-566.64 888-482q0 84.25-31.75 158.62-31.75 74.38-88 130.63t-129.83 88.5Q564.83-72 480.42-72 396-72 322-104.25ZM480-185q47 0 89.5-13t76.5-40L236-647q-25 36-38 77.5T185-482q0 122.5 86.75 209.75T480-185Zm245-132q24-36 37-77.5t13-87.5q0-121.64-86.75-207.32Q601.5-775 480-775q-46 0-87 12t-77 36l409 410ZM480-482Z"/></svg>