<svg xmlns="http://www.w3.org/2000/svg" xmlns:xlink="http://www.w3.org/1999/xlink" width="500" zoomAndPan="magnify" viewBox="0 0 375 374.999991" height="500" preserveAspectRatio="xMidYMid meet" version="1.0"><path fill="#ffffff" d="M 169.28125 313.386719 L 169.28125 281.269531 L 117.898438 281.269531 C 113.0625 281.269531 108.4375 280.355469 104.011719 278.527344 C 99.589844 276.699219 95.664062 274.070312 92.238281 270.644531 L 70.070312 248.476562 C 66.414062 244.824219 64.585938 240.511719 64.585938 235.550781 C 64.585938 230.585938 66.414062 226.277344 70.070312 222.621094 L 92.238281 200.460938 C 95.664062 197.03125 99.589844 194.402344 104.011719 192.574219 C 108.4375 190.746094 113.0625 189.832031 117.898438 189.832031 L 169.28125 189.832031 L 169.28125 162.332031 L 89.113281 162.332031 C 84.050781 162.332031 79.75 160.558594 76.207031 157.019531 C 72.664062 153.476562 70.894531 149.175781 70.894531 144.113281 L 70.894531 89.113281 C 70.894531 84.050781 72.664062 79.75 76.207031 76.207031 C 79.75 72.664062 84.050781 70.894531 89.113281 70.894531 L 169.28125 70.894531 L 169.28125 61.613281 C 169.28125 56.550781 171.050781 52.25 174.59375 48.707031 C 178.136719 45.164062 182.4375 43.394531 187.5 43.394531 C 192.5625 43.394531 196.863281 45.164062 200.40625 48.707031 C 203.949219 52.25 205.71875 56.550781 205.71875 61.613281 L 205.71875 70.894531 L 257.101562 70.894531 C 261.9375 70.894531 266.5625 71.808594 270.988281 73.636719 C 275.410156 75.464844 279.335938 78.09375 282.761719 81.523438 L 304.929688 103.683594 C 308.585938 107.339844 310.414062 111.652344 310.414062 116.613281 C 310.414062 121.574219 308.585938 125.882812 304.929688 129.539062 L 282.761719 151.707031 C 279.335938 155.132812 275.410156 157.761719 270.988281 159.585938 C 266.5625 161.417969 261.9375 162.332031 257.101562 162.332031 L 205.71875 162.332031 L 205.71875 189.832031 L 285.886719 189.832031 C 290.949219 189.832031 295.25 191.601562 298.792969 195.144531 C 302.335938 198.6875 304.105469 202.988281 304.105469 208.050781 L 304.105469 263.050781 C 304.105469 268.113281 302.335938 272.414062 298.792969 275.957031 C 295.25 279.496094 290.949219 281.269531 285.886719 281.269531 L 205.71875 281.269531 L 205.71875 313.386719 C 205.71875 318.449219 203.949219 322.75 200.40625 326.292969 C 196.863281 329.835938 192.5625 331.605469 187.5 331.605469 C 182.4375 331.605469 178.136719 329.835938 174.59375 326.292969 C 171.050781 322.75 169.28125 318.449219 169.28125 313.386719 Z M 104.414062 128.808594 L 258.460938 128.808594 L 270.65625 116.613281 L 258.460938 104.222656 L 104.414062 104.222656 Z M 116.539062 247.941406 L 270.585938 247.941406 L 270.585938 223.355469 L 116.539062 223.355469 L 104.34375 235.550781 Z M 104.414062 128.808594 L 104.414062 104.222656 Z M 270.585938 247.941406 L 270.585938 223.355469 Z M 270.585938 247.941406 " fill-opacity="1" fill-rule="nonzero"/></svg>