<svg xmlns="http://www.w3.org/2000/svg" height="24px" viewBox="0 -960 960 960" width="24px" fill="#FFFFFF"><path d="M480-100.78q-71.22 0-132.09-36.24-60.87-36.24-95.13-98.46H185.3q-18.69 0-31.61-12.91-12.91-12.91-12.91-31.61t12.91-31.61q12.92-12.91 31.61-12.91h38.92q-2.44-17.74-2.94-35.2-.5-17.45-.5-35.76H185.3q-18.69 0-31.61-12.91-12.91-12.91-12.91-31.61t12.91-31.61q12.92-12.91 31.61-12.91h35.48q0-18.31.5-35.76.5-17.46 2.94-35.2H185.3q-18.69 0-31.61-12.91-12.91-12.91-12.91-31.61t12.91-31.61q12.92-12.91 31.61-12.91h70.31q11.74-25.26 30.08-46.11 18.35-20.85 41.92-36.98l-34.18-34.61q-12.69-12.69-12.41-31.17.28-18.48 13.41-31.61 12.7-12.7 31.4-12.7 18.69 0 31.39 12.7l54.61 54.61q31.39-12.39 64.63-12.96 33.24-.56 64.63 11.26l57.74-56.74q12.69-12.69 31.17-12.69 18.48 0 31.61 13.13Q674.3-815.7 674.3-797q0 18.7-12.69 31.39l-33.48 33.48q26.39 17.26 46.31 40.43 19.91 23.18 33.34 51.7h69.18q17.56 0 29.91 12.35 12.35 12.35 12.35 29.91 0 17.57-12.35 29.91-12.35 12.35-29.91 12.35h-41.18q2.44 17.74 2.94 35.2.5 17.45.5 35.76h35.48q18.69 0 31.61 12.91 12.91 12.91 12.91 31.61t-12.91 31.61q-12.92 12.91-31.61 12.91h-35.48q0 18.31-.78 35.76-.79 17.46-3.22 35.2h39.48q18.69 0 31.61 12.91 12.91 12.91 12.91 31.61t-12.91 31.61q-12.92 12.91-31.61 12.91h-67.48q-34.26 62.22-95.13 98.46-60.87 36.24-132.09 36.24Zm-35.48-214.7h70.96q18.69 0 31.61-12.91Q560-341.3 560-360t-12.91-31.61q-12.92-12.91-31.61-12.91h-70.96q-18.69 0-31.61 12.91Q400-378.7 400-360t12.91 31.61q12.92 12.91 31.61 12.91Zm0-160h70.96q18.69 0 31.61-12.91Q560-501.3 560-520t-12.91-31.61q-12.92-12.91-31.61-12.91h-70.96q-18.69 0-31.61 12.91Q400-538.7 400-520t12.91 31.61q12.92 12.91 31.61 12.91Z"/></svg>