<svg xmlns="http://www.w3.org/2000/svg" xmlns:xlink="http://www.w3.org/1999/xlink" width="500" zoomAndPan="magnify" viewBox="0 0 375 374.999991" height="500" preserveAspectRatio="xMidYMid meet" version="1.0"><defs><clipPath id="0d522215dc"><path d="M 89.007812 45 L 286 45 L 286 330 L 89.007812 330 Z M 89.007812 45 " clip-rule="nonzero"/></clipPath></defs><path fill="#ffffff" d="M 265.289062 111.296875 L 265.09375 111.183594 L 264.644531 111.042969 C 264.824219 111.195312 265.050781 111.285156 265.289062 111.296875 Z M 265.289062 111.296875 " fill-opacity="1" fill-rule="nonzero"/><path fill="#ffffff" d="M 268.140625 131.65625 L 267.921875 131.71875 Z M 268.140625 131.65625 " fill-opacity="1" fill-rule="nonzero"/><path fill="#ffffff" d="M 265.375 111.265625 C 265.347656 111.261719 265.320312 111.253906 265.292969 111.246094 C 265.292969 111.265625 265.292969 111.28125 265.292969 111.300781 C 265.324219 111.296875 265.351562 111.285156 265.375 111.265625 Z M 265.375 111.265625 " fill-opacity="1" fill-rule="nonzero"/><path fill="#ffffff" d="M 265.292969 111.300781 L 265.320312 111.300781 L 265.320312 111.28125 Z M 265.292969 111.300781 " fill-opacity="1" fill-rule="nonzero"/><path fill="#ffffff" d="M 267.964844 131.621094 L 268.292969 131.433594 L 268.417969 131.363281 L 268.527344 131.246094 C 268.320312 131.335938 268.128906 131.460938 267.964844 131.621094 Z M 267.964844 131.621094 " fill-opacity="1" fill-rule="nonzero"/><path fill="#ffffff" d="M 265.859375 111.742188 L 265.539062 111.433594 L 265.320312 111.316406 C 265.4375 111.523438 265.632812 111.675781 265.859375 111.742188 Z M 265.859375 111.742188 " fill-opacity="1" fill-rule="nonzero"/><path fill="#ffffff" d="M 184.828125 309.316406 C 184.570312 309.425781 184.347656 309.601562 184.171875 309.820312 L 184.375 309.691406 C 184.515625 309.566406 184.710938 309.417969 184.828125 309.316406 Z M 184.828125 309.316406 " fill-opacity="1" fill-rule="nonzero"/><path fill="#ffffff" d="M 231.882812 300.058594 C 231.882812 299.769531 231.742188 299.820312 231.777344 300.855469 C 231.777344 300.773438 231.8125 300.6875 231.828125 300.609375 C 231.84375 300.421875 231.859375 300.242188 231.882812 300.058594 Z M 231.882812 300.058594 " fill-opacity="1" fill-rule="nonzero"/><path fill="#ffffff" d="M 227.003906 309.316406 C 226.746094 309.425781 226.519531 309.601562 226.347656 309.820312 L 226.550781 309.691406 C 226.6875 309.566406 226.882812 309.417969 227.003906 309.316406 Z M 227.003906 309.316406 " fill-opacity="1" fill-rule="nonzero"/><path fill="#ffffff" d="M 151.691406 311.515625 C 151.496094 311.347656 151.257812 311.238281 151 311.195312 C 151.207031 311.292969 151.414062 311.394531 151.554688 311.46875 Z M 151.691406 311.515625 " fill-opacity="1" fill-rule="nonzero"/><path fill="#ffffff" d="M 144.234375 304.375 C 144.203125 304.074219 144.113281 303.78125 143.960938 303.519531 C 144.070312 303.792969 144.15625 304.074219 144.226562 304.359375 Z M 144.234375 304.375 " fill-opacity="1" fill-rule="nonzero"/><path fill="#ffffff" d="M 194.324219 176.65625 C 184.085938 181.039062 172.46875 186.007812 157.410156 186.007812 C 151.113281 185.996094 144.84375 185.132812 138.777344 183.4375 L 149.191406 290.351562 C 149.558594 294.820312 151.597656 298.988281 154.894531 302.023438 C 158.191406 305.0625 162.511719 306.746094 166.996094 306.746094 C 166.996094 306.746094 181.761719 307.511719 186.6875 307.511719 C 191.992188 307.511719 207.890625 306.746094 207.890625 306.746094 C 212.375 306.746094 216.695312 305.058594 219.992188 302.023438 C 223.289062 298.984375 225.324219 294.820312 225.695312 290.351562 L 236.847656 172.207031 C 231.863281 170.507812 226.832031 169.375 221.160156 169.375 C 211.355469 169.371094 203.453125 172.75 194.324219 176.65625 Z M 194.324219 176.65625 " fill-opacity="1" fill-rule="nonzero"/><path fill="#ffffff" d="M 106.542969 131.042969 L 106.71875 131.207031 L 106.835938 131.277344 C 106.746094 131.1875 106.648438 131.109375 106.542969 131.042969 Z M 106.542969 131.042969 " fill-opacity="1" fill-rule="nonzero"/><g clip-path="url(#0d522215dc)"><path fill="#ffffff" d="M 285 121.175781 L 283.433594 113.265625 C 282.027344 106.167969 278.832031 99.460938 271.546875 96.898438 C 269.214844 96.078125 266.5625 95.722656 264.773438 94.027344 C 262.984375 92.328125 262.453125 89.6875 262.039062 87.242188 C 261.273438 82.753906 260.550781 78.261719 259.765625 73.777344 C 259.085938 69.925781 258.550781 65.597656 256.78125 62.0625 C 254.480469 57.3125 249.707031 54.539062 244.960938 52.703125 C 242.53125 51.792969 240.046875 51.027344 237.527344 50.402344 C 225.667969 47.273438 213.199219 46.121094 201 45.46875 C 186.355469 44.660156 171.675781 44.902344 157.066406 46.195312 C 146.191406 47.183594 134.738281 48.378906 124.40625 52.140625 C 120.628906 53.519531 116.738281 55.171875 113.867188 58.089844 C 110.34375 61.671875 109.195312 67.21875 111.765625 71.6875 C 113.59375 74.863281 116.691406 77.105469 119.980469 78.589844 C 124.257812 80.5 128.726562 81.957031 133.3125 82.929688 C 146.082031 85.75 159.304688 86.859375 172.347656 87.332031 C 186.804688 87.914062 201.285156 87.441406 215.671875 85.917969 C 219.230469 85.527344 222.785156 85.054688 226.328125 84.507812 C 230.503906 83.867188 233.183594 78.410156 231.953125 74.605469 C 230.480469 70.058594 226.523438 68.296875 222.050781 68.980469 C 221.390625 69.085938 220.734375 69.179688 220.074219 69.277344 L 219.601562 69.34375 C 218.085938 69.539062 216.566406 69.714844 215.050781 69.882812 C 211.921875 70.21875 208.78125 70.496094 205.636719 70.710938 C 198.589844 71.203125 191.523438 71.425781 184.460938 71.4375 C 177.519531 71.4375 170.578125 71.242188 163.652344 70.789062 C 160.492188 70.582031 157.34375 70.316406 154.199219 69.996094 C 152.769531 69.847656 151.339844 69.691406 149.914062 69.515625 L 148.558594 69.339844 L 148.261719 69.300781 L 146.855469 69.097656 C 143.980469 68.664062 141.105469 68.164062 138.257812 67.5625 C 137.972656 67.5 137.714844 67.339844 137.53125 67.109375 C 137.347656 66.878906 137.246094 66.59375 137.246094 66.300781 C 137.246094 66.007812 137.347656 65.722656 137.53125 65.492188 C 137.714844 65.261719 137.972656 65.105469 138.257812 65.039062 L 138.3125 65.039062 C 140.777344 64.515625 143.261719 64.066406 145.753906 63.675781 C 146.585938 63.542969 147.417969 63.417969 148.253906 63.292969 L 148.277344 63.292969 C 149.839844 63.1875 151.40625 62.90625 152.960938 62.722656 C 166.46875 61.320312 180.058594 60.839844 193.636719 61.289062 C 200.226562 61.480469 206.8125 61.871094 213.375 62.535156 C 214.785156 62.683594 216.1875 62.835938 217.589844 63.007812 C 218.128906 63.074219 218.667969 63.148438 219.207031 63.214844 L 220.296875 63.371094 C 223.472656 63.84375 226.628906 64.417969 229.773438 65.09375 C 234.425781 66.105469 240.402344 66.4375 242.472656 71.535156 C 243.132812 73.152344 243.433594 74.949219 243.796875 76.648438 L 244.261719 78.816406 C 244.273438 78.855469 244.28125 78.894531 244.289062 78.933594 C 245.382812 84.046875 246.480469 89.160156 247.582031 94.269531 C 247.660156 94.648438 247.664062 95.039062 247.585938 95.417969 C 247.507812 95.796875 247.355469 96.152344 247.132812 96.46875 C 246.914062 96.785156 246.628906 97.054688 246.296875 97.253906 C 245.96875 97.457031 245.601562 97.589844 245.21875 97.640625 L 245.1875 97.640625 L 244.515625 97.734375 L 243.855469 97.820312 C 241.753906 98.09375 239.648438 98.351562 237.542969 98.589844 C 233.394531 99.0625 229.238281 99.46875 225.078125 99.816406 C 216.808594 100.503906 208.523438 100.953125 200.222656 101.167969 C 195.992188 101.28125 191.761719 101.332031 187.535156 101.324219 C 170.707031 101.3125 153.894531 100.335938 137.179688 98.394531 C 135.367188 98.183594 133.558594 97.953125 131.75 97.71875 C 133.152344 97.898438 130.730469 97.578125 130.238281 97.511719 C 129.089844 97.351562 127.9375 97.183594 126.789062 97.007812 C 122.925781 96.429688 119.089844 95.714844 115.234375 95.089844 C 110.578125 94.324219 106.121094 94.707031 101.910156 97.007812 C 98.449219 98.902344 95.652344 101.804688 93.882812 105.328125 C 92.066406 109.085938 91.527344 113.175781 90.714844 117.214844 C 89.898438 121.25 88.636719 125.59375 89.113281 129.738281 C 90.144531 138.683594 96.398438 145.953125 105.394531 147.582031 C 113.855469 149.113281 122.363281 150.355469 130.894531 151.414062 C 164.40625 155.519531 198.261719 156.007812 231.875 152.878906 C 234.613281 152.625 237.347656 152.34375 240.078125 152.042969 C 240.929688 151.949219 241.792969 152.046875 242.601562 152.332031 C 243.414062 152.613281 244.148438 153.074219 244.757812 153.679688 C 245.367188 154.28125 245.832031 155.015625 246.121094 155.824219 C 246.410156 156.632812 246.515625 157.492188 246.425781 158.347656 L 245.574219 166.621094 C 243.859375 183.339844 242.144531 200.058594 240.429688 216.773438 C 238.640625 234.328125 236.839844 251.882812 235.027344 269.433594 C 234.515625 274.378906 234.003906 279.320312 233.496094 284.261719 C 233.003906 289.128906 232.933594 294.144531 232.011719 298.953125 C 230.554688 306.515625 225.433594 311.160156 217.964844 312.855469 C 211.125 314.414062 204.132812 315.230469 197.117188 315.292969 C 189.335938 315.335938 181.5625 314.992188 173.78125 315.035156 C 165.476562 315.082031 155.304688 314.3125 148.894531 308.132812 C 143.261719 302.703125 142.484375 294.203125 141.71875 286.851562 C 140.695312 277.121094 139.683594 267.394531 138.675781 257.664062 L 133.042969 203.570312 L 129.394531 168.566406 C 129.332031 167.988281 129.273438 167.417969 129.214844 166.835938 C 128.777344 162.660156 125.820312 158.574219 121.164062 158.785156 C 117.175781 158.960938 112.644531 162.347656 113.113281 166.835938 L 115.816406 192.785156 L 121.40625 246.460938 C 122.996094 261.707031 124.585938 276.957031 126.171875 292.210938 C 126.476562 295.128906 126.765625 298.0625 127.085938 300.980469 C 128.839844 316.949219 141.03125 325.550781 156.128906 327.972656 C 164.949219 329.394531 173.980469 329.683594 182.929688 329.828125 C 194.402344 330.015625 205.988281 330.457031 217.273438 328.375 C 233.992188 325.308594 246.539062 314.144531 248.328125 296.828125 C 248.839844 291.824219 249.351562 286.824219 249.863281 281.824219 C 251.5625 265.28125 253.257812 248.734375 254.953125 232.191406 L 260.5 178.128906 L 263.039062 153.355469 C 263.167969 152.125 263.683594 150.96875 264.519531 150.058594 C 265.355469 149.148438 266.457031 148.53125 267.671875 148.296875 C 272.453125 147.367188 277.023438 145.773438 280.425781 142.136719 C 285.835938 136.34375 286.914062 128.789062 285 121.175781 Z M 105.148438 126.519531 C 105.222656 126.484375 105.085938 127.109375 105.03125 127.402344 C 105.019531 126.960938 105.042969 126.570312 105.148438 126.519531 Z M 105.613281 130.109375 C 105.652344 130.082031 105.765625 130.234375 105.882812 130.417969 C 105.703125 130.25 105.589844 130.125 105.609375 130.109375 Z M 106.070312 130.710938 C 106.234375 130.988281 106.320312 131.167969 106.070312 130.710938 Z M 106.984375 131.453125 L 107.007812 131.453125 C 107.007812 131.480469 107.050781 131.507812 107.066406 131.535156 C 107.039062 131.503906 107.011719 131.476562 106.980469 131.453125 Z M 267.449219 130.34375 C 265.730469 131.976562 263.144531 132.734375 260.585938 133.113281 C 231.90625 137.371094 202.808594 139.523438 173.816406 138.574219 C 153.066406 137.863281 132.535156 135.558594 111.992188 132.65625 C 109.980469 132.375 107.796875 132.007812 106.414062 130.523438 C 103.804688 127.722656 105.085938 122.085938 105.765625 118.707031 C 106.386719 115.609375 107.574219 111.476562 111.261719 111.039062 C 117.011719 110.363281 123.691406 112.789062 129.378906 113.652344 C 136.230469 114.699219 143.105469 115.535156 150.007812 116.164062 C 179.460938 118.847656 209.410156 118.429688 238.730469 114.503906 C 244.078125 113.785156 249.402344 112.949219 254.707031 112 C 259.4375 111.152344 264.675781 109.5625 267.535156 114.457031 C 269.492188 117.792969 269.753906 122.257812 269.449219 126.023438 C 269.355469 127.667969 268.640625 129.210938 267.445312 130.34375 Z M 267.449219 130.34375 " fill-opacity="1" fill-rule="nonzero"/></g></svg>