<svg xmlns="http://www.w3.org/2000/svg" xmlns:xlink="http://www.w3.org/1999/xlink" width="500" zoomAndPan="magnify" viewBox="0 0 375 374.999991" height="500" preserveAspectRatio="xMidYMid meet" version="1.0"><path fill="#ffffff" d="M 187.613281 323.691406 C 168.832031 323.691406 151.152344 320.109375 134.582031 312.941406 C 118.007812 305.773438 103.574219 296.042969 91.277344 283.746094 C 78.976562 271.449219 69.246094 257.015625 62.082031 240.441406 C 54.914062 223.867188 51.332031 206.191406 51.332031 187.410156 C 51.332031 168.628906 54.914062 150.949219 62.082031 134.375 C 69.246094 117.804688 78.976562 103.371094 91.277344 91.070312 C 103.574219 78.777344 118.007812 69.042969 134.582031 61.875 C 151.152344 54.710938 168.832031 51.125 187.613281 51.125 C 207.53125 51.125 226.359375 55.183594 244.105469 63.300781 C 261.851562 71.414062 277.171875 83.003906 290.066406 98.066406 L 290.066406 83.128906 C 290.066406 78.648438 291.613281 74.894531 294.707031 71.871094 C 297.800781 68.84375 301.585938 67.332031 306.0625 67.332031 C 310.542969 67.332031 314.296875 68.84375 317.324219 71.871094 C 320.347656 74.894531 321.863281 78.648438 321.863281 83.128906 L 321.863281 139.613281 C 321.863281 144.90625 320.011719 149.402344 316.304688 153.101562 C 312.605469 156.808594 308.109375 158.660156 302.816406 158.660156 L 246.332031 158.660156 C 241.851562 158.660156 238.03125 157.078125 234.871094 153.914062 C 231.710938 150.753906 230.128906 146.933594 230.128906 142.453125 C 230.128906 137.976562 231.675781 134.191406 234.765625 131.09375 C 237.863281 128.003906 241.648438 126.457031 246.128906 126.457031 L 263.96875 126.457031 C 254.554688 114.664062 243.199219 105.511719 229.910156 98.996094 C 216.617188 92.480469 202.519531 89.21875 187.613281 89.21875 C 160.257812 89.21875 137.054688 98.746094 118.003906 117.796875 C 98.953125 136.851562 89.425781 160.054688 89.425781 187.410156 C 89.425781 214.761719 98.953125 237.964844 118.003906 257.019531 C 137.054688 276.070312 160.257812 285.597656 187.613281 285.597656 C 209.15625 285.597656 228.402344 279.34375 245.355469 266.839844 C 262.308594 254.335938 273.996094 238.113281 280.425781 218.175781 C 282.027344 213.394531 284.964844 209.738281 289.230469 207.214844 C 293.496094 204.6875 298.152344 203.800781 303.207031 204.550781 C 308.496094 205.300781 312.746094 207.613281 315.957031 211.488281 C 319.164062 215.359375 320.085938 219.636719 318.722656 224.316406 C 310.828125 253.367188 294.785156 277.195312 270.597656 295.792969 C 246.410156 314.390625 218.746094 323.691406 187.613281 323.691406 Z M 203.410156 181.660156 L 237.515625 215.566406 C 240.558594 218.605469 242.082031 222.367188 242.082031 226.847656 C 242.082031 231.324219 240.558594 235.085938 237.515625 238.128906 C 234.476562 241.171875 230.714844 242.691406 226.234375 242.691406 C 221.757812 242.691406 217.996094 241.171875 214.957031 238.128906 L 177.140625 200.3125 C 175.300781 198.472656 173.917969 196.414062 172.996094 194.144531 C 172.070312 191.871094 171.609375 189.441406 171.609375 186.84375 L 171.609375 131.332031 C 171.609375 126.851562 173.160156 123.097656 176.253906 120.074219 C 179.347656 117.046875 183.132812 115.535156 187.613281 115.535156 C 192.089844 115.535156 195.84375 117.046875 198.871094 120.074219 C 201.894531 123.097656 203.410156 126.851562 203.410156 131.332031 Z M 203.410156 181.660156 " fill-opacity="1" fill-rule="nonzero"/></svg>