<svg xmlns="http://www.w3.org/2000/svg" xmlns:xlink="http://www.w3.org/1999/xlink" width="500" zoomAndPan="magnify" viewBox="0 0 375 374.999991" height="500" preserveAspectRatio="xMidYMid meet" version="1.0"><path fill="#ffffff" d="M 172.8125 207.832031 L 160.570312 219.929688 C 157.78125 222.71875 154.410156 224.117188 150.46875 224.117188 C 146.523438 224.117188 143.113281 222.671875 140.246094 219.785156 C 137.457031 216.996094 136.027344 213.578125 135.96875 209.53125 C 135.902344 205.484375 137.265625 202.066406 140.058594 199.273438 L 175.089844 164.242188 C 178.644531 160.734375 182.789062 158.980469 187.523438 158.980469 C 192.261719 158.980469 196.382812 160.734375 199.890625 164.242188 L 234.921875 199.460938 C 237.714844 202.25 239.101562 205.613281 239.085938 209.550781 C 239.074219 213.488281 237.621094 216.902344 234.734375 219.785156 C 231.945312 222.574219 228.582031 223.996094 224.648438 224.042969 C 220.707031 224.089844 217.296875 222.71875 214.410156 219.929688 L 202.167969 207.832031 L 202.167969 264.378906 L 272.648438 264.378906 C 281.136719 264.378906 288.378906 261.378906 294.382812 255.375 C 300.382812 249.375 303.382812 242.132812 303.382812 233.648438 C 303.382812 225.160156 300.382812 217.917969 294.382812 211.917969 C 288.378906 205.914062 281.136719 202.914062 272.648438 202.914062 L 250.632812 202.914062 L 250.632812 173.742188 C 250.632812 156.273438 244.476562 141.382812 232.164062 129.070312 C 219.851562 116.757812 204.960938 110.601562 187.492188 110.601562 C 169.746094 110.601562 154.785156 117.09375 142.609375 130.074219 C 130.4375 143.054688 124.347656 158.542969 124.347656 176.539062 L 115.519531 176.539062 C 103.390625 176.539062 93.035156 180.824219 84.460938 189.398438 C 75.886719 197.972656 71.597656 208.324219 71.597656 220.457031 C 71.597656 232.585938 75.886719 242.9375 84.460938 251.515625 C 93.035156 260.09375 103.390625 264.378906 115.519531 264.378906 L 128.964844 264.378906 C 133.816406 264.378906 137.941406 266.078125 141.339844 269.472656 C 144.738281 272.871094 146.4375 277 146.4375 281.855469 C 146.4375 286.707031 144.738281 290.832031 141.339844 294.230469 C 137.941406 297.628906 133.816406 299.328125 128.964844 299.328125 L 115.519531 299.328125 C 93.773438 299.328125 75.1875 291.84375 59.773438 276.878906 C 44.359375 261.914062 36.652344 243.625 36.652344 222.007812 C 36.652344 203.621094 41.910156 187.132812 52.425781 172.546875 C 62.941406 157.957031 76.988281 148.671875 94.5625 144.6875 C 100.800781 123.96875 112.476562 107.285156 129.582031 94.632812 C 146.683594 81.980469 165.988281 75.652344 187.492188 75.652344 C 213.828125 75.652344 236.355469 84.671875 255.078125 102.710938 C 273.796875 120.746094 283.839844 142.871094 285.207031 169.085938 C 300.746094 172.210938 313.484375 179.867188 323.425781 192.058594 C 333.359375 204.246094 338.328125 218.292969 338.328125 234.207031 C 338.328125 252.296875 331.90625 267.671875 319.066406 280.335938 C 306.222656 292.996094 290.75 299.328125 272.648438 299.328125 L 207.761719 299.328125 C 198.148438 299.328125 189.921875 295.90625 183.078125 289.0625 C 176.234375 282.214844 172.8125 273.988281 172.8125 264.378906 Z M 187.492188 204.964844 Z M 187.492188 204.964844 " fill-opacity="1" fill-rule="nonzero"/></svg>