<svg xmlns="http://www.w3.org/2000/svg" xmlns:xlink="http://www.w3.org/1999/xlink" width="500" zoomAndPan="magnify" viewBox="0 0 375 374.999991" height="500" preserveAspectRatio="xMidYMid meet" version="1.0"><path fill="#ffffff" d="M 105.367188 250.734375 C 96.394531 250.734375 88.789062 247.621094 82.554688 241.394531 C 76.320312 235.171875 73.203125 227.601562 73.203125 218.683594 C 73.203125 209.769531 76.324219 202.195312 82.5625 195.960938 C 88.796875 189.726562 96.382812 186.609375 105.3125 186.609375 C 114.328125 186.609375 121.964844 189.722656 128.230469 195.949219 C 134.492188 202.171875 137.625 209.742188 137.625 218.660156 C 137.625 227.574219 134.492188 235.148438 128.226562 241.382812 C 121.957031 247.617188 114.339844 250.734375 105.367188 250.734375 Z M 269.6875 250.734375 C 260.671875 250.734375 253.035156 247.621094 246.769531 241.394531 C 240.507812 235.171875 237.375 227.601562 237.375 218.683594 C 237.375 209.769531 240.507812 202.195312 246.773438 195.960938 C 253.042969 189.726562 260.660156 186.609375 269.632812 186.609375 C 278.605469 186.609375 286.210938 189.722656 292.445312 195.949219 C 298.679688 202.171875 301.796875 209.742188 301.796875 218.660156 C 301.796875 227.574219 298.675781 235.148438 292.4375 241.382812 C 286.203125 247.617188 278.617188 250.734375 269.6875 250.734375 Z M 187.710938 238.265625 C 177.082031 238.265625 168.003906 234.589844 160.484375 227.242188 C 152.964844 219.890625 149.203125 210.9375 149.203125 200.375 C 149.203125 189.613281 152.933594 180.523438 160.390625 173.101562 C 167.847656 165.679688 176.863281 161.96875 187.4375 161.96875 C 198.167969 161.96875 207.242188 165.667969 214.664062 173.070312 C 222.085938 180.46875 225.796875 189.515625 225.796875 200.203125 C 225.796875 210.859375 222.105469 219.871094 214.726562 227.226562 C 207.347656 234.585938 198.339844 238.265625 187.710938 238.265625 Z M 119.8125 324.65625 C 121.394531 316.738281 124.167969 309.316406 128.125 302.390625 C 132.082031 295.464844 137.082031 289.425781 143.117188 284.28125 C 149.152344 279.136719 155.933594 275.175781 163.453125 272.40625 C 170.972656 269.636719 178.988281 268.25 187.5 268.25 C 196.011719 268.25 204.074219 269.636719 211.695312 272.40625 C 219.316406 275.175781 226.09375 279.136719 232.03125 284.28125 C 237.96875 289.425781 242.917969 295.464844 246.875 302.390625 C 250.832031 309.316406 253.605469 316.738281 255.1875 324.65625 Z M 78.546875 324.65625 C 71.816406 324.65625 66.226562 322.515625 61.773438 318.230469 C 57.320312 313.945312 55.09375 308.917969 55.09375 303.15625 C 55.09375 295.125 59.941406 287.300781 69.640625 279.679688 C 79.339844 272.058594 91.214844 268.25 105.265625 268.25 C 109.609375 268.25 113.707031 268.746094 117.566406 269.734375 C 121.425781 270.722656 125.144531 272.011719 128.71875 273.59375 C 121.59375 280.125 115.652344 287.753906 110.890625 296.484375 C 106.128906 305.207031 103.066406 314.601562 101.703125 324.65625 Z M 273.59375 324.65625 C 272.03125 314.601562 268.921875 305.207031 264.257812 296.484375 C 259.597656 287.753906 253.605469 280.125 246.28125 273.59375 C 249.855469 272.011719 253.632812 270.722656 257.617188 269.734375 C 261.601562 268.746094 265.640625 268.25 269.734375 268.25 C 283.589844 268.25 295.5625 272.171875 305.65625 280.019531 C 315.75 287.867188 320.796875 295.617188 320.796875 303.273438 C 320.796875 309.019531 318.429688 314.019531 313.691406 318.273438 C 308.953125 322.527344 303.105469 324.65625 296.15625 324.65625 Z M 52.273438 171.320312 C 49.007812 167.066406 47.722656 162.214844 48.414062 156.773438 C 49.105469 151.332031 51.628906 146.925781 55.984375 143.5625 L 162.859375 60.4375 C 169.972656 54.894531 178.136719 52.125 187.351562 52.125 C 196.566406 52.125 204.828125 54.894531 212.140625 60.4375 L 232.328125 76.171875 L 232.328125 77.0625 C 232.328125 70.910156 234.65625 65.761719 239.3125 61.613281 C 243.96875 57.464844 250.371094 55.390625 258.523438 55.390625 C 265.882812 55.390625 272.015625 57.910156 276.921875 62.949219 C 281.828125 67.988281 284.28125 74.175781 284.28125 81.515625 L 284.28125 115.953125 L 319.3125 143.265625 C 323.667969 146.628906 326.191406 151.035156 326.882812 156.476562 C 327.574219 161.917969 326.140625 166.816406 322.578125 171.171875 C 319.214844 175.527344 314.808594 178.097656 309.367188 178.890625 C 303.925781 179.683594 299.027344 178.296875 294.671875 174.734375 L 187.5 91.90625 L 80.328125 174.734375 C 75.777344 178.097656 70.828125 179.484375 65.484375 178.890625 C 60.140625 178.296875 55.738281 175.773438 52.273438 171.320312 Z M 52.273438 171.320312 " fill-opacity="1" fill-rule="nonzero"/></svg>