<svg xmlns="http://www.w3.org/2000/svg" xmlns:xlink="http://www.w3.org/1999/xlink" width="500" zoomAndPan="magnify" viewBox="0 0 375 374.999991" height="500" preserveAspectRatio="xMidYMid meet" version="1.0"><defs><clipPath id="55712bf9c2"><path d="M 64 22.5 L 311 22.5 L 311 341 L 64 341 Z M 64 22.5 " clip-rule="nonzero"/></clipPath></defs><g clip-path="url(#55712bf9c2)"><path fill="#ffffff" d="M 106.34375 340.902344 C 94.609375 340.902344 84.632812 336.789062 76.410156 328.566406 C 68.191406 320.347656 64.078125 310.371094 64.078125 298.632812 L 64.078125 164.023438 C 64.078125 152.105469 68.191406 142.082031 76.410156 133.949219 C 84.632812 125.820312 94.609375 121.753906 106.34375 121.753906 L 109.511719 121.753906 L 109.511719 99.886719 C 109.511719 77.886719 117.121094 59.210938 132.34375 43.855469 C 147.5625 28.503906 165.945312 20.824219 187.5 20.824219 C 209.054688 20.824219 227.4375 28.503906 242.65625 43.855469 C 257.878906 59.210938 265.488281 77.886719 265.488281 99.886719 L 265.488281 121.753906 L 268.65625 121.753906 C 280.390625 121.753906 290.367188 125.820312 298.589844 133.949219 C 306.808594 142.082031 310.921875 152.105469 310.921875 164.023438 L 310.921875 298.632812 C 310.921875 310.371094 306.808594 320.347656 298.589844 328.566406 C 290.367188 336.789062 280.390625 340.902344 268.65625 340.902344 Z M 106.34375 298.632812 L 268.65625 298.632812 L 268.65625 164.023438 L 106.34375 164.023438 Z M 187.554688 262.480469 C 196.066406 262.480469 203.277344 259.472656 209.195312 253.457031 C 215.105469 247.441406 218.0625 240.210938 218.0625 231.765625 C 218.0625 223.316406 215.089844 216.105469 209.140625 210.128906 C 203.191406 204.148438 195.957031 201.160156 187.445312 201.160156 C 178.933594 201.160156 171.722656 204.15625 165.804688 210.152344 C 159.894531 216.152344 156.9375 223.359375 156.9375 231.777344 C 156.9375 240.253906 159.910156 247.488281 165.859375 253.484375 C 171.808594 259.484375 179.042969 262.480469 187.554688 262.480469 Z M 151.78125 121.753906 L 223.21875 121.753906 L 223.21875 99.886719 C 223.21875 89.714844 219.753906 81.039062 212.820312 73.859375 C 205.890625 66.683594 197.4375 63.09375 187.457031 63.09375 C 177.484375 63.09375 169.042969 66.683594 162.136719 73.859375 C 155.234375 81.039062 151.78125 89.714844 151.78125 99.886719 Z M 106.34375 298.632812 L 106.34375 164.023438 Z M 106.34375 298.632812 " fill-opacity="1" fill-rule="nonzero"/></g></svg>