<svg xmlns="http://www.w3.org/2000/svg" xmlns:xlink="http://www.w3.org/1999/xlink" width="500" zoomAndPan="magnify" viewBox="0 0 375 374.999991" height="500" preserveAspectRatio="xMidYMid meet" version="1.0"><path fill="#ffffff" d="M 76.753906 309.128906 C 66 309.128906 56.824219 305.316406 49.234375 297.6875 C 41.644531 290.058594 37.847656 280.902344 37.847656 270.222656 L 37.847656 104.777344 C 37.847656 94.097656 41.644531 84.941406 49.234375 77.3125 C 56.824219 69.683594 66 65.871094 76.753906 65.871094 L 298.246094 65.871094 C 309 65.871094 318.175781 69.683594 325.765625 77.3125 C 333.355469 84.941406 337.152344 94.097656 337.152344 104.777344 L 337.152344 270.222656 C 337.152344 280.902344 333.355469 290.058594 325.765625 297.6875 C 318.175781 305.316406 309 309.128906 298.246094 309.128906 Z M 298.246094 143.054688 L 197.519531 205.117188 C 195.933594 206.144531 194.304688 206.902344 192.632812 207.390625 C 190.960938 207.875 189.242188 208.117188 187.484375 208.117188 C 185.726562 208.117188 184.015625 207.875 182.355469 207.390625 C 180.691406 206.902344 179.066406 206.144531 177.480469 205.117188 L 76.753906 143.054688 L 76.753906 270.222656 L 298.246094 270.222656 Z M 187.5 174.738281 L 300.585938 104.777344 L 74.414062 104.777344 Z M 76.753906 143.054688 L 76.753906 146.210938 L 76.753906 119.472656 L 76.753906 119.957031 L 76.753906 104.777344 L 76.753906 119.953125 L 76.753906 119.394531 L 76.753906 146.210938 L 76.753906 143.054688 L 76.753906 270.222656 Z M 76.753906 143.054688 " fill-opacity="1" fill-rule="nonzero"/></svg>