<svg xmlns="http://www.w3.org/2000/svg" xmlns:xlink="http://www.w3.org/1999/xlink" width="500" zoomAndPan="magnify" viewBox="0 0 375 374.999991" height="500" preserveAspectRatio="xMidYMid meet" version="1.0"><path fill="#ffffff" d="M 274.484375 300.1875 L 258.222656 316.300781 C 254.714844 319.808594 250.550781 321.554688 245.734375 321.539062 C 240.917969 321.523438 236.707031 319.714844 233.101562 316.105469 C 229.59375 312.597656 227.839844 308.378906 227.839844 303.449219 C 227.839844 298.523438 229.59375 294.304688 233.101562 290.796875 L 249.023438 274.726562 L 232.910156 258.464844 C 229.398438 254.957031 227.652344 250.765625 227.667969 245.882812 C 227.683594 241.003906 229.492188 236.761719 233.101562 233.15625 C 236.609375 229.648438 240.828125 227.894531 245.757812 227.894531 C 250.683594 227.894531 254.902344 229.648438 258.410156 233.15625 L 274.484375 249.265625 L 290.742188 233.15625 C 294.25 229.648438 298.441406 227.867188 303.324219 227.816406 C 308.203125 227.769531 312.445312 229.546875 316.050781 233.15625 C 319.5625 236.664062 321.316406 240.882812 321.316406 245.808594 C 321.316406 250.738281 319.5625 254.957031 316.050781 258.464844 L 299.941406 274.726562 L 316.050781 290.984375 C 319.5625 294.496094 321.339844 298.660156 321.390625 303.472656 C 321.4375 308.289062 319.660156 312.5 316.050781 316.105469 C 312.542969 319.613281 308.324219 321.367188 303.398438 321.367188 C 298.46875 321.367188 294.25 319.613281 290.742188 316.105469 Z M 100.277344 329.742188 C 86.546875 329.742188 74.863281 324.925781 65.226562 315.289062 C 55.589844 305.652344 50.773438 293.96875 50.773438 280.242188 L 50.773438 266.296875 C 50.773438 256.535156 54.195312 248.230469 61.039062 241.386719 C 67.886719 234.542969 76.1875 231.121094 85.945312 231.121094 L 91.84375 231.121094 L 91.84375 81.402344 C 91.84375 71.386719 95.332031 62.894531 102.304688 55.921875 C 109.277344 48.945312 117.769531 45.460938 127.785156 45.460938 L 272.179688 45.460938 C 282.195312 45.460938 290.691406 48.945312 297.664062 55.921875 C 304.636719 62.894531 308.121094 71.386719 308.121094 81.402344 L 308.121094 187.796875 C 308.121094 192.785156 306.375 197.027344 302.882812 200.523438 C 299.386719 204.019531 295.144531 205.765625 290.152344 205.765625 C 285.160156 205.765625 280.917969 204.019531 277.421875 200.523438 C 273.929688 197.027344 272.179688 192.785156 272.179688 187.796875 L 272.179688 81.402344 L 127.785156 81.402344 L 127.785156 231.121094 L 184.289062 231.121094 C 189.28125 231.121094 193.527344 232.867188 197.019531 236.359375 C 200.511719 239.855469 202.257812 244.097656 202.257812 249.089844 C 202.257812 254.082031 200.511719 258.324219 197.019531 261.820312 C 193.527344 265.3125 189.28125 267.0625 184.289062 267.0625 L 86.714844 267.0625 L 86.714844 280.242188 C 86.714844 284.082031 88.011719 287.304688 90.613281 289.902344 C 93.210938 292.503906 96.433594 293.804688 100.277344 293.804688 L 184.289062 293.804688 C 189.28125 293.804688 193.527344 295.550781 197.019531 299.042969 C 200.511719 302.535156 202.257812 306.78125 202.257812 311.773438 C 202.257812 316.765625 200.511719 321.007812 197.019531 324.503906 C 193.527344 327.996094 189.28125 329.742188 184.289062 329.742188 Z M 195.199219 293.804688 L 86.714844 293.804688 L 193.136719 293.804688 L 192.730469 293.804688 Z M 157.402344 146.53125 C 152.921875 146.53125 149.125 144.976562 146.011719 141.867188 C 142.902344 138.753906 141.347656 134.960938 141.347656 130.476562 C 141.347656 125.996094 142.902344 122.199219 146.011719 119.085938 C 149.125 115.976562 152.921875 114.421875 157.402344 114.421875 L 242.5625 114.421875 C 247.046875 114.421875 250.84375 115.976562 253.953125 119.085938 C 257.0625 122.199219 258.617188 125.996094 258.617188 130.476562 C 258.617188 134.960938 257.0625 138.753906 253.953125 141.867188 C 250.84375 144.976562 247.046875 146.53125 242.5625 146.53125 Z M 157.402344 192.203125 C 152.921875 192.203125 149.125 190.648438 146.011719 187.535156 C 142.902344 184.425781 141.347656 180.628906 141.347656 176.148438 C 141.347656 171.667969 142.902344 167.871094 146.011719 164.757812 C 149.125 161.648438 152.921875 160.09375 157.402344 160.09375 L 242.5625 160.09375 C 247.046875 160.09375 250.84375 161.648438 253.953125 164.757812 C 257.0625 167.871094 258.617188 171.667969 258.617188 176.148438 C 258.617188 180.628906 257.0625 184.425781 253.953125 187.535156 C 250.84375 190.648438 247.046875 192.203125 242.5625 192.203125 Z M 157.402344 192.203125 " fill-opacity="1" fill-rule="nonzero"/></svg>