<svg xmlns="http://www.w3.org/2000/svg" xmlns:xlink="http://www.w3.org/1999/xlink" width="500" zoomAndPan="magnify" viewBox="0 0 375 374.999991" height="500" preserveAspectRatio="xMidYMid meet" version="1.0"><path fill="#ffffff" d="M 76.753906 309.128906 C 66.019531 309.128906 56.851562 305.316406 49.25 297.6875 C 41.648438 290.058594 37.847656 280.902344 37.847656 270.222656 L 37.847656 104.777344 C 37.847656 94.097656 41.648438 84.941406 49.25 77.3125 C 56.851562 69.683594 66.019531 65.871094 76.753906 65.871094 L 298.246094 65.871094 C 308.980469 65.871094 318.148438 69.683594 325.75 77.3125 C 333.351562 84.941406 337.152344 94.097656 337.152344 104.777344 L 337.152344 270.222656 C 337.152344 280.902344 333.351562 290.058594 325.75 297.6875 C 318.148438 305.316406 308.980469 309.128906 298.246094 309.128906 Z M 187.5 208.117188 C 189.269531 208.117188 190.980469 207.875 192.640625 207.390625 C 194.296875 206.902344 195.921875 206.148438 197.519531 205.121094 L 291.164062 146.183594 C 293.027344 145.058594 294.671875 143.261719 296.101562 140.800781 C 297.53125 138.339844 298.246094 135.722656 298.246094 132.949219 C 298.246094 127.039062 295.628906 122.554688 290.398438 119.488281 C 285.164062 116.425781 279.828125 116.578125 274.394531 119.953125 L 187.5 174.738281 L 100.605469 119.953125 C 95.226562 116.636719 89.90625 116.449219 84.644531 119.394531 C 79.382812 122.34375 76.753906 126.90625 76.753906 133.085938 C 76.753906 135.996094 77.46875 138.625 78.898438 140.972656 C 80.328125 143.320312 81.984375 145.066406 83.875 146.210938 L 177.480469 205.121094 C 179.078125 206.148438 180.703125 206.902344 182.359375 207.390625 C 184.019531 207.875 185.730469 208.117188 187.5 208.117188 Z M 187.5 208.117188 " fill-opacity="1" fill-rule="nonzero"/></svg>