<svg xmlns="http://www.w3.org/2000/svg" xmlns:xlink="http://www.w3.org/1999/xlink" width="500" zoomAndPan="magnify" viewBox="0 0 375 374.999991" height="500" preserveAspectRatio="xMidYMid meet" version="1.0"><path fill="#ffffff" d="M 273.117188 298.566406 L 260.386719 311.46875 C 256.5625 315.292969 252.171875 317.125 247.21875 316.964844 C 242.265625 316.804688 237.933594 314.871094 234.222656 311.164062 C 230.398438 307.339844 228.488281 302.898438 228.488281 297.84375 C 228.488281 292.785156 230.398438 288.347656 234.222656 284.523438 L 246.648438 272.097656 L 233.917969 259.367188 C 230.09375 255.542969 228.261719 251.101562 228.417969 246.046875 C 228.578125 240.988281 230.515625 236.550781 234.222656 232.726562 C 238.046875 229.015625 242.488281 227.160156 247.542969 227.160156 C 252.601562 227.160156 256.984375 229.015625 260.691406 232.726562 L 273.117188 245.628906 L 286.019531 232.726562 C 289.84375 229.015625 294.285156 227.160156 299.339844 227.160156 C 304.398438 227.160156 308.78125 229.015625 312.488281 232.726562 C 316.3125 236.550781 318.222656 240.988281 318.222656 246.046875 C 318.222656 251.101562 316.3125 255.542969 312.488281 259.367188 L 299.585938 272.097656 L 312.488281 285 C 316.3125 288.710938 318.222656 293.039062 318.222656 297.996094 C 318.222656 302.949219 316.3125 307.339844 312.488281 311.164062 C 308.78125 314.871094 304.398438 316.726562 299.339844 316.726562 C 294.285156 316.726562 289.84375 314.871094 286.019531 311.164062 Z M 115.300781 321.535156 C 101.417969 321.535156 89.675781 316.730469 80.0625 307.125 C 70.457031 297.511719 65.652344 285.769531 65.652344 271.886719 L 65.652344 259.355469 C 65.652344 249.0625 69.210938 240.363281 76.324219 233.25 C 83.4375 226.136719 92.136719 222.578125 102.425781 222.578125 L 103.261719 222.578125 L 103.261719 90.925781 C 103.261719 80.410156 106.875 71.535156 114.105469 64.304688 C 121.332031 57.078125 130.207031 53.464844 140.722656 53.464844 L 272.058594 53.464844 C 282.574219 53.464844 291.449219 57.078125 298.675781 64.304688 C 305.90625 71.535156 309.519531 80.410156 309.519531 90.925781 L 309.519531 188.242188 C 309.519531 193.511719 307.71875 197.953125 304.109375 201.5625 C 300.503906 205.167969 296.089844 206.972656 290.875 206.972656 C 285.660156 206.972656 281.21875 205.167969 277.554688 201.5625 C 273.890625 197.953125 272.058594 193.511719 272.058594 188.242188 L 272.058594 90.925781 L 140.722656 90.925781 L 140.722656 222.578125 L 185.761719 222.578125 C 191.035156 222.578125 195.476562 224.410156 199.085938 228.074219 C 202.691406 231.742188 204.496094 236.152344 204.496094 241.3125 C 204.496094 246.582031 202.691406 251.023438 199.085938 254.632812 C 195.476562 258.238281 191.035156 260.042969 185.761719 260.042969 L 103.113281 260.042969 L 103.113281 271.886719 C 103.113281 275.339844 104.28125 278.234375 106.617188 280.570312 C 108.953125 282.90625 111.847656 284.074219 115.300781 284.074219 L 185.761719 284.074219 C 191.035156 284.074219 195.476562 285.90625 199.085938 289.570312 C 202.691406 293.234375 204.496094 297.644531 204.496094 302.804688 C 204.496094 308.074219 202.691406 312.515625 199.085938 316.125 C 195.476562 319.730469 191.035156 321.535156 185.761719 321.535156 Z M 197.144531 284.074219 L 103.113281 284.074219 L 197.171875 284.074219 L 196.175781 284.074219 Z M 169.917969 146.566406 C 165.222656 146.566406 161.210938 144.90625 157.894531 141.582031 C 154.574219 138.265625 152.910156 134.257812 152.910156 129.558594 C 152.910156 124.859375 154.574219 120.851562 157.894531 117.527344 C 161.210938 114.207031 165.222656 112.546875 169.917969 112.546875 L 242.863281 112.546875 C 247.558594 112.546875 251.570312 114.207031 254.886719 117.527344 C 258.207031 120.847656 259.871094 124.859375 259.871094 129.558594 C 259.871094 134.253906 258.207031 138.265625 254.886719 141.582031 C 251.570312 144.90625 247.558594 146.566406 242.863281 146.566406 Z M 169.917969 192.769531 C 165.222656 192.769531 161.210938 191.113281 157.894531 187.792969 C 154.574219 184.472656 152.910156 180.460938 152.910156 175.761719 C 152.910156 171.066406 154.574219 167.054688 157.894531 163.734375 C 161.210938 160.414062 165.222656 158.753906 169.917969 158.753906 L 242.863281 158.753906 C 247.558594 158.753906 251.570312 160.414062 254.886719 163.734375 C 258.207031 167.054688 259.871094 171.066406 259.871094 175.761719 C 259.871094 180.460938 258.207031 184.472656 254.886719 187.792969 C 251.570312 191.113281 247.558594 192.769531 242.863281 192.769531 Z M 169.917969 192.769531 " fill-opacity="1" fill-rule="nonzero"/></svg>