<svg xmlns="http://www.w3.org/2000/svg" xmlns:xlink="http://www.w3.org/1999/xlink" width="500" zoomAndPan="magnify" viewBox="0 0 375 374.999991" height="500" preserveAspectRatio="xMidYMid meet" version="1.0"><path fill="#ffffff" d="M 91.988281 317.488281 C 85.792969 317.488281 80.617188 315.40625 76.453125 311.242188 C 72.289062 307.078125 70.207031 301.898438 70.207031 295.707031 L 70.207031 272.644531 C 70.207031 266.878906 71.273438 261.378906 73.410156 256.148438 C 75.542969 250.914062 78.746094 246.164062 83.019531 241.894531 L 257.589844 67.644531 C 260.792969 64.441406 264.316406 61.929688 268.160156 60.117188 C 272.003906 58.300781 275.847656 57.394531 279.691406 57.394531 C 283.746094 57.394531 287.75 58.300781 291.703125 60.117188 C 295.652344 61.929688 299.335938 64.441406 302.753906 67.644531 L 320.691406 84.941406 C 323.894531 87.929688 326.296875 91.398438 327.898438 95.351562 C 329.5 99.300781 330.300781 103.304688 330.300781 107.363281 C 330.300781 111.207031 329.550781 115.101562 328.058594 119.054688 C 326.5625 123.003906 324.105469 126.582031 320.691406 129.785156 L 146.121094 304.675781 C 141.847656 308.945312 137.097656 312.148438 131.867188 314.285156 C 126.632812 316.417969 121.136719 317.488281 115.371094 317.488281 Z M 266.878906 136.191406 L 295.707031 107.683594 L 280.011719 91.988281 L 251.824219 120.816406 Z M 213.386719 317.488281 C 230.253906 317.488281 245.84375 313.214844 260.152344 304.675781 C 274.457031 296.132812 281.613281 284.066406 281.613281 268.480469 C 281.613281 260.792969 279.796875 254.171875 276.167969 248.621094 C 272.535156 243.066406 267.519531 237.941406 261.113281 233.246094 C 257.480469 230.253906 253.371094 228.707031 248.78125 228.601562 C 244.1875 228.492188 240.292969 230.253906 237.089844 233.886719 C 233.671875 237.300781 231.910156 241.519531 231.804688 246.539062 C 231.695312 251.554688 233.566406 255.453125 237.410156 258.230469 C 240.613281 260.578125 243.175781 262.5 245.097656 263.996094 C 247.019531 265.488281 247.980469 266.984375 247.980469 268.480469 C 247.980469 272.535156 244.457031 276.113281 237.410156 279.210938 C 230.363281 282.304688 222.355469 283.855469 213.386719 283.855469 C 208.6875 283.855469 204.738281 285.457031 201.535156 288.660156 C 198.332031 291.863281 196.730469 295.8125 196.730469 300.511719 C 196.730469 305.207031 198.332031 309.210938 201.535156 312.523438 C 204.738281 315.832031 208.6875 317.488281 213.386719 317.488281 Z M 129.144531 99.996094 C 129.144531 102.34375 127.488281 104.746094 124.179688 107.203125 C 120.867188 109.65625 113.554688 113.019531 102.238281 117.292969 C 84.511719 124.765625 72.609375 132.027344 66.523438 139.074219 C 60.4375 146.121094 57.394531 154.449219 57.394531 164.058594 C 57.394531 172.171875 59.316406 178.683594 63.160156 183.597656 C 67.003906 188.507812 71.914062 192.671875 77.894531 196.089844 C 81.738281 198.652344 85.902344 199.613281 90.386719 198.972656 C 94.871094 198.332031 98.394531 196.089844 100.957031 192.246094 C 103.519531 188.402344 104.480469 184.238281 103.839844 179.753906 C 103.199219 175.269531 100.847656 171.746094 96.792969 169.183594 C 94.871094 168.328125 93.429688 167.527344 92.46875 166.78125 C 91.507812 166.03125 91.027344 165.125 91.027344 164.058594 C 91.027344 162.347656 92.414062 160.375 95.191406 158.132812 C 97.964844 155.890625 105.226562 152.527344 116.972656 148.042969 C 135.550781 140.78125 147.828125 133.574219 153.808594 126.421875 C 159.785156 119.265625 162.777344 110.457031 162.777344 99.996094 C 162.777344 86.96875 158.078125 76.613281 148.683594 68.925781 C 139.285156 61.238281 126.582031 57.394531 110.566406 57.394531 C 100.957031 57.394531 92.253906 59.15625 84.460938 62.679688 C 76.664062 66.203125 70.632812 70.847656 66.363281 76.613281 C 63.585938 80.457031 62.359375 84.566406 62.679688 88.945312 C 63 93.320312 65.082031 97.003906 68.925781 99.996094 C 72.339844 102.558594 76.292969 103.730469 80.777344 103.519531 C 85.261719 103.304688 88.996094 101.488281 91.988281 98.074219 C 94.121094 95.722656 96.632812 93.960938 99.515625 92.789062 C 102.398438 91.613281 105.972656 91.027344 110.246094 91.027344 C 116.652344 91.027344 121.402344 91.933594 124.5 93.75 C 127.59375 95.5625 129.144531 97.644531 129.144531 99.996094 Z M 129.144531 99.996094 " fill-opacity="1" fill-rule="nonzero"/></svg>