<svg xmlns="http://www.w3.org/2000/svg" xmlns:xlink="http://www.w3.org/1999/xlink" width="500" zoomAndPan="magnify" viewBox="0 0 375 374.999991" height="500" preserveAspectRatio="xMidYMid meet" version="1.0"><path fill="#ffffff" d="M 108.75 312.242188 C 103.886719 312.242188 99.726562 310.515625 96.261719 307.0625 C 92.796875 303.609375 91.066406 299.429688 91.066406 294.523438 C 91.066406 289.613281 92.796875 285.445312 96.261719 282.019531 C 99.726562 278.589844 103.886719 276.875 108.75 276.875 L 266.488281 276.875 C 271.351562 276.875 275.511719 278.589844 278.976562 282.019531 C 282.441406 285.445312 284.171875 289.613281 284.171875 294.523438 C 284.171875 299.429688 282.441406 303.609375 278.976562 307.0625 C 275.511719 310.515625 271.351562 312.242188 266.488281 312.242188 Z M 121.984375 258.125 C 113.296875 258.125 105.617188 255.292969 98.945312 249.625 C 92.273438 243.960938 88.269531 236.796875 86.929688 228.132812 L 74.492188 148.796875 C 74.535156 148.796875 74.585938 148.785156 74.640625 148.757812 C 74.695312 148.734375 74.746094 148.722656 74.789062 148.722656 C 68.183594 148.574219 62.640625 146.160156 58.164062 141.480469 C 53.691406 136.804688 51.453125 131.148438 51.453125 124.515625 C 51.453125 117.789062 53.804688 112.085938 58.507812 107.402344 C 63.214844 102.722656 68.929688 100.382812 75.648438 100.382812 C 82.371094 100.382812 88.074219 102.730469 92.761719 107.429688 C 97.453125 112.132812 99.796875 117.839844 99.796875 124.554688 C 99.796875 126.023438 99.628906 127.511719 99.296875 129.023438 C 98.964844 130.539062 98.550781 131.925781 98.054688 133.195312 L 133.375 148.933594 L 172.820312 94.148438 C 170.035156 92.089844 167.796875 89.460938 166.105469 86.257812 C 164.414062 83.054688 163.566406 79.550781 163.566406 75.75 C 163.566406 69.003906 165.902344 63.265625 170.574219 58.539062 C 175.246094 53.816406 180.917969 51.453125 187.59375 51.453125 C 194.269531 51.453125 199.949219 53.816406 204.636719 58.542969 C 209.328125 63.269531 211.671875 69.011719 211.671875 75.765625 C 211.671875 79.550781 210.796875 83.085938 209.042969 86.371094 C 207.292969 89.65625 205.007812 92.355469 202.179688 94.460938 L 241.863281 148.933594 L 277.257812 133.195312 C 276.773438 131.933594 276.347656 130.542969 275.984375 129.023438 C 275.621094 127.503906 275.441406 126.011719 275.441406 124.542969 C 275.441406 117.832031 277.792969 112.125 282.5 107.429688 C 287.203125 102.730469 292.910156 100.382812 299.613281 100.382812 C 306.261719 100.382812 311.910156 102.734375 316.566406 107.441406 C 321.21875 112.148438 323.546875 117.863281 323.546875 124.585938 C 323.546875 131.222656 321.308594 136.863281 316.835938 141.519531 C 312.359375 146.171875 306.921875 148.574219 300.523438 148.722656 C 300.554688 148.722656 300.59375 148.734375 300.632812 148.757812 C 300.675781 148.785156 300.714844 148.796875 300.746094 148.796875 L 288.070312 228.367188 C 286.730469 237.054688 282.726562 244.183594 276.054688 249.761719 C 269.382812 255.335938 261.703125 258.125 253.015625 258.125 Z M 121.984375 258.125 " fill-opacity="1" fill-rule="nonzero"/></svg>