<svg xmlns="http://www.w3.org/2000/svg" xmlns:xlink="http://www.w3.org/1999/xlink" width="500" zoomAndPan="magnify" viewBox="0 0 375 374.999991" height="500" preserveAspectRatio="xMidYMid meet" version="1.0"><path fill="#ffffff" d="M 178.949219 240.75 C 176.199219 239.652344 173.75 238.027344 171.597656 235.878906 L 107.628906 171.90625 C 103.324219 167.601562 101.203125 162.421875 101.261719 156.367188 C 101.324219 150.308594 103.445312 145.128906 107.628906 140.824219 C 112.089844 136.359375 117.34375 134.097656 123.378906 134.039062 C 129.417969 133.980469 134.664062 136.179688 139.128906 140.644531 L 165.140625 166.65625 L 165.140625 67.296875 C 165.140625 61.121094 167.300781 55.871094 171.625 51.546875 C 175.949219 47.222656 181.199219 45.0625 187.375 45.0625 C 193.554688 45.0625 198.804688 47.222656 203.125 51.546875 C 207.449219 55.871094 209.609375 61.121094 209.609375 67.296875 L 209.609375 166.65625 L 235.621094 140.644531 C 239.925781 136.179688 245.097656 133.9375 251.136719 133.917969 C 257.175781 133.902344 262.425781 136.125 266.886719 140.589844 C 271.226562 145.050781 273.425781 150.269531 273.488281 156.246094 C 273.550781 162.222656 271.347656 167.445312 266.886719 171.90625 L 203.15625 235.878906 C 201 238.027344 198.550781 239.652344 195.804688 240.75 C 193.054688 241.84375 190.246094 242.390625 187.375 242.390625 C 184.507812 242.390625 181.695312 241.84375 178.949219 240.75 Z M 89.53125 329.6875 C 77.140625 329.6875 66.632812 325.375 58.003906 316.746094 C 49.375 308.117188 45.0625 297.609375 45.0625 285.21875 L 45.0625 257.109375 C 45.0625 250.933594 47.222656 245.679688 51.546875 241.355469 C 55.871094 237.035156 61.121094 234.875 67.296875 234.875 C 73.476562 234.875 78.726562 237.035156 83.050781 241.355469 C 87.371094 245.679688 89.53125 250.933594 89.53125 257.109375 L 89.53125 285.21875 L 285.21875 285.21875 L 285.21875 257.109375 C 285.21875 250.933594 287.378906 245.679688 291.699219 241.355469 C 296.023438 237.035156 301.277344 234.875 307.453125 234.875 C 313.628906 234.875 318.878906 237.035156 323.203125 241.355469 C 327.527344 245.679688 329.6875 250.933594 329.6875 257.109375 L 329.6875 285.21875 C 329.6875 297.609375 325.375 308.117188 316.746094 316.746094 C 308.117188 325.375 297.609375 329.6875 285.21875 329.6875 Z M 89.53125 329.6875 " fill-opacity="1" fill-rule="nonzero"/></svg>