<svg xmlns="http://www.w3.org/2000/svg" xmlns:xlink="http://www.w3.org/1999/xlink" width="500" zoomAndPan="magnify" viewBox="0 0 375 374.999991" height="500" preserveAspectRatio="xMidYMid meet" version="1.0"><path fill="#ffffff" d="M 161.941406 234.378906 C 156.214844 234.378906 151.242188 232.273438 147.035156 228.066406 C 142.824219 223.855469 140.71875 218.886719 140.71875 213.15625 L 140.71875 185.445312 C 140.71875 179.832031 141.800781 174.425781 143.964844 169.222656 C 146.128906 164.019531 149.257812 159.371094 153.347656 155.277344 L 264.722656 44.253906 C 269.046875 39.929688 273.726562 36.800781 278.753906 34.871094 C 283.78125 32.941406 289.042969 31.976562 294.539062 31.976562 C 299.917969 31.976562 305.179688 32.941406 310.324219 34.871094 C 315.46875 36.800781 320.203125 39.929688 324.53125 44.253906 L 330.667969 50.394531 C 334.996094 54.71875 338.152344 59.457031 340.140625 64.601562 C 342.128906 69.746094 343.121094 75.066406 343.121094 80.5625 C 343.121094 86.058594 342.128906 91.40625 340.140625 96.609375 C 338.152344 101.8125 334.996094 106.578125 330.667969 110.902344 L 219.820312 221.925781 C 215.730469 226.019531 211.082031 229.117188 205.878906 231.222656 C 200.675781 233.328125 195.265625 234.378906 189.65625 234.378906 Z M 290.328125 101.257812 L 310.847656 80.5625 L 294.363281 64.25 L 273.84375 84.769531 Z M 94.945312 322.601562 C 83.015625 322.601562 72.960938 318.507812 64.777344 310.324219 C 56.589844 302.136719 52.5 292.082031 52.5 280.15625 L 52.5 94.945312 C 52.5 83.015625 56.589844 72.960938 64.777344 64.777344 C 72.960938 56.589844 83.015625 52.5 94.945312 52.5 L 167.730469 52.5 C 172.40625 52.5 176.441406 53.757812 179.832031 56.269531 C 183.222656 58.785156 185.679688 61.910156 187.199219 65.652344 C 188.71875 69.394531 189.097656 73.398438 188.339844 77.667969 C 187.578125 81.933594 185.5625 85.707031 182.289062 88.980469 L 127.039062 144.226562 C 122.949219 148.320312 119.820312 152.96875 117.65625 158.171875 C 115.492188 163.375 114.410156 168.78125 114.410156 174.394531 L 114.410156 218.242188 C 114.410156 230.167969 118.503906 240.226562 126.6875 248.410156 C 134.875 256.59375 144.929688 260.6875 156.855469 260.6875 L 200.878906 260.6875 C 206.492188 260.6875 211.898438 259.605469 217.101562 257.441406 C 222.304688 255.28125 226.953125 252.152344 231.046875 248.058594 L 286.121094 192.988281 C 289.394531 189.710938 293.164062 187.695312 297.433594 186.9375 C 301.699219 186.175781 305.703125 186.554688 309.445312 188.074219 C 313.1875 189.597656 316.316406 192.050781 318.828125 195.441406 C 321.34375 198.832031 322.601562 202.867188 322.601562 207.542969 L 322.601562 280.15625 C 322.601562 292.082031 318.507812 302.136719 310.324219 310.324219 C 302.136719 318.507812 292.082031 322.601562 280.15625 322.601562 Z M 94.945312 322.601562 " fill-opacity="1" fill-rule="nonzero"/></svg>