<svg xmlns="http://www.w3.org/2000/svg" xmlns:xlink="http://www.w3.org/1999/xlink" width="500" zoomAndPan="magnify" viewBox="0 0 375 374.999991" height="500" preserveAspectRatio="xMidYMid meet" version="1.0"><path fill="#ffffff" d="M 94.945312 322.601562 C 83.03125 322.601562 72.980469 318.503906 64.785156 310.3125 C 56.59375 302.121094 52.5 292.070312 52.5 280.15625 L 52.5 94.945312 C 52.5 83.03125 56.59375 72.980469 64.785156 64.785156 C 72.980469 56.59375 83.03125 52.5 94.945312 52.5 L 167.554688 52.5 C 174.628906 52.5 179.933594 54.667969 183.472656 59.007812 C 187.007812 63.339844 188.777344 68.164062 188.777344 73.476562 C 188.777344 78.785156 187.054688 83.6875 183.609375 88.191406 C 180.164062 92.691406 174.871094 94.945312 167.730469 94.945312 L 94.945312 94.945312 L 94.945312 280.15625 L 280.15625 280.15625 L 280.15625 207.542969 C 280.15625 200.46875 282.375 195.164062 286.816406 191.625 C 291.257812 188.089844 296.144531 186.320312 301.472656 186.320312 C 306.90625 186.320312 311.785156 188.089844 316.109375 191.625 C 320.4375 195.164062 322.601562 200.46875 322.601562 207.542969 L 322.601562 280.15625 C 322.601562 292.070312 318.503906 302.121094 310.3125 310.3125 C 302.121094 318.503906 292.070312 322.601562 280.15625 322.601562 Z M 187.550781 187.550781 Z M 140.71875 213.15625 L 140.71875 185.445312 C 140.71875 179.742188 141.800781 174.304688 143.960938 169.136719 C 146.121094 163.96875 149.25 159.347656 153.347656 155.277344 L 264.722656 44.253906 C 269.046875 39.929688 273.726562 36.800781 278.753906 34.871094 C 283.78125 32.941406 289.015625 31.976562 294.457031 31.976562 C 299.890625 31.976562 305.179688 32.941406 310.324219 34.871094 C 315.46875 36.800781 320.203125 39.929688 324.53125 44.253906 L 330.667969 50.394531 C 334.996094 54.71875 338.152344 59.46875 340.140625 64.636719 C 342.128906 69.804688 343.121094 75.125 343.121094 80.597656 C 343.121094 86.070312 342.144531 91.386719 340.191406 96.554688 C 338.238281 101.71875 335.066406 106.503906 330.667969 110.902344 L 219.820312 221.925781 C 215.75 225.972656 211.128906 229.0625 205.960938 231.191406 C 200.792969 233.316406 195.359375 234.378906 189.65625 234.378906 L 161.941406 234.378906 C 156.214844 234.378906 151.242188 232.273438 147.035156 228.066406 C 142.824219 223.855469 140.71875 218.886719 140.71875 213.15625 Z M 310.847656 80.5625 L 294.363281 64.25 Z M 176.148438 198.949219 L 192.285156 198.949219 L 271.386719 119.671875 L 263.449219 111.605469 L 255.425781 103.714844 L 176.148438 182.464844 Z M 263.449219 111.605469 L 255.425781 103.714844 L 263.449219 111.605469 L 271.386719 119.671875 Z M 263.449219 111.605469 " fill-opacity="1" fill-rule="nonzero"/></svg>