<svg xmlns="http://www.w3.org/2000/svg" xmlns:xlink="http://www.w3.org/1999/xlink" width="500" zoomAndPan="magnify" viewBox="0 0 375 374.999991" height="500" preserveAspectRatio="xMidYMid meet" version="1.0"><path fill="#ffffff" d="M 146.851562 240.46875 L 197.914062 229.339844 C 205.773438 227.59375 212.539062 223.886719 218.210938 218.210938 C 223.886719 212.539062 227.59375 205.773438 229.339844 197.914062 L 240.46875 146.851562 C 241.34375 143.140625 240.417969 139.921875 237.6875 137.195312 C 234.960938 134.464844 231.742188 133.539062 228.03125 134.410156 L 176.964844 145.539062 C 169.109375 147.285156 162.34375 150.996094 156.671875 156.671875 C 150.996094 162.34375 147.285156 169.109375 145.539062 176.964844 L 134.410156 228.03125 C 133.539062 231.742188 134.464844 234.960938 137.195312 237.6875 C 139.921875 240.417969 143.140625 241.34375 146.851562 240.46875 Z M 187.363281 200.535156 C 183.703125 200.535156 180.621094 199.253906 178.113281 196.691406 C 175.601562 194.132812 174.347656 191.023438 174.347656 187.363281 C 174.347656 183.703125 175.628906 180.621094 178.191406 178.113281 C 180.75 175.601562 183.859375 174.347656 187.519531 174.347656 C 191.175781 174.347656 194.261719 175.628906 196.769531 178.191406 C 199.28125 180.75 200.535156 183.859375 200.535156 187.519531 C 200.535156 191.175781 199.253906 194.261719 196.691406 196.769531 C 194.132812 199.28125 191.023438 200.535156 187.363281 200.535156 Z M 187.441406 329.507812 C 167.582031 329.507812 149.035156 325.789062 131.796875 318.351562 C 114.558594 310.914062 99.566406 300.816406 86.816406 288.066406 C 74.0625 275.316406 63.96875 260.320312 56.53125 243.085938 C 49.09375 225.847656 45.375 207.300781 45.375 187.441406 C 45.375 167.582031 49.09375 149.035156 56.53125 131.796875 C 63.96875 114.558594 74.0625 99.566406 86.816406 86.816406 C 99.566406 74.0625 114.558594 63.96875 131.796875 56.53125 C 149.035156 49.09375 167.582031 45.375 187.441406 45.375 C 207.300781 45.375 225.847656 49.09375 243.085938 56.53125 C 260.320312 63.96875 275.316406 74.0625 288.066406 86.816406 C 300.816406 99.566406 310.914062 114.558594 318.351562 131.796875 C 325.789062 149.035156 329.507812 167.582031 329.507812 187.441406 C 329.507812 207.300781 325.789062 225.847656 318.351562 243.085938 C 310.914062 260.320312 300.816406 275.316406 288.066406 288.066406 C 275.316406 300.816406 260.320312 310.914062 243.085938 318.351562 C 225.847656 325.789062 207.300781 329.507812 187.441406 329.507812 Z M 187.441406 288.261719 C 215.8125 288.261719 239.707031 278.550781 259.128906 259.128906 C 278.550781 239.707031 288.261719 215.8125 288.261719 187.441406 C 288.261719 159.070312 278.550781 135.175781 259.128906 115.753906 C 239.707031 96.332031 215.8125 86.617188 187.441406 86.617188 C 159.070312 86.617188 135.175781 96.332031 115.753906 115.753906 C 96.332031 135.175781 86.617188 159.070312 86.617188 187.441406 C 86.617188 215.8125 96.332031 239.707031 115.753906 259.128906 C 135.175781 278.550781 159.070312 288.261719 187.441406 288.261719 Z M 187.441406 187.441406 Z M 187.441406 187.441406 " fill-opacity="1" fill-rule="nonzero"/></svg>