<svg xmlns="http://www.w3.org/2000/svg" xmlns:xlink="http://www.w3.org/1999/xlink" width="500" zoomAndPan="magnify" viewBox="0 0 375 374.999991" height="500" preserveAspectRatio="xMidYMid meet" version="1.0"><path fill="#ffffff" d="M 146.894531 240.550781 L 197.976562 229.414062 C 205.835938 227.667969 212.605469 223.957031 218.28125 218.28125 C 223.957031 212.605469 227.667969 205.835938 229.414062 197.976562 L 240.550781 146.894531 C 241.421875 143.183594 240.496094 139.960938 237.765625 137.234375 C 235.035156 134.503906 231.816406 133.578125 228.105469 134.449219 L 177.019531 145.582031 C 169.160156 147.332031 162.394531 151.042969 156.71875 156.71875 C 151.042969 162.394531 147.332031 169.160156 145.582031 177.019531 L 134.449219 228.105469 C 133.578125 231.816406 134.503906 235.035156 137.234375 237.765625 C 139.960938 240.496094 143.183594 241.421875 146.894531 240.550781 Z M 187.421875 200.597656 C 183.761719 200.597656 180.675781 199.316406 178.167969 196.753906 C 175.65625 194.191406 174.402344 191.082031 174.402344 187.421875 C 174.402344 183.761719 175.683594 180.675781 178.246094 178.167969 C 180.804688 175.65625 183.917969 174.402344 187.578125 174.402344 C 191.238281 174.402344 194.320312 175.683594 196.832031 178.246094 C 199.34375 180.804688 200.597656 183.917969 200.597656 187.578125 C 200.597656 191.238281 199.316406 194.320312 196.753906 196.832031 C 194.191406 199.34375 191.082031 200.597656 187.421875 200.597656 Z M 187.5 329.621094 C 167.632812 329.621094 149.078125 325.898438 131.832031 318.460938 C 114.589844 311.015625 99.59375 300.917969 86.835938 288.164062 C 74.082031 275.40625 63.980469 260.40625 56.539062 243.164062 C 49.097656 225.921875 45.378906 207.367188 45.378906 187.5 C 45.378906 167.632812 49.097656 149.078125 56.539062 131.832031 C 63.980469 114.589844 74.082031 99.59375 86.835938 86.835938 C 99.59375 74.082031 114.589844 63.980469 131.832031 56.539062 C 149.078125 49.097656 167.632812 45.378906 187.5 45.378906 C 207.367188 45.378906 225.921875 49.097656 243.164062 56.539062 C 260.40625 63.980469 275.40625 74.082031 288.164062 86.835938 C 300.917969 99.59375 311.015625 114.589844 318.460938 131.832031 C 325.898438 149.078125 329.621094 167.632812 329.621094 187.5 C 329.621094 207.367188 325.898438 225.921875 318.460938 243.164062 C 311.015625 260.40625 300.917969 275.40625 288.164062 288.164062 C 275.40625 300.917969 260.40625 311.015625 243.164062 318.460938 C 225.921875 325.898438 207.367188 329.621094 187.5 329.621094 Z M 187.5 329.621094 " fill-opacity="1" fill-rule="nonzero"/></svg>