<svg xmlns="http://www.w3.org/2000/svg" xmlns:xlink="http://www.w3.org/1999/xlink" width="500" zoomAndPan="magnify" viewBox="0 0 375 374.999991" height="500" preserveAspectRatio="xMidYMid meet" version="1.0"><path fill="#ffffff" d="M 243.75 157.8125 L 123.046875 278.125 C 117.839844 283.59375 111.71875 286.261719 104.6875 286.132812 C 97.65625 286.003906 91.40625 283.203125 85.9375 277.734375 C 80.730469 272.527344 78.125 266.339844 78.125 259.179688 C 78.125 252.019531 80.730469 245.832031 85.9375 240.625 L 206.25 120.3125 L 114.0625 120.3125 C 106.511719 120.3125 100.195312 117.707031 95.117188 112.5 C 90.039062 107.292969 87.5 101.042969 87.5 93.75 C 87.5 86.457031 90.039062 80.207031 95.117188 75 C 100.195312 69.792969 106.511719 67.1875 114.0625 67.1875 L 270.3125 67.1875 C 277.605469 67.1875 283.855469 69.792969 289.0625 75 C 294.269531 80.207031 296.875 86.457031 296.875 93.75 L 296.875 250 C 296.875 257.292969 294.269531 263.542969 289.0625 268.75 C 283.855469 273.957031 277.539062 276.5625 270.117188 276.5625 C 262.695312 276.5625 256.445312 273.957031 251.367188 268.75 C 246.289062 263.542969 243.75 257.292969 243.75 250 Z M 243.75 157.8125 " fill-opacity="1" fill-rule="nonzero"/></svg>