<svg xmlns="http://www.w3.org/2000/svg" height="24px" viewBox="0 -960 960 960" width="24px" fill="#FFFFFF"><path d="M614-366q55-55 55-134t-55-134q-55-55-134-55t-134 55q-55 55-55 134t55 134q55 55 134 55t134-55Zm-196.5-71.5Q392-463 392-500t25.5-62.5Q443-588 480-588t62.5 25.5Q568-537 568-500t-25.5 62.5Q517-412 480-412t-62.5-25.5ZM215.5-233Q95-309 29-437q-8-15-12-31t-4-32q0-16 4-32t12-31q66-128 186.5-204T480-843q144 0 264.5 76T931-563q8 15 12 31t4 32q0 16-4 32t-12 31q-66 128-186.5 204T480-157q-144 0-264.5-76Z"/></svg>