<svg xmlns="http://www.w3.org/2000/svg" xmlns:xlink="http://www.w3.org/1999/xlink" width="500" zoomAndPan="magnify" viewBox="0 0 375 374.999991" height="500" preserveAspectRatio="xMidYMid meet" version="1.0"><path fill="#ffffff" d="M 185.652344 273.855469 C 191.835938 273.855469 197.164062 271.667969 201.640625 267.285156 C 206.113281 262.902344 208.351562 257.621094 208.351562 251.4375 C 208.351562 245.253906 206.128906 240.011719 201.6875 235.710938 C 197.246094 231.40625 191.933594 229.257812 185.75 229.257812 C 179.566406 229.257812 174.238281 231.390625 169.765625 235.660156 C 165.289062 239.929688 163.054688 245.15625 163.054688 251.339844 C 163.054688 257.523438 165.273438 262.824219 169.714844 267.234375 C 174.15625 271.648438 179.46875 273.855469 185.652344 273.855469 Z M 187.445312 342.847656 C 165.925781 342.847656 145.660156 338.828125 126.652344 330.792969 C 107.644531 322.75 91.144531 311.734375 77.148438 297.738281 C 63.152344 283.742188 52.136719 267.242188 44.097656 248.234375 C 36.058594 229.226562 32.039062 208.964844 32.039062 187.445312 C 32.039062 165.863281 36.066406 145.601562 44.117188 126.660156 C 52.171875 107.714844 63.226562 91.230469 77.28125 77.203125 C 91.339844 63.171875 107.839844 52.140625 126.785156 44.101562 C 145.734375 36.0625 165.953125 32.039062 187.445312 32.039062 C 209.023438 32.039062 229.285156 36.058594 248.238281 44.09375 C 267.191406 52.128906 283.679688 63.160156 297.703125 77.183594 C 311.726562 91.207031 322.757812 107.699219 330.792969 126.660156 C 338.828125 145.617188 342.847656 165.890625 342.847656 187.472656 C 342.847656 209.054688 338.828125 229.292969 330.789062 248.1875 C 322.75 267.078125 311.714844 283.550781 297.6875 297.605469 C 283.65625 311.660156 267.171875 322.714844 248.230469 330.769531 C 229.285156 338.820312 209.023438 342.847656 187.445312 342.847656 Z M 187.363281 295.460938 C 217.734375 295.460938 243.34375 285.0625 264.191406 264.269531 C 285.035156 243.476562 295.460938 217.894531 295.460938 187.523438 C 295.460938 157.15625 285.0625 131.546875 264.269531 110.695312 C 243.476562 89.851562 217.894531 79.429688 187.523438 79.429688 C 157.15625 79.429688 131.546875 89.824219 110.695312 110.617188 C 89.851562 131.410156 79.429688 156.992188 79.429688 187.363281 C 79.429688 217.734375 89.824219 243.34375 110.617188 264.191406 C 131.410156 285.035156 156.992188 295.460938 187.363281 295.460938 Z M 187.445312 187.445312 Z M 187.828125 134.132812 C 191.738281 134.132812 195.09375 135.402344 197.886719 137.941406 C 200.679688 140.480469 202.078125 143.679688 202.078125 147.539062 C 202.078125 151.609375 200.917969 155.214844 198.59375 158.347656 C 196.269531 161.484375 193.601562 164.332031 190.578125 166.886719 C 185.003906 171.765625 179.953125 177.136719 175.421875 183.007812 C 170.894531 188.878906 168.628906 195.46875 168.628906 202.773438 C 168.628906 207.210938 170.339844 210.933594 173.761719 213.941406 C 177.183594 216.949219 181.175781 218.453125 185.738281 218.453125 C 190.609375 218.453125 194.785156 216.886719 198.257812 213.75 C 201.734375 210.613281 204.285156 206.722656 205.910156 202.078125 C 207.539062 198.128906 209.585938 194.527344 212.058594 191.265625 C 214.527344 188.007812 217.238281 184.992188 220.195312 182.21875 C 225.539062 177.105469 229.953125 171.28125 233.4375 164.742188 C 236.921875 158.203125 238.664062 151.410156 238.664062 144.363281 C 238.664062 131.269531 233.785156 120.601562 224.03125 112.355469 C 214.273438 104.109375 202.847656 99.984375 189.75 99.984375 C 179.613281 99.984375 170.191406 102.191406 161.480469 106.605469 C 152.773438 111.019531 145.648438 117.300781 140.113281 125.445312 C 137.753906 129.148438 137.035156 133.144531 137.957031 137.441406 C 138.878906 141.734375 141.164062 145.136719 144.808594 147.652344 C 149.304688 150.253906 154.050781 150.972656 159.046875 149.8125 C 164.039062 148.652344 168.28125 146.097656 171.765625 142.148438 C 173.855469 139.824219 176.257812 137.90625 178.976562 136.398438 C 181.695312 134.886719 184.648438 134.132812 187.828125 134.132812 Z M 187.828125 134.132812 " fill-opacity="1" fill-rule="nonzero"/></svg>