<svg xmlns="http://www.w3.org/2000/svg" xmlns:xlink="http://www.w3.org/1999/xlink" width="500" zoomAndPan="magnify" viewBox="0 0 375 374.999991" height="500" preserveAspectRatio="xMidYMid meet" version="1.0"><path fill="#ffffff" d="M 187.496094 228.628906 L 120.769531 295.355469 C 114.675781 301.449219 107.820312 304.417969 100.203125 304.265625 C 92.585938 304.113281 85.882812 300.992188 80.09375 294.898438 C 74 288.804688 70.953125 281.949219 70.953125 274.332031 C 70.953125 266.714844 74 259.859375 80.09375 253.765625 L 146.363281 187.496094 L 79.636719 120.3125 C 73.542969 114.21875 70.570312 107.363281 70.722656 99.746094 C 70.875 92.128906 74 85.273438 80.09375 79.179688 C 85.882812 73.085938 92.660156 70.039062 100.429688 70.039062 C 108.199219 70.039062 115.132812 73.085938 121.226562 79.179688 L 187.496094 145.90625 L 254.222656 79.179688 C 260.316406 73.085938 267.246094 70.039062 275.015625 70.039062 C 282.785156 70.039062 289.566406 73.085938 295.355469 79.179688 C 301.449219 85.273438 304.496094 92.128906 304.496094 99.746094 C 304.496094 107.363281 301.449219 114.21875 295.355469 120.3125 L 228.628906 187.496094 L 295.355469 254.222656 C 301.449219 260.316406 304.496094 267.09375 304.496094 274.558594 C 304.496094 282.023438 301.449219 288.804688 295.355469 294.898438 C 289.566406 300.992188 282.785156 304.039062 275.015625 304.039062 C 267.246094 304.039062 260.316406 300.992188 254.222656 294.898438 Z M 187.496094 228.628906 " fill-opacity="1" fill-rule="nonzero"/></svg>