<svg xmlns="http://www.w3.org/2000/svg" xmlns:xlink="http://www.w3.org/1999/xlink" width="500" zoomAndPan="magnify" viewBox="0 0 375 374.999991" height="500" preserveAspectRatio="xMidYMid meet" version="1.0"><defs><clipPath id="0db031852e"><path d="M 24.738281 24.738281 L 350.238281 24.738281 L 350.238281 350.238281 L 24.738281 350.238281 Z M 24.738281 24.738281 " clip-rule="nonzero"/></clipPath></defs><g clip-path="url(#0db031852e)"><path fill="#ffffff" d="M 289.226562 350.261719 C 288.550781 350.261719 287.882812 350.210938 287.214844 350.113281 C 286.546875 350.011719 285.890625 349.863281 285.246094 349.667969 C 284.601562 349.46875 283.976562 349.226562 283.367188 348.9375 C 282.761719 348.644531 282.175781 348.3125 281.617188 347.933594 C 281.058594 347.558594 280.53125 347.140625 280.035156 346.683594 C 279.539062 346.226562 279.082031 345.738281 278.65625 345.214844 C 278.234375 344.6875 277.851562 344.136719 277.511719 343.554688 C 277.171875 342.972656 276.875 342.367188 276.625 341.742188 L 265.175781 313.082031 L 236.476562 301 C 235.246094 300.453125 234.121094 299.746094 233.097656 298.867188 C 232.078125 297.992188 231.207031 296.988281 230.480469 295.851562 C 229.757812 294.71875 229.214844 293.503906 228.847656 292.207031 C 228.484375 290.914062 228.3125 289.59375 228.339844 288.246094 C 228.363281 286.902344 228.582031 285.589844 228.996094 284.308594 C 229.410156 283.027344 230 281.832031 230.765625 280.726562 C 231.53125 279.621094 232.441406 278.648438 233.496094 277.8125 C 234.550781 276.976562 235.699219 276.308594 236.953125 275.8125 L 265.273438 265.082031 L 276.625 236.707031 C 277.148438 235.46875 277.835938 234.328125 278.695312 233.292969 C 279.554688 232.257812 280.542969 231.367188 281.664062 230.625 C 282.785156 229.878906 283.988281 229.3125 285.277344 228.925781 C 286.5625 228.535156 287.878906 228.339844 289.226562 228.339844 C 290.570312 228.339844 291.886719 228.535156 293.175781 228.925781 C 294.460938 229.3125 295.667969 229.878906 296.789062 230.625 C 297.910156 231.367188 298.898438 232.257812 299.753906 233.292969 C 300.613281 234.328125 301.304688 235.46875 301.824219 236.707031 L 313.234375 265.191406 L 341.714844 276.597656 C 342.957031 277.117188 344.097656 277.804688 345.136719 278.664062 C 346.175781 279.519531 347.070312 280.507812 347.816406 281.628906 C 348.5625 282.75 349.128906 283.957031 349.519531 285.246094 C 349.910156 286.535156 350.105469 287.851562 350.105469 289.199219 C 350.105469 290.542969 349.910156 291.863281 349.519531 293.152344 C 349.128906 294.441406 348.5625 295.644531 347.816406 296.765625 C 347.070312 297.886719 346.175781 298.875 345.136719 299.734375 C 344.097656 300.589844 342.957031 301.277344 341.714844 301.796875 L 313.234375 313.207031 L 301.824219 341.6875 C 301.578125 342.316406 301.285156 342.921875 300.945312 343.507812 C 300.605469 344.089844 300.222656 344.648438 299.800781 345.175781 C 299.378906 345.703125 298.921875 346.195312 298.425781 346.652344 C 297.929688 347.113281 297.402344 347.53125 296.84375 347.910156 C 296.285156 348.292969 295.699219 348.628906 295.09375 348.921875 C 294.484375 349.214844 293.855469 349.460938 293.210938 349.660156 C 292.566406 349.859375 291.910156 350.007812 291.242188 350.109375 C 290.574219 350.210938 289.902344 350.261719 289.226562 350.261719 Z M 160.371094 309.570312 C 158.917969 309.589844 157.46875 309.488281 156.03125 309.273438 C 154.589844 309.058594 153.175781 308.730469 151.789062 308.285156 C 150.402344 307.84375 149.0625 307.292969 147.765625 306.632812 C 146.464844 305.972656 145.230469 305.214844 144.054688 304.355469 C 142.878906 303.5 141.777344 302.550781 140.753906 301.515625 C 139.730469 300.480469 138.796875 299.371094 137.953125 298.1875 C 137.109375 297 136.363281 295.753906 135.71875 294.449219 C 135.074219 293.144531 134.539062 291.796875 134.113281 290.40625 L 112.222656 221.949219 L 43.550781 198.972656 C 42.171875 198.511719 40.839844 197.949219 39.554688 197.277344 C 38.265625 196.605469 37.039062 195.839844 35.871094 194.972656 C 34.707031 194.109375 33.613281 193.160156 32.597656 192.121094 C 31.582031 191.085938 30.65625 189.972656 29.8125 188.789062 C 28.972656 187.605469 28.230469 186.363281 27.585938 185.0625 C 26.941406 183.761719 26.40625 182.417969 25.972656 181.03125 C 25.542969 179.644531 25.222656 178.234375 25.011719 176.796875 C 24.804688 175.359375 24.710938 173.914062 24.730469 172.464844 C 24.75 171.011719 24.882812 169.570312 25.128906 168.140625 C 25.375 166.710938 25.734375 165.308594 26.203125 163.933594 C 26.671875 162.558594 27.246094 161.230469 27.925781 159.949219 C 28.601562 158.664062 29.378906 157.441406 30.25 156.28125 C 31.121094 155.121094 32.082031 154.035156 33.125 153.027344 C 34.167969 152.015625 35.285156 151.09375 36.472656 150.261719 C 37.660156 149.429688 38.910156 148.695312 40.214844 148.058594 C 41.519531 147.421875 42.867188 146.894531 44.253906 146.46875 L 112.382812 125.664062 L 135.335938 57.113281 C 135.757812 55.714844 136.292969 54.363281 136.941406 53.050781 C 137.585938 51.742188 138.339844 50.496094 139.191406 49.308594 C 140.046875 48.125 140.988281 47.015625 142.027344 45.988281 C 143.0625 44.957031 144.175781 44.019531 145.367188 43.171875 C 146.558594 42.328125 147.8125 41.585938 149.125 40.949219 C 150.4375 40.308594 151.796875 39.78125 153.195312 39.367188 C 154.597656 38.953125 156.023438 38.65625 157.472656 38.476562 C 158.921875 38.296875 160.378906 38.238281 161.835938 38.300781 C 163.292969 38.304688 164.738281 38.421875 166.175781 38.65625 C 167.613281 38.890625 169.019531 39.238281 170.402344 39.699219 C 171.78125 40.164062 173.117188 40.730469 174.40625 41.40625 C 175.695312 42.085938 176.921875 42.859375 178.085938 43.734375 C 179.25 44.605469 180.335938 45.570312 181.347656 46.617188 C 182.355469 47.667969 183.273438 48.789062 184.101562 49.984375 C 184.933594 51.183594 185.660156 52.4375 186.285156 53.753906 C 186.914062 55.066406 187.429688 56.421875 187.839844 57.820312 L 208.617188 125.839844 L 276.84375 147.675781 C 278.210938 148.136719 279.53125 148.699219 280.8125 149.363281 C 282.089844 150.027344 283.3125 150.789062 284.472656 151.644531 C 285.632812 152.5 286.71875 153.441406 287.734375 154.46875 C 288.746094 155.492188 289.675781 156.589844 290.519531 157.761719 C 291.359375 158.933594 292.105469 160.160156 292.757812 161.449219 C 293.40625 162.738281 293.953125 164.066406 294.394531 165.4375 C 294.835938 166.8125 295.171875 168.210938 295.394531 169.636719 C 295.617188 171.058594 295.730469 172.492188 295.730469 173.9375 C 295.730469 175.378906 295.617188 176.8125 295.394531 178.234375 C 295.171875 179.660156 294.835938 181.058594 294.394531 182.433594 C 293.953125 183.804688 293.40625 185.132812 292.757812 186.421875 C 292.105469 187.710938 291.359375 188.9375 290.519531 190.109375 C 289.675781 191.28125 288.746094 192.378906 287.734375 193.402344 C 286.71875 194.429688 285.632812 195.371094 284.472656 196.226562 C 283.3125 197.082031 282.089844 197.84375 280.8125 198.507812 C 279.53125 199.175781 278.210938 199.734375 276.84375 200.195312 L 208.496094 222.058594 L 186.632812 290.40625 C 186.203125 291.796875 185.667969 293.144531 185.023438 294.449219 C 184.378906 295.753906 183.636719 297 182.792969 298.1875 C 181.945312 299.371094 181.011719 300.480469 179.988281 301.515625 C 178.964844 302.550781 177.867188 303.5 176.691406 304.355469 C 175.515625 305.214844 174.277344 305.972656 172.980469 306.632812 C 171.683594 307.292969 170.339844 307.84375 168.953125 308.285156 C 167.566406 308.730469 166.152344 309.058594 164.714844 309.273438 C 163.273438 309.488281 161.828125 309.589844 160.371094 309.570312 Z M 302.789062 119.683594 C 302.039062 119.683594 301.292969 119.621094 300.550781 119.496094 C 299.8125 119.371094 299.085938 119.1875 298.375 118.945312 C 297.667969 118.699219 296.980469 118.398438 296.320312 118.039062 C 295.660156 117.683594 295.035156 117.273438 294.445312 116.8125 C 293.851562 116.347656 293.304688 115.839844 292.796875 115.289062 C 292.289062 114.734375 291.828125 114.144531 291.417969 113.515625 C 291.011719 112.886719 290.65625 112.226562 290.355469 111.539062 C 290.054688 110.851562 289.816406 110.140625 289.632812 109.414062 L 284.789062 90.019531 L 265.355469 84.796875 C 264.628906 84.601562 263.925781 84.347656 263.242188 84.035156 C 262.558594 83.726562 261.90625 83.359375 261.28125 82.9375 C 260.660156 82.519531 260.078125 82.050781 259.53125 81.53125 C 258.988281 81.015625 258.488281 80.457031 258.039062 79.855469 C 257.585938 79.257812 257.1875 78.625 256.839844 77.957031 C 256.492188 77.289062 256.203125 76.601562 255.972656 75.886719 C 255.742188 75.171875 255.570312 74.441406 255.457031 73.699219 C 255.347656 72.957031 255.296875 72.210938 255.3125 71.460938 C 255.324219 70.710938 255.398438 69.964844 255.535156 69.226562 C 255.671875 68.488281 255.871094 67.765625 256.128906 67.058594 C 256.382812 66.355469 256.695312 65.675781 257.066406 65.019531 C 257.4375 64.367188 257.859375 63.746094 258.332031 63.164062 C 258.800781 62.582031 259.320312 62.039062 259.882812 61.542969 C 260.445312 61.042969 261.042969 60.597656 261.679688 60.199219 C 262.316406 59.800781 262.984375 59.457031 263.675781 59.167969 C 264.371094 58.882812 265.082031 58.652344 265.816406 58.484375 L 284.804688 54.074219 L 289.632812 35.003906 C 289.816406 34.277344 290.054688 33.570312 290.355469 32.878906 C 290.65625 32.191406 291.011719 31.535156 291.421875 30.90625 C 291.828125 30.277344 292.289062 29.683594 292.796875 29.132812 C 293.304688 28.578125 293.851562 28.070312 294.445312 27.609375 C 295.035156 27.148438 295.664062 26.738281 296.320312 26.378906 C 296.980469 26.023438 297.667969 25.71875 298.375 25.476562 C 299.085938 25.230469 299.8125 25.046875 300.550781 24.925781 C 301.292969 24.800781 302.039062 24.738281 302.789062 24.738281 C 303.539062 24.738281 304.285156 24.800781 305.023438 24.925781 C 305.765625 25.046875 306.492188 25.230469 307.199219 25.476562 C 307.910156 25.71875 308.59375 26.023438 309.253906 26.378906 C 309.914062 26.738281 310.539062 27.148438 311.132812 27.609375 C 311.722656 28.070312 312.273438 28.578125 312.78125 29.132812 C 313.289062 29.683594 313.746094 30.277344 314.15625 30.90625 C 314.566406 31.535156 314.921875 32.191406 315.222656 32.878906 C 315.523438 33.570312 315.761719 34.277344 315.945312 35.003906 L 320.746094 54.238281 L 339.980469 59.054688 C 340.707031 59.234375 341.417969 59.476562 342.105469 59.777344 C 342.792969 60.078125 343.449219 60.433594 344.078125 60.839844 C 344.710938 61.25 345.300781 61.710938 345.851562 62.214844 C 346.40625 62.722656 346.914062 63.273438 347.375 63.867188 C 347.835938 64.457031 348.246094 65.082031 348.605469 65.742188 C 348.964844 66.402344 349.265625 67.085938 349.507812 67.796875 C 349.753906 68.507812 349.9375 69.234375 350.058594 69.972656 C 350.183594 70.714844 350.246094 71.460938 350.246094 72.210938 C 350.246094 72.960938 350.183594 73.707031 350.058594 74.445312 C 349.9375 75.1875 349.753906 75.910156 349.507812 76.621094 C 349.265625 77.332031 348.964844 78.015625 348.605469 78.675781 C 348.246094 79.335938 347.835938 79.960938 347.375 80.554688 C 346.914062 81.144531 346.40625 81.695312 345.851562 82.203125 C 345.300781 82.710938 344.710938 83.167969 344.078125 83.578125 C 343.449219 83.988281 342.792969 84.34375 342.105469 84.640625 C 341.417969 84.941406 340.707031 85.183594 339.980469 85.367188 L 320.746094 90.179688 L 315.945312 109.414062 C 315.761719 110.140625 315.523438 110.851562 315.222656 111.539062 C 314.921875 112.226562 314.566406 112.886719 314.15625 113.515625 C 313.75 114.144531 313.289062 114.734375 312.78125 115.289062 C 312.273438 115.839844 311.726562 116.347656 311.132812 116.8125 C 310.542969 117.273438 309.914062 117.683594 309.253906 118.039062 C 308.59375 118.398438 307.910156 118.699219 307.199219 118.945312 C 306.492188 119.1875 305.765625 119.371094 305.027344 119.496094 C 304.285156 119.621094 303.539062 119.683594 302.789062 119.683594 Z M 302.789062 119.683594 " fill-opacity="1" fill-rule="nonzero"/></g></svg>