<svg xmlns="http://www.w3.org/2000/svg" xmlns:xlink="http://www.w3.org/1999/xlink" width="500" zoomAndPan="magnify" viewBox="0 0 375 374.999991" height="500" preserveAspectRatio="xMidYMid meet" version="1.0"><defs><clipPath id="260aa2ccd7"><path d="M 50.917969 165.355469 L 83.683594 165.355469 L 83.683594 181.890625 L 50.917969 181.890625 Z M 50.917969 165.355469 " clip-rule="nonzero"/></clipPath><clipPath id="d2e9a00a32"><path d="M 0.917969 0.355469 L 33.683594 0.355469 L 33.683594 16.890625 L 0.917969 16.890625 Z M 0.917969 0.355469 " clip-rule="nonzero"/></clipPath><clipPath id="bf05137229"><rect x="0" width="34" y="0" height="17"/></clipPath></defs><path fill="#ffffff" d="M 310.332031 318.285156 C 308.042969 318.285156 305.734375 317.867188 303.402344 317.03125 C 301.070312 316.195312 298.933594 314.777344 297 312.785156 L 273.128906 289.089844 L 145.050781 289.089844 C 134.394531 289.089844 125.40625 285.429688 118.089844 278.109375 C 110.765625 270.785156 107.105469 261.800781 107.105469 251.148438 L 107.105469 239.511719 L 241.960938 239.511719 C 252.613281 239.511719 261.601562 235.851562 268.921875 228.53125 C 276.242188 221.210938 279.902344 212.222656 279.902344 201.566406 L 279.902344 117.765625 L 291.363281 117.765625 C 302.015625 117.765625 311.003906 121.425781 318.324219 128.75 C 325.644531 136.070312 329.304688 145.054688 329.304688 155.710938 L 329.304688 299.488281 C 329.304688 305.296875 327.347656 309.878906 323.429688 313.242188 C 319.511719 316.605469 315.148438 318.285156 310.332031 318.285156 Z M 83.636719 173.742188 L 80.5 176.878906 L 217.273438 176.878906 L 217.273438 93.683594 L 83.636719 93.683594 Z M 64.667969 245.417969 C 59.851562 245.417969 55.488281 243.691406 51.570312 240.242188 C 47.652344 236.796875 45.695312 232.195312 45.695312 226.445312 L 45.695312 93.683594 C 45.695312 83.027344 49.355469 74.042969 56.675781 66.722656 C 63.996094 59.398438 72.984375 55.738281 83.636719 55.738281 L 217.273438 55.738281 C 227.925781 55.738281 236.914062 59.398438 244.234375 66.722656 C 251.554688 74.042969 255.214844 83.027344 255.214844 93.683594 L 255.214844 176.878906 C 255.214844 187.535156 251.554688 196.523438 244.234375 203.84375 C 236.914062 211.164062 227.925781 214.824219 217.273438 214.824219 L 103.160156 214.824219 L 77.828125 239.914062 C 75.894531 241.910156 73.789062 243.324219 71.511719 244.164062 C 69.238281 245 66.957031 245.417969 64.667969 245.417969 Z M 83.636719 176.878906 L 83.636719 93.683594 Z M 83.636719 176.878906 " fill-opacity="1" fill-rule="nonzero"/><g clip-path="url(#260aa2ccd7)"><g transform="matrix(1, 0, 0, 1, 50, 165)"><g clip-path="url(#bf05137229)"><g clip-path="url(#d2e9a00a32)"><path fill="#ffffff" d="M 0.917969 0.355469 L 33.667969 0.355469 L 33.667969 16.890625 L 0.917969 16.890625 Z M 0.917969 0.355469 " fill-opacity="1" fill-rule="nonzero"/></g></g></g></g></svg>