<svg xmlns="http://www.w3.org/2000/svg" xmlns:xlink="http://www.w3.org/1999/xlink" width="500" zoomAndPan="magnify" viewBox="0 0 375 374.999991" height="500" preserveAspectRatio="xMidYMid meet" version="1.0"><path fill="#ffffff" d="M 90.914062 284.054688 L 117.535156 284.054688 C 123.53125 284.054688 128.734375 286.257812 133.140625 290.664062 C 137.546875 295.070312 139.75 300.273438 139.75 306.269531 C 139.75 312.265625 137.546875 317.46875 133.140625 321.875 C 128.734375 326.28125 123.53125 328.484375 117.535156 328.484375 L 68.699219 328.484375 C 62.703125 328.484375 57.5 326.28125 53.09375 321.875 C 48.6875 317.46875 46.484375 312.265625 46.484375 306.269531 L 46.484375 257.433594 C 46.484375 251.4375 48.6875 246.234375 53.09375 241.828125 C 57.5 237.421875 62.703125 235.21875 68.699219 235.21875 C 74.695312 235.21875 79.898438 237.421875 84.304688 241.828125 C 88.710938 246.234375 90.914062 251.4375 90.914062 257.433594 Z M 284.054688 284.054688 L 284.054688 257.433594 C 284.054688 251.4375 286.257812 246.234375 290.664062 241.828125 C 295.070312 237.421875 300.273438 235.21875 306.269531 235.21875 C 312.265625 235.21875 317.46875 237.421875 321.875 241.828125 C 326.28125 246.234375 328.484375 251.4375 328.484375 257.433594 L 328.484375 306.269531 C 328.484375 312.265625 326.28125 317.46875 321.875 321.875 C 317.46875 326.28125 312.265625 328.484375 306.269531 328.484375 L 257.984375 328.484375 C 251.988281 328.484375 246.785156 326.28125 242.378906 321.875 C 237.972656 317.46875 235.769531 312.265625 235.769531 306.269531 C 235.769531 300.273438 237.972656 295.070312 242.378906 290.664062 C 246.785156 286.257812 251.988281 284.054688 257.984375 284.054688 Z M 90.914062 90.914062 L 90.914062 116.984375 C 90.914062 122.980469 88.710938 128.183594 84.304688 132.589844 C 79.898438 136.996094 74.695312 139.199219 68.699219 139.199219 C 62.703125 139.199219 57.5 136.996094 53.09375 132.589844 C 48.6875 128.183594 46.484375 122.980469 46.484375 116.984375 L 46.484375 68.699219 C 46.484375 62.703125 48.6875 57.5 53.09375 53.09375 C 57.5 48.6875 62.703125 46.484375 68.699219 46.484375 L 117.535156 46.484375 C 123.53125 46.484375 128.734375 48.6875 133.140625 53.09375 C 137.546875 57.5 139.75 62.703125 139.75 68.699219 C 139.75 74.695312 137.546875 79.898438 133.140625 84.304688 C 128.734375 88.710938 123.53125 90.914062 117.535156 90.914062 Z M 284.054688 90.914062 L 257.984375 90.914062 C 251.988281 90.914062 246.785156 88.710938 242.378906 84.304688 C 237.972656 79.898438 235.769531 74.695312 235.769531 68.699219 C 235.769531 62.703125 237.972656 57.5 242.378906 53.09375 C 246.785156 48.6875 251.988281 46.484375 257.984375 46.484375 L 306.269531 46.484375 C 312.265625 46.484375 317.46875 48.6875 321.875 53.09375 C 326.28125 57.5 328.484375 62.703125 328.484375 68.699219 L 328.484375 116.984375 C 328.484375 122.980469 326.28125 128.183594 321.875 132.589844 C 317.46875 136.996094 312.265625 139.199219 306.269531 139.199219 C 300.273438 139.199219 295.070312 136.996094 290.664062 132.589844 C 286.257812 128.183594 284.054688 122.980469 284.054688 116.984375 Z M 284.054688 90.914062 " fill-opacity="1" fill-rule="nonzero"/></svg>