<svg xmlns="http://www.w3.org/2000/svg" xmlns:xlink="http://www.w3.org/1999/xlink" width="500" zoomAndPan="magnify" viewBox="0 0 375 374.999991" height="500" preserveAspectRatio="xMidYMid meet" version="1.0"><path fill="#ffffff" d="M 164.363281 325.472656 C 160.207031 325.472656 156.707031 324.355469 153.863281 322.121094 C 151.019531 319.886719 149.378906 316.738281 148.941406 312.675781 L 144.019531 281.832031 C 140.957031 280.957031 137.585938 279.417969 133.910156 277.21875 C 130.230469 275.023438 127.148438 272.953125 124.660156 271.003906 L 97.097656 283.800781 C 93.378906 285.550781 89.496094 285.824219 85.449219 284.621094 C 81.402344 283.417969 78.503906 280.957031 76.753906 277.238281 L 54.113281 236.550781 C 51.925781 233.488281 51.214844 229.988281 51.980469 226.050781 C 52.746094 222.113281 54.878906 218.941406 58.378906 216.535156 L 83.972656 197.175781 C 83.753906 196.09375 83.644531 194.507812 83.644531 192.417969 L 83.644531 182.574219 C 83.644531 180.804688 83.753906 179.109375 83.972656 177.488281 L 58.378906 158.785156 C 54.878906 156.160156 52.691406 152.933594 51.816406 149.105469 C 50.941406 145.277344 51.707031 141.613281 54.113281 138.113281 L 76.753906 97.097656 C 78.722656 94.035156 81.621094 91.792969 85.449219 90.371094 C 89.277344 88.949219 93.050781 89.003906 96.769531 90.535156 L 125.316406 103.660156 C 127.476562 102.027344 130.425781 100.144531 134.15625 98.003906 C 137.886719 95.867188 141.175781 94.363281 144.019531 93.488281 L 148.941406 62.316406 C 149.359375 58.066406 150.992188 54.761719 153.84375 52.402344 C 156.699219 50.042969 160.207031 48.863281 164.363281 48.863281 L 210.300781 48.863281 C 214.457031 48.863281 217.960938 50.042969 220.816406 52.402344 C 223.667969 54.761719 225.304688 58.066406 225.722656 62.316406 L 230.644531 93.160156 C 233.925781 94.035156 237.371094 95.566406 240.980469 97.753906 C 244.589844 99.941406 247.597656 101.910156 250.003906 103.660156 L 277.566406 90.535156 C 281.441406 89.003906 285.316406 88.949219 289.195312 90.371094 C 293.070312 91.792969 295.976562 94.035156 297.910156 97.097656 L 321.207031 138.113281 C 323.175781 141.613281 323.722656 145.332031 322.847656 149.269531 C 321.972656 153.207031 319.785156 156.378906 316.285156 158.785156 L 290.363281 176.503906 C 290.582031 178.15625 290.855469 180.015625 291.183594 182.082031 C 291.511719 184.144531 291.675781 185.894531 291.675781 187.332031 C 291.675781 188.765625 291.511719 190.460938 291.183594 192.417969 C 290.855469 194.371094 290.582031 196.066406 290.363281 197.503906 L 316.613281 216.207031 C 320.113281 218.394531 322.246094 221.457031 323.011719 225.394531 C 323.777344 229.332031 323.175781 233.050781 321.207031 236.550781 L 297.910156 277.238281 C 296.207031 280.738281 293.449219 283.144531 289.632812 284.457031 C 285.816406 285.769531 281.902344 285.550781 277.894531 283.800781 L 250.003906 271.003906 C 247.597656 272.972656 244.480469 275.105469 240.652344 277.402344 C 236.824219 279.699219 233.597656 281.175781 230.972656 281.832031 L 225.722656 312.675781 C 225.285156 316.738281 223.644531 319.886719 220.800781 322.121094 C 217.957031 324.355469 214.457031 325.472656 210.300781 325.472656 Z M 175.847656 295.613281 L 198.816406 295.613281 L 203.738281 259.191406 C 211.394531 257.222656 218.539062 254.433594 225.179688 250.824219 C 231.820312 247.214844 237.796875 242.457031 243.113281 236.550781 L 277.894531 251.972656 L 288.066406 232.613281 L 257.550781 210.628906 C 258.644531 206.691406 259.519531 202.808594 260.175781 198.980469 C 260.832031 195.15625 261.160156 191.328125 261.160156 187.496094 C 261.160156 183.449219 260.832031 179.457031 260.175781 175.519531 C 259.519531 171.582031 258.753906 167.863281 257.878906 164.363281 L 288.394531 142.050781 L 277.894531 122.691406 L 243.171875 138.113281 C 238.101562 131.988281 232.242188 126.8125 225.59375 122.59375 C 218.941406 118.371094 211.65625 115.890625 203.738281 115.144531 L 199.144531 79.050781 L 175.519531 79.050781 L 171.253906 115.144531 C 163.597656 116.675781 156.324219 119.410156 149.433594 123.347656 C 142.542969 127.285156 136.472656 132.097656 131.222656 137.785156 L 97.097656 122.691406 L 86.597656 142.050781 L 116.785156 163.707031 C 115.691406 167.425781 114.871094 171.253906 114.324219 175.191406 C 113.777344 179.128906 113.503906 183.226562 113.503906 187.488281 C 113.503906 191.757812 113.777344 195.863281 114.324219 199.800781 C 114.871094 203.738281 115.691406 207.347656 116.785156 210.628906 L 86.597656 232.613281 L 97.097656 251.972656 L 131.222656 236.550781 C 136.691406 242.457031 142.816406 247.378906 149.597656 251.316406 C 156.378906 255.253906 163.597656 257.988281 171.253906 259.519531 Z M 187.003906 229.003906 C 198.5 229.003906 208.320312 224.929688 216.460938 216.789062 C 224.601562 208.648438 228.675781 198.828125 228.675781 187.332031 C 228.675781 176.042969 224.601562 166.277344 216.460938 158.027344 C 208.320312 149.78125 198.5 145.660156 187.003906 145.660156 C 175.191406 145.660156 165.292969 149.78125 157.308594 158.027344 C 149.324219 166.277344 145.332031 176.042969 145.332031 187.332031 C 145.332031 198.828125 149.324219 208.648438 157.308594 216.789062 C 165.292969 224.929688 175.191406 229.003906 187.003906 229.003906 Z M 187.660156 187.332031 Z M 187.660156 187.332031 " fill-opacity="1" fill-rule="nonzero"/></svg>