<svg xmlns="http://www.w3.org/2000/svg" xmlns:xlink="http://www.w3.org/1999/xlink" width="500" zoomAndPan="magnify" viewBox="0 0 375 374.999991" height="500" preserveAspectRatio="xMidYMid meet" version="1.0"><path fill="#ffffff" d="M 164.386719 325.496094 C 160.265625 325.496094 156.765625 324.390625 153.886719 322.175781 C 151.007812 319.957031 149.367188 316.800781 148.964844 312.699219 L 144.042969 281.855469 C 140.980469 280.980469 137.589844 279.449219 133.871094 277.261719 C 130.152344 275.074219 127.089844 272.996094 124.683594 271.027344 L 97.121094 283.824219 C 93.429688 285.574219 89.574219 285.863281 85.554688 284.6875 C 81.535156 283.507812 78.609375 281.03125 76.777344 277.261719 L 54.136719 236.574219 C 51.949219 233.511719 51.238281 230.011719 52.003906 226.074219 C 52.769531 222.136719 54.902344 218.964844 58.402344 216.558594 L 83.996094 197.199219 C 83.777344 196.097656 83.667969 194.511719 83.667969 192.441406 L 83.667969 182.597656 C 83.667969 180.75 83.777344 179.054688 83.996094 177.511719 L 58.402344 158.808594 C 54.902344 156.183594 52.714844 152.957031 51.839844 149.128906 C 50.964844 145.300781 51.730469 141.636719 54.136719 138.136719 L 76.902344 97.058594 C 78.789062 94.039062 81.644531 91.816406 85.472656 90.394531 C 89.300781 88.972656 93.074219 89.027344 96.792969 90.558594 L 125.339844 103.683594 C 127.527344 102.152344 130.480469 100.292969 134.199219 98.105469 C 137.917969 95.917969 141.199219 94.386719 144.042969 93.511719 L 148.964844 62.484375 C 149.402344 58.230469 151.058594 54.902344 153.925781 52.496094 C 156.792969 50.089844 160.28125 48.886719 164.386719 48.886719 L 210.324219 48.886719 C 214.445312 48.886719 217.949219 50.082031 220.828125 52.472656 C 223.707031 54.859375 225.347656 58.148438 225.746094 62.339844 L 230.667969 93.183594 C 233.910156 94.070312 237.34375 95.605469 240.972656 97.789062 C 244.605469 99.96875 247.621094 101.933594 250.027344 103.683594 L 277.589844 90.558594 C 281.527344 89.027344 285.410156 88.972656 289.238281 90.394531 C 293.066406 91.816406 295.953125 94.042969 297.894531 97.070312 L 321.273438 138.191406 C 323.214844 141.65625 323.746094 145.355469 322.871094 149.292969 C 321.996094 153.230469 319.808594 156.402344 316.308594 158.808594 L 290.386719 176.527344 C 290.605469 178.277344 290.878906 180.136719 291.207031 182.105469 C 291.535156 184.074219 291.699219 185.828125 291.699219 187.367188 C 291.699219 188.90625 291.535156 190.597656 291.207031 192.445312 C 290.878906 194.296875 290.605469 195.992188 290.386719 197.527344 L 316.636719 216.230469 C 320.136719 218.417969 322.269531 221.480469 323.035156 225.417969 C 323.800781 229.355469 323.214844 233.03125 321.273438 236.441406 L 297.933594 277.261719 C 296.105469 280.8125 293.289062 283.234375 289.484375 284.523438 C 285.6875 285.808594 281.832031 285.574219 277.917969 283.824219 L 250.027344 271.027344 C 247.621094 272.996094 244.503906 275.128906 240.675781 277.425781 C 236.847656 279.722656 233.621094 281.199219 230.996094 281.855469 L 225.746094 312.699219 C 225.347656 316.800781 223.707031 319.957031 220.828125 322.175781 C 217.949219 324.390625 214.445312 325.496094 210.324219 325.496094 Z M 187.027344 229.027344 C 198.621094 229.027344 208.464844 224.980469 216.558594 216.886719 C 224.652344 208.792969 228.699219 198.949219 228.699219 187.355469 C 228.699219 175.980469 224.652344 166.191406 216.558594 157.988281 C 208.464844 149.785156 198.621094 145.683594 187.027344 145.683594 C 175.214844 145.683594 165.316406 149.785156 157.332031 157.988281 C 149.347656 166.191406 145.355469 175.980469 145.355469 187.355469 C 145.355469 198.949219 149.347656 208.792969 157.332031 216.886719 C 165.316406 224.980469 175.214844 229.027344 187.027344 229.027344 Z M 187.027344 229.027344 " fill-opacity="1" fill-rule="nonzero"/></svg>