<svg xmlns="http://www.w3.org/2000/svg" xmlns:xlink="http://www.w3.org/1999/xlink" width="500" zoomAndPan="magnify" viewBox="0 0 375 374.999991" height="500" preserveAspectRatio="xMidYMid meet" version="1.0"><path fill="#ffffff" d="M 187.1875 311.5625 C 181.980469 311.5625 176.925781 310.574219 172.03125 308.59375 C 167.136719 306.613281 162.605469 303.75 158.4375 300 L 134.375 278.125 C 113.125 258.75 93.4375 238.644531 75.3125 217.8125 C 57.1875 196.980469 48.125 173.019531 48.125 145.9375 C 48.125 122.394531 55.988281 102.65625 71.71875 86.71875 C 87.449219 70.78125 107.082031 62.8125 130.625 62.8125 C 141.875 62.8125 152.292969 64.792969 161.875 68.75 C 171.457031 72.707031 179.894531 77.707031 187.1875 83.75 C 194.480469 77.707031 202.917969 72.707031 212.5 68.75 C 222.082031 64.792969 232.5 62.8125 243.75 62.8125 C 267.292969 62.8125 287.082031 70.78125 303.125 86.71875 C 319.167969 102.65625 327.1875 122.394531 327.1875 145.9375 C 327.1875 173.019531 317.96875 197.03125 299.53125 217.96875 C 281.09375 238.90625 261.144531 259.0625 239.6875 278.4375 L 216.25 300.3125 C 212.082031 304.0625 207.5 306.875 202.5 308.75 C 197.5 310.625 192.394531 311.5625 187.1875 311.5625 Z M 187.1875 311.5625 " fill-opacity="1" fill-rule="nonzero"/></svg>