<svg xmlns="http://www.w3.org/2000/svg" xmlns:xlink="http://www.w3.org/1999/xlink" width="500" zoomAndPan="magnify" viewBox="0 0 375 374.999991" height="500" preserveAspectRatio="xMidYMid meet" version="1.0"><path fill="#ffffff" d="M 187.1875 311.5625 C 181.980469 311.5625 176.929688 310.566406 172.042969 308.578125 C 167.15625 306.589844 162.621094 303.730469 158.4375 300 L 134.375 278.125 C 113.125 258.75 93.4375 238.644531 75.3125 217.8125 C 57.1875 196.980469 48.125 173.019531 48.125 145.9375 C 48.125 122.414062 55.996094 102.675781 71.738281 86.730469 C 87.480469 70.785156 107.058594 62.8125 130.472656 62.8125 C 141.824219 62.8125 152.292969 64.792969 161.875 68.75 C 171.457031 72.707031 179.894531 77.707031 187.1875 83.75 C 194.480469 77.707031 202.917969 72.707031 212.5 68.75 C 222.082031 64.792969 232.550781 62.8125 243.902344 62.8125 C 267.398438 62.8125 287.152344 70.785156 303.164062 86.730469 C 319.179688 102.675781 327.1875 122.414062 327.1875 145.9375 C 327.1875 173.019531 317.96875 197.03125 299.53125 217.96875 C 281.09375 238.90625 261.144531 259.0625 239.6875 278.4375 L 216.308594 300.253906 C 212.101562 304.042969 207.5 306.875 202.5 308.75 C 197.5 310.625 192.394531 311.5625 187.1875 311.5625 Z M 171.5625 129.375 C 167.8125 122.917969 162.277344 117.292969 154.960938 112.5 C 147.644531 107.707031 139.59375 105.3125 130.804688 105.3125 C 119.230469 105.3125 109.636719 109.167969 102.035156 116.875 C 94.429688 124.582031 90.625 134.328125 90.625 146.105469 C 90.625 156.636719 94.335938 167.761719 101.753906 179.492188 C 109.171875 191.21875 118.074219 202.707031 128.464844 213.945312 C 138.851562 225.1875 149.539062 235.628906 160.523438 245.269531 C 171.503906 254.914062 180.390625 262.84375 187.1875 269.0625 C 194.0625 262.605469 203.042969 254.515625 214.125 244.800781 C 225.207031 235.085938 235.9375 224.722656 246.3125 213.707031 C 256.6875 202.695312 265.675781 191.300781 273.28125 179.53125 C 280.886719 167.761719 284.6875 156.5625 284.6875 145.9375 C 284.6875 134.269531 280.765625 124.582031 272.921875 116.875 C 265.078125 109.167969 255.402344 105.3125 243.898438 105.3125 C 234.929688 105.3125 226.777344 107.707031 219.441406 112.5 C 212.105469 117.292969 206.667969 122.917969 203.125 129.375 C 201.1875 132.292969 198.839844 134.53125 196.078125 136.09375 C 193.316406 137.65625 190.320312 138.4375 187.085938 138.4375 C 183.996094 138.4375 181.160156 137.65625 178.574219 136.09375 C 175.992188 134.53125 173.652344 132.292969 171.5625 129.375 Z M 187.5 187.1875 Z M 187.5 187.1875 " fill-opacity="1" fill-rule="nonzero"/></svg>