<svg xmlns="http://www.w3.org/2000/svg" xmlns:xlink="http://www.w3.org/1999/xlink" width="500" zoomAndPan="magnify" viewBox="0 0 375 374.999991" height="500" preserveAspectRatio="xMidYMid meet" version="1.0"><path fill="#ffffff" d="M 166.035156 97.519531 C 160.070312 91.566406 157.085938 84.414062 157.085938 76.054688 C 157.085938 67.699219 160.0625 60.539062 166.011719 54.566406 C 171.964844 48.601562 179.117188 45.617188 187.472656 45.617188 C 195.832031 45.617188 202.992188 48.59375 208.964844 54.542969 C 214.929688 60.496094 217.914062 67.648438 217.914062 76.003906 C 217.914062 84.363281 214.9375 91.523438 208.988281 97.492188 C 203.035156 103.460938 195.882812 106.445312 187.527344 106.445312 C 179.167969 106.445312 172.007812 103.46875 166.035156 97.519531 Z M 142.753906 313.472656 L 142.753906 152.710938 C 132.042969 151.816406 121.28125 150.632812 110.46875 149.160156 C 99.660156 147.683594 88.949219 145.75 78.335938 143.363281 C 73.664062 142.3125 69.992188 139.75 67.328125 135.664062 C 64.664062 131.578125 63.96875 127.199219 65.246094 122.527344 C 66.519531 117.855469 69.3125 114.441406 73.628906 112.28125 C 77.945312 110.125 82.488281 109.570312 87.257812 110.617188 C 103.429688 114.054688 120.070312 116.507812 137.179688 117.984375 C 154.285156 119.457031 171.058594 120.195312 187.5 120.195312 C 203.941406 120.195312 220.746094 119.457031 237.917969 117.984375 C 255.089844 116.507812 271.828125 114.054688 288.128906 110.617188 C 292.902344 109.570312 297.402344 110.132812 301.628906 112.3125 C 305.855469 114.492188 308.628906 117.898438 309.949219 122.527344 C 311.226562 127.199219 310.496094 131.546875 307.769531 135.570312 C 305.039062 139.589844 301.335938 142.121094 296.664062 143.164062 C 286.050781 145.558594 275.339844 147.523438 264.53125 149.0625 C 253.71875 150.601562 242.957031 151.816406 232.246094 152.710938 L 232.246094 313.472656 C 232.246094 318.195312 230.648438 322.152344 227.457031 325.347656 C 224.261719 328.539062 220.304688 330.136719 215.585938 330.136719 C 210.859375 330.136719 206.902344 328.539062 203.707031 325.347656 C 200.515625 322.152344 198.917969 318.195312 198.917969 313.472656 L 198.917969 245.5 L 176.082031 245.5 L 176.082031 313.472656 C 176.082031 318.195312 174.484375 322.152344 171.292969 325.347656 C 168.097656 328.539062 164.140625 330.136719 159.414062 330.136719 C 154.695312 330.136719 150.738281 328.539062 147.542969 325.347656 C 144.351562 322.152344 142.753906 318.195312 142.753906 313.472656 Z M 142.753906 313.472656 " fill-opacity="1" fill-rule="nonzero"/></svg>