<svg xmlns="http://www.w3.org/2000/svg" xmlns:xlink="http://www.w3.org/1999/xlink" width="500" zoomAndPan="magnify" viewBox="0 0 375 374.999991" height="500" preserveAspectRatio="xMidYMid meet" version="1.0"><path fill="#ffffff" d="M 94.796875 324.257812 C 84.90625 324.257812 74.542969 321.660156 63.710938 316.464844 C 52.878906 311.269531 43.203125 302.734375 34.6875 290.859375 C 44.453125 288.90625 51.660156 285.675781 56.308594 281.164062 C 60.957031 276.652344 63.554688 269.644531 64.101562 260.148438 C 64.960938 248.472656 69.625 238.523438 78.089844 230.300781 C 86.558594 222.082031 97.257812 217.96875 110.183594 217.96875 C 123.175781 217.96875 134.132812 222.4375 143.058594 231.378906 C 151.984375 240.320312 156.445312 251.175781 156.445312 263.945312 C 156.445312 281.183594 150.476562 295.546875 138.53125 307.03125 C 126.585938 318.515625 112.007812 324.257812 94.796875 324.257812 Z M 94.789062 293.90625 C 102.679688 293.90625 109.753906 290.976562 116.007812 285.113281 C 122.261719 279.253906 125.390625 272.300781 125.390625 264.257812 C 125.390625 259.804688 123.964844 256.152344 121.113281 253.300781 C 118.261719 250.449219 114.609375 249.023438 110.15625 249.023438 C 105.703125 249.023438 102.03125 250.449219 99.140625 253.300781 C 96.25 256.152344 94.804688 259.804688 94.804688 264.257812 C 94.804688 271.972656 93.945312 278.101562 92.226562 282.640625 C 90.507812 287.183594 87.421875 290.40625 82.96875 292.316406 C 84.296875 292.359375 86.328125 292.636719 89.0625 293.144531 C 91.796875 293.652344 93.707031 293.90625 94.789062 293.90625 Z M 184.21875 234.375 L 140.976562 189.960938 L 284.792969 46.171875 C 287.664062 43.28125 291.054688 41.679688 294.96875 41.367188 C 298.886719 41.054688 302.515625 42.65625 305.859375 46.171875 L 328.476562 68.4375 C 331.757812 71.71875 333.320312 75.351562 333.164062 79.335938 C 333.007812 83.320312 331.445312 86.875 328.476562 90 Z M 110.390625 264.257812 Z M 110.390625 264.257812 " fill-opacity="1" fill-rule="nonzero"/></svg>