<svg xmlns="http://www.w3.org/2000/svg" xmlns:xlink="http://www.w3.org/1999/xlink" width="500" zoomAndPan="magnify" viewBox="0 0 375 374.999991" height="500" preserveAspectRatio="xMidYMid meet" version="1.0"><path fill="#ffffff" d="M 94.804688 324.257812 C 84.882812 324.257812 74.511719 321.660156 63.691406 316.464844 C 52.871094 311.269531 43.203125 302.734375 34.6875 290.859375 C 44.453125 288.90625 51.660156 285.675781 56.308594 281.164062 C 60.957031 276.652344 63.554688 269.644531 64.101562 260.148438 C 64.960938 248.316406 69.628906 238.332031 78.105469 230.1875 C 86.582031 222.042969 97.28125 217.96875 110.199219 217.96875 C 123.179688 217.96875 134.132812 222.421875 143.058594 231.320312 C 151.984375 240.226562 156.445312 251.152344 156.445312 264.105469 C 156.445312 281.238281 150.46875 295.546875 138.507812 307.03125 C 126.550781 318.515625 111.984375 324.257812 94.804688 324.257812 Z M 184.21875 234.375 L 140.976562 189.960938 L 284.792969 46.171875 C 287.664062 43.28125 291.054688 41.679688 294.96875 41.367188 C 298.886719 41.054688 302.515625 42.65625 305.859375 46.171875 L 328.476562 68.4375 C 331.757812 71.71875 333.320312 75.351562 333.164062 79.335938 C 333.007812 83.320312 331.445312 86.875 328.476562 90 Z M 184.21875 234.375 " fill-opacity="1" fill-rule="nonzero"/></svg>