<svg xmlns="http://www.w3.org/2000/svg" xmlns:xlink="http://www.w3.org/1999/xlink" width="500" zoomAndPan="magnify" viewBox="0 0 375 374.999991" height="500" preserveAspectRatio="xMidYMid meet" version="1.0"><defs><clipPath id="26817c704a"><path d="M 65.566406 65.566406 L 309.316406 65.566406 L 309.316406 309.316406 L 65.566406 309.316406 Z M 65.566406 65.566406 " clip-rule="nonzero"/></clipPath></defs><g clip-path="url(#26817c704a)"><path fill="#ffffff" d="M 136.96875 66.421875 C 124 67.035156 115.144531 69.101562 107.402344 72.144531 C 99.390625 75.265625 92.601562 79.457031 85.84375 86.238281 C 79.085938 93.019531 74.925781 99.816406 71.824219 107.839844 C 68.824219 115.597656 66.792969 124.460938 66.21875 137.4375 C 65.644531 150.410156 65.519531 154.582031 65.582031 187.675781 C 65.644531 220.773438 65.792969 224.921875 66.421875 237.925781 C 67.039062 250.890625 69.101562 259.742188 72.144531 267.484375 C 75.273438 275.496094 79.457031 282.285156 86.242188 289.046875 C 93.023438 295.804688 99.816406 299.957031 107.859375 303.0625 C 115.609375 306.058594 124.476562 308.097656 137.449219 308.667969 C 150.421875 309.234375 154.59375 309.367188 187.683594 309.304688 C 220.769531 309.242188 224.933594 309.09375 237.933594 308.476562 C 250.933594 307.859375 259.738281 305.785156 267.484375 302.757812 C 275.496094 299.621094 282.292969 295.445312 289.046875 288.65625 C 295.800781 281.871094 299.957031 275.070312 303.054688 267.042969 C 306.058594 259.292969 308.097656 250.425781 308.664062 237.464844 C 309.230469 224.453125 309.363281 220.300781 309.300781 187.210938 C 309.238281 154.117188 309.089844 149.96875 308.472656 136.972656 C 307.855469 123.976562 305.792969 115.148438 302.75 107.402344 C 299.621094 99.386719 295.4375 92.605469 288.65625 85.839844 C 281.875 79.078125 275.070312 74.921875 267.042969 71.832031 C 259.289062 68.828125 250.429688 66.785156 237.457031 66.222656 C 224.484375 65.664062 220.308594 65.519531 187.210938 65.582031 C 154.109375 65.644531 149.964844 65.789062 136.96875 66.421875 M 138.390625 286.742188 C 126.507812 286.226562 120.054688 284.25 115.757812 282.597656 C 110.0625 280.40625 106.007812 277.753906 101.722656 273.507812 C 97.4375 269.265625 94.804688 265.195312 92.582031 259.511719 C 90.910156 255.214844 88.898438 248.769531 88.34375 236.886719 C 87.738281 224.042969 87.613281 220.1875 87.542969 187.648438 C 87.472656 155.109375 87.597656 151.257812 88.160156 138.410156 C 88.667969 126.539062 90.652344 120.078125 92.304688 115.78125 C 94.496094 110.078125 97.140625 106.03125 101.390625 101.75 C 105.644531 97.464844 109.703125 94.828125 115.390625 92.605469 C 119.6875 90.929688 126.128906 88.933594 138.007812 88.367188 C 150.859375 87.757812 154.710938 87.636719 187.246094 87.566406 C 219.777344 87.496094 223.640625 87.617188 236.496094 88.183594 C 248.371094 88.699219 254.832031 90.667969 259.125 92.328125 C 264.820312 94.519531 268.875 97.15625 273.15625 101.417969 C 277.441406 105.675781 280.082031 109.722656 282.304688 115.421875 C 283.984375 119.703125 285.976562 126.144531 286.539062 138.03125 C 287.148438 150.882812 287.289062 154.738281 287.347656 187.269531 C 287.40625 219.796875 287.289062 223.664062 286.726562 236.503906 C 286.207031 248.386719 284.238281 254.84375 282.582031 259.148438 C 280.390625 264.839844 277.746094 268.898438 273.488281 273.175781 C 269.234375 277.457031 265.179688 280.09375 259.492188 282.316406 C 255.199219 283.992188 248.75 285.992188 236.878906 286.558594 C 224.027344 287.160156 220.175781 287.289062 187.632812 287.359375 C 155.085938 287.429688 151.246094 287.296875 138.394531 286.742188 M 237.746094 122.304688 C 237.746094 123.265625 237.84375 124.21875 238.03125 125.160156 C 238.222656 126.101562 238.5 127.015625 238.867188 127.902344 C 239.238281 128.789062 239.691406 129.628906 240.226562 130.425781 C 240.757812 131.226562 241.367188 131.964844 242.046875 132.640625 C 242.726562 133.320312 243.46875 133.921875 244.265625 134.457031 C 245.066406 134.988281 245.910156 135.4375 246.796875 135.804688 C 247.6875 136.167969 248.601562 136.445312 249.542969 136.628906 C 250.484375 136.816406 251.4375 136.910156 252.398438 136.90625 C 253.355469 136.90625 254.308594 136.808594 255.25 136.621094 C 256.191406 136.429688 257.105469 136.152344 257.992188 135.785156 C 258.878906 135.414062 259.722656 134.960938 260.519531 134.425781 C 261.316406 133.890625 262.054688 133.285156 262.730469 132.605469 C 263.410156 131.921875 264.015625 131.183594 264.546875 130.382812 C 265.078125 129.585938 265.527344 128.742188 265.894531 127.851562 C 266.257812 126.964844 266.535156 126.050781 266.71875 125.109375 C 266.90625 124.164062 266.996094 123.214844 266.996094 122.253906 C 266.996094 121.292969 266.898438 120.34375 266.710938 119.402344 C 266.519531 118.460938 266.242188 117.546875 265.871094 116.660156 C 265.503906 115.773438 265.050781 114.929688 264.515625 114.132812 C 263.980469 113.335938 263.371094 112.597656 262.691406 111.921875 C 262.011719 111.242188 261.273438 110.636719 260.472656 110.105469 C 259.671875 109.574219 258.828125 109.125 257.941406 108.757812 C 257.054688 108.394531 256.136719 108.117188 255.195312 107.933594 C 254.253906 107.746094 253.300781 107.65625 252.339844 107.65625 C 251.382812 107.660156 250.429688 107.753906 249.488281 107.941406 C 248.546875 108.132812 247.632812 108.410156 246.75 108.78125 C 245.863281 109.148438 245.019531 109.601562 244.222656 110.136719 C 243.425781 110.671875 242.6875 111.277344 242.011719 111.960938 C 241.332031 112.640625 240.726562 113.378906 240.195312 114.179688 C 239.664062 114.976562 239.214844 115.820312 238.847656 116.707031 C 238.484375 117.597656 238.207031 118.511719 238.023438 119.453125 C 237.835938 120.394531 237.746094 121.347656 237.746094 122.304688 M 124.867188 187.566406 C 124.933594 222.128906 153.003906 250.085938 187.558594 250.019531 C 222.117188 249.953125 250.09375 221.886719 250.027344 187.320312 C 249.960938 152.757812 221.882812 124.792969 187.320312 124.863281 C 152.761719 124.929688 124.800781 153.007812 124.867188 187.566406 M 146.816406 187.519531 C 146.816406 186.191406 146.878906 184.863281 147.003906 183.539062 C 147.132812 182.214844 147.324219 180.898438 147.582031 179.59375 C 147.839844 178.289062 148.160156 177 148.542969 175.726562 C 148.925781 174.449219 149.371094 173.199219 149.878906 171.96875 C 150.386719 170.738281 150.953125 169.535156 151.578125 168.359375 C 152.203125 167.1875 152.882812 166.046875 153.621094 164.9375 C 154.355469 163.828125 155.144531 162.761719 155.988281 161.730469 C 156.832031 160.699219 157.71875 159.714844 158.660156 158.769531 C 159.597656 157.828125 160.582031 156.933594 161.609375 156.085938 C 162.636719 155.242188 163.699219 154.449219 164.804688 153.707031 C 165.910156 152.964844 167.050781 152.28125 168.222656 151.648438 C 169.394531 151.019531 170.59375 150.449219 171.820312 149.9375 C 173.050781 149.425781 174.300781 148.976562 175.574219 148.585938 C 176.847656 148.199219 178.132812 147.875 179.4375 147.613281 C 180.742188 147.347656 182.058594 147.152344 183.382812 147.019531 C 184.707031 146.886719 186.03125 146.816406 187.363281 146.816406 C 188.695312 146.8125 190.019531 146.875 191.34375 147.003906 C 192.667969 147.128906 193.984375 147.324219 195.289062 147.582031 C 196.59375 147.835938 197.886719 148.15625 199.160156 148.542969 C 200.433594 148.925781 201.683594 149.371094 202.914062 149.875 C 204.144531 150.382812 205.347656 150.949219 206.523438 151.574219 C 207.699219 152.199219 208.839844 152.878906 209.945312 153.617188 C 211.054688 154.355469 212.125 155.144531 213.152344 155.984375 C 214.183594 156.828125 215.171875 157.71875 216.113281 158.65625 C 217.054688 159.597656 217.949219 160.578125 218.796875 161.605469 C 219.640625 162.632812 220.4375 163.699219 221.175781 164.804688 C 221.917969 165.910156 222.605469 167.046875 223.234375 168.21875 C 223.863281 169.390625 224.433594 170.589844 224.945312 171.820312 C 225.457031 173.046875 225.90625 174.296875 226.296875 175.570312 C 226.683594 176.84375 227.011719 178.132812 227.273438 179.4375 C 227.535156 180.742188 227.730469 182.054688 227.867188 183.378906 C 228 184.703125 228.066406 186.03125 228.070312 187.359375 C 228.070312 188.691406 228.007812 190.019531 227.882812 191.34375 C 227.753906 192.667969 227.5625 193.980469 227.304688 195.289062 C 227.046875 196.59375 226.726562 197.882812 226.34375 199.15625 C 225.960938 200.429688 225.515625 201.683594 225.007812 202.914062 C 224.5 204.144531 223.933594 205.347656 223.308594 206.519531 C 222.683594 207.695312 222.003906 208.835938 221.265625 209.945312 C 220.53125 211.050781 219.742188 212.121094 218.898438 213.152344 C 218.054688 214.179688 217.164062 215.167969 216.226562 216.109375 C 215.289062 217.054688 214.304688 217.949219 213.277344 218.792969 C 212.25 219.640625 211.183594 220.433594 210.082031 221.175781 C 208.976562 221.917969 207.835938 222.601562 206.664062 223.230469 C 205.492188 223.859375 204.292969 224.433594 203.0625 224.945312 C 201.835938 225.453125 200.585938 225.90625 199.3125 226.292969 C 198.039062 226.683594 196.753906 227.007812 195.449219 227.269531 C 194.144531 227.53125 192.828125 227.730469 191.503906 227.863281 C 190.179688 227.996094 188.855469 228.0625 187.523438 228.066406 C 186.191406 228.070312 184.867188 228.007812 183.542969 227.878906 C 182.214844 227.75 180.902344 227.558594 179.597656 227.300781 C 178.289062 227.046875 177 226.726562 175.726562 226.34375 C 174.453125 225.957031 173.199219 225.511719 171.96875 225.007812 C 170.738281 224.5 169.539062 223.933594 168.363281 223.308594 C 167.1875 222.683594 166.046875 222.003906 164.9375 221.265625 C 163.832031 220.527344 162.761719 219.738281 161.730469 218.898438 C 160.703125 218.054688 159.714844 217.164062 158.773438 216.226562 C 157.828125 215.285156 156.933594 214.304688 156.089844 213.277344 C 155.242188 212.25 154.449219 211.183594 153.707031 210.078125 C 152.964844 208.972656 152.28125 207.835938 151.652344 206.664062 C 151.023438 205.492188 150.449219 204.292969 149.9375 203.0625 C 149.429688 201.835938 148.976562 200.585938 148.589844 199.3125 C 148.199219 198.039062 147.875 196.75 147.613281 195.445312 C 147.351562 194.140625 147.152344 192.828125 147.019531 191.503906 C 146.886719 190.179688 146.820312 188.851562 146.816406 187.519531 " fill-opacity="1" fill-rule="nonzero"/></g></svg>