<svg xmlns="http://www.w3.org/2000/svg" xmlns:xlink="http://www.w3.org/1999/xlink" width="500" zoomAndPan="magnify" viewBox="0 0 375 374.999991" height="500" preserveAspectRatio="xMidYMid meet" version="1.0"><defs><clipPath id="8301ec5029"><path d="M 80.152344 56.589844 L 294.652344 56.589844 L 294.652344 318.339844 L 80.152344 318.339844 Z M 80.152344 56.589844 " clip-rule="nonzero"/></clipPath></defs><g clip-path="url(#8301ec5029)"><path fill="#ffffff" d="M 80.839844 145.269531 L 145.632812 145.269531 L 99.3125 101.332031 L 124.75 75.613281 L 168.660156 120.351562 L 168.660156 56.589844 L 206.679688 56.589844 L 206.679688 120.351562 L 250.59375 75.613281 L 276.027344 101.332031 L 229.707031 145 L 294.503906 145 L 294.503906 181.167969 L 229.441406 181.167969 L 275.761719 225.910156 L 250.324219 251.09375 L 187.402344 188.132812 L 124.480469 251.363281 L 99.046875 225.910156 L 145.367188 181.167969 L 80.304688 181.167969 L 80.304688 145.269531 Z M 168.929688 232.875 L 206.949219 232.875 L 206.949219 318.609375 L 168.929688 318.609375 Z M 168.929688 232.875 " fill-opacity="1" fill-rule="nonzero"/></g></svg>