<svg xmlns="http://www.w3.org/2000/svg" xmlns:xlink="http://www.w3.org/1999/xlink" width="500" zoomAndPan="magnify" viewBox="0 0 375 374.999991" height="500" preserveAspectRatio="xMidYMid meet" version="1.0"><path fill="#ffffff" d="M 101.578125 281.382812 C 75.582031 281.382812 53.410156 272.210938 35.066406 253.867188 C 16.722656 235.523438 7.550781 213.351562 7.550781 187.355469 C 7.550781 161.363281 16.722656 139.191406 35.066406 120.847656 C 53.410156 102.503906 75.582031 93.332031 101.578125 93.332031 L 143.832031 93.332031 C 150.148438 93.332031 155.515625 95.542969 159.933594 99.964844 C 164.355469 104.382812 166.5625 109.75 166.5625 116.066406 C 166.5625 122.382812 164.355469 127.75 159.933594 132.171875 C 155.515625 136.585938 150.148438 138.796875 143.832031 138.796875 L 101.578125 138.796875 C 88.089844 138.796875 76.621094 143.515625 67.179688 152.960938 C 57.734375 162.402344 53.015625 173.871094 53.015625 187.355469 C 53.015625 200.84375 57.734375 212.3125 67.179688 221.753906 C 76.621094 231.199219 88.089844 235.917969 101.578125 235.917969 L 143.832031 235.917969 C 150.148438 235.917969 155.515625 238.128906 159.933594 242.542969 C 164.355469 246.964844 166.5625 252.332031 166.5625 258.648438 C 166.5625 264.964844 164.355469 270.332031 159.933594 274.75 C 155.515625 279.171875 150.148438 281.382812 143.832031 281.382812 Z M 132.25 206.453125 C 126.90625 206.453125 122.386719 204.605469 118.695312 200.914062 C 115.003906 197.222656 113.15625 192.703125 113.15625 187.355469 C 113.15625 182.011719 115.003906 177.492188 118.695312 173.800781 C 122.386719 170.109375 126.90625 168.261719 132.25 168.261719 L 242.464844 168.261719 C 247.808594 168.261719 252.328125 170.109375 256.019531 173.800781 C 259.710938 177.492188 261.558594 182.011719 261.558594 187.355469 C 261.558594 192.703125 259.710938 197.222656 256.019531 200.914062 C 252.328125 204.605469 247.808594 206.453125 242.464844 206.453125 Z M 230.882812 281.382812 C 224.566406 281.382812 219.199219 279.171875 214.78125 274.75 C 210.359375 270.332031 208.152344 264.964844 208.152344 258.648438 C 208.152344 252.332031 210.359375 246.964844 214.78125 242.542969 C 219.199219 238.128906 224.566406 235.917969 230.882812 235.917969 L 273.140625 235.917969 C 286.625 235.917969 298.09375 231.199219 307.535156 221.753906 C 316.980469 212.3125 321.699219 200.84375 321.699219 187.359375 C 321.699219 173.871094 316.980469 162.402344 307.535156 152.960938 C 298.09375 143.515625 286.625 138.796875 273.140625 138.796875 L 230.882812 138.796875 C 224.566406 138.796875 219.199219 136.585938 214.78125 132.171875 C 210.359375 127.75 208.152344 122.382812 208.152344 116.066406 C 208.152344 109.75 210.359375 104.382812 214.78125 99.964844 C 219.199219 95.542969 224.566406 93.332031 230.882812 93.332031 L 273.140625 93.332031 C 299.132812 93.332031 321.304688 102.503906 339.648438 120.847656 C 357.992188 139.191406 367.164062 161.363281 367.164062 187.359375 C 367.164062 213.351562 357.992188 235.523438 339.648438 253.867188 C 321.304688 272.210938 299.132812 281.382812 273.140625 281.382812 Z M 230.882812 281.382812 " fill-opacity="1" fill-rule="nonzero"/></svg>