<svg xmlns="http://www.w3.org/2000/svg" xmlns:xlink="http://www.w3.org/1999/xlink" width="500" zoomAndPan="magnify" viewBox="0 0 375 374.999991" height="500" preserveAspectRatio="xMidYMid meet" version="1.0"><path fill="#ffffff" d="M 202.664062 317.855469 C 197.601562 317.855469 193.300781 316.085938 189.757812 312.542969 C 186.214844 309 184.445312 304.699219 184.445312 299.636719 C 184.445312 294.574219 186.214844 290.273438 189.757812 286.730469 C 193.300781 283.191406 197.601562 281.417969 202.664062 281.417969 L 279.917969 281.417969 L 279.917969 93.582031 L 202.664062 93.582031 C 197.601562 93.582031 193.300781 91.808594 189.757812 88.269531 C 186.214844 84.726562 184.445312 80.425781 184.445312 75.363281 C 184.445312 70.300781 186.214844 66 189.757812 62.457031 C 193.300781 58.914062 197.601562 57.144531 202.664062 57.144531 L 279.917969 57.144531 C 290.070312 57.144531 298.683594 60.679688 305.753906 67.746094 C 312.820312 74.816406 316.355469 83.429688 316.355469 93.582031 L 316.355469 281.417969 C 316.355469 291.570312 312.820312 300.183594 305.753906 307.253906 C 298.683594 314.320312 290.070312 317.855469 279.917969 317.855469 Z M 159.5 205.71875 L 73.863281 205.71875 C 68.800781 205.71875 64.5 203.949219 60.957031 200.40625 C 57.414062 196.863281 55.644531 192.5625 55.644531 187.5 C 55.644531 182.4375 57.414062 178.136719 60.957031 174.59375 C 64.5 171.050781 68.800781 169.28125 73.863281 169.28125 L 159.5 169.28125 L 138.1875 147.96875 C 134.757812 144.539062 133.046875 140.34375 133.046875 135.382812 C 133.046875 130.421875 134.757812 126.179688 138.1875 122.652344 C 141.617188 118.992188 145.828125 117.140625 150.824219 117.089844 C 155.820312 117.042969 160.148438 118.84375 163.804688 122.5 L 216.070312 174.765625 C 219.597656 178.421875 221.363281 182.667969 221.363281 187.5 C 221.363281 192.332031 219.597656 196.578125 216.070312 200.234375 L 163.804688 252.5 C 160.277344 256.15625 156.007812 257.957031 150.996094 257.910156 C 145.984375 257.859375 141.714844 256.007812 138.1875 252.347656 C 134.757812 248.820312 133.070312 244.550781 133.121094 239.539062 C 133.171875 234.527344 134.910156 230.308594 138.339844 226.882812 Z M 159.5 205.71875 " fill-opacity="1" fill-rule="nonzero"/></svg>