<svg xmlns="http://www.w3.org/2000/svg" xmlns:xlink="http://www.w3.org/1999/xlink" width="500" zoomAndPan="magnify" viewBox="0 0 375 374.999991" height="500" preserveAspectRatio="xMidYMid meet" version="1.0"><path fill="#ffffff" d="M 67.335938 311.929688 C 62.503906 311.929688 58.398438 310.242188 55.015625 306.859375 C 51.632812 303.476562 49.945312 299.371094 49.945312 294.539062 C 49.945312 289.707031 51.632812 285.601562 55.015625 282.21875 C 58.398438 278.839844 62.503906 277.148438 67.335938 277.148438 L 170.109375 277.148438 L 170.109375 133.632812 C 164.917969 131.414062 160.425781 128.382812 156.644531 124.535156 C 152.855469 120.6875 149.855469 116.167969 147.640625 110.976562 L 113.203125 110.976562 L 146.144531 188.210938 C 147.605469 191.359375 148.480469 194.625 148.761719 198.007812 C 149.042969 201.386719 148.902344 204.761719 148.339844 208.128906 C 146.371094 218.8125 140.398438 227.164062 130.429688 233.1875 C 120.457031 239.210938 110.363281 242.226562 100.148438 242.226562 C 89.933594 242.226562 79.839844 239.210938 69.867188 233.1875 C 59.894531 227.164062 53.921875 218.8125 51.953125 208.128906 C 51.394531 204.761719 51.253906 201.386719 51.535156 198.007812 C 51.816406 194.625 52.6875 191.359375 54.152344 188.210938 L 87.277344 110.976562 L 80.460938 110.976562 C 75.628906 110.976562 71.523438 109.285156 68.140625 105.90625 C 64.757812 102.523438 63.070312 98.417969 63.070312 93.585938 C 63.070312 88.753906 64.757812 84.648438 68.140625 81.265625 C 71.523438 77.882812 75.628906 76.195312 80.460938 76.195312 L 147.640625 76.195312 C 150.882812 68.289062 156.082031 61.941406 163.230469 57.140625 C 170.386719 52.34375 178.472656 49.945312 187.5 49.945312 C 196.527344 49.945312 204.613281 52.34375 211.769531 57.140625 C 218.917969 61.941406 224.117188 68.289062 227.359375 76.195312 L 294.539062 76.195312 C 299.371094 76.195312 303.476562 77.882812 306.859375 81.265625 C 310.242188 84.648438 311.929688 88.753906 311.929688 93.585938 C 311.929688 98.417969 310.242188 102.523438 306.859375 105.90625 C 303.476562 109.285156 299.371094 110.976562 294.539062 110.976562 L 287.722656 110.976562 L 320.847656 188.210938 C 322.3125 191.359375 323.183594 194.625 323.464844 198.007812 C 323.746094 201.386719 323.605469 204.761719 323.046875 208.128906 C 321.078125 218.8125 315.105469 227.164062 305.132812 233.1875 C 295.160156 239.210938 285.066406 242.226562 274.851562 242.226562 C 264.636719 242.226562 254.542969 239.210938 244.570312 233.1875 C 234.601562 227.164062 228.628906 218.8125 226.660156 208.128906 C 226.097656 204.761719 225.957031 201.386719 226.238281 198.007812 C 226.519531 194.625 227.394531 191.359375 228.855469 188.210938 L 261.796875 110.976562 L 227.359375 110.976562 C 225.144531 116.167969 222.144531 120.6875 218.355469 124.535156 C 214.574219 128.382812 210.082031 131.414062 204.890625 133.632812 L 204.890625 277.148438 L 307.664062 277.148438 C 312.496094 277.148438 316.601562 278.839844 319.984375 282.21875 C 323.367188 285.601562 325.054688 289.707031 325.054688 294.539062 C 325.054688 299.371094 323.367188 303.476562 319.984375 306.859375 C 316.601562 310.242188 312.496094 311.929688 307.664062 311.929688 Z M 253.027344 195.800781 L 296.679688 195.800781 L 274.851562 145.203125 Z M 78.507812 195.800781 L 122.160156 195.800781 L 100.148438 145.203125 Z M 187.5 105.414062 C 190.847656 105.414062 193.625 104.246094 195.832031 101.914062 C 198.039062 99.585938 199.140625 96.808594 199.140625 93.585938 C 199.140625 90.238281 198.039062 87.460938 195.832031 85.253906 C 193.625 83.046875 190.847656 81.941406 187.5 81.941406 C 184.277344 81.941406 181.527344 83.046875 179.261719 85.253906 C 176.992188 87.460938 175.859375 90.238281 175.859375 93.585938 C 175.859375 96.808594 176.992188 99.585938 179.261719 101.914062 C 181.527344 104.246094 184.277344 105.414062 187.5 105.414062 Z M 187.5 105.414062 " fill-opacity="1" fill-rule="nonzero"/></svg>