<svg xmlns="http://www.w3.org/2000/svg" xmlns:xlink="http://www.w3.org/1999/xlink" width="500" zoomAndPan="magnify" viewBox="0 0 375 374.999991" height="500" preserveAspectRatio="xMidYMid meet" version="1.0"><path fill="#ffffff" d="M 69.199219 307.359375 L 226.523438 307.359375 C 231.839844 307.359375 236.3125 309.171875 239.9375 312.796875 C 243.5625 316.421875 245.375 320.894531 245.375 326.210938 C 245.375 331.285156 243.5625 335.757812 239.9375 339.625 C 236.3125 343.492188 231.839844 345.421875 226.523438 345.421875 L 68.835938 345.421875 C 63.761719 345.421875 59.351562 343.492188 55.605469 339.625 C 51.859375 335.757812 49.984375 331.285156 49.984375 326.210938 C 49.984375 320.894531 51.917969 316.421875 55.785156 312.796875 C 59.652344 309.171875 64.125 307.359375 69.199219 307.359375 Z M 109.4375 239.9375 L 82.25 212.75 C 72.582031 203.082031 67.75 191.542969 67.75 178.128906 C 67.75 164.71875 72.582031 153.058594 82.25 143.148438 L 92.398438 132.636719 L 189.546875 229.421875 L 179.035156 239.9375 C 169.371094 249.601562 157.769531 254.4375 144.234375 254.4375 C 130.703125 254.4375 119.101562 249.601562 109.4375 239.9375 Z M 255.523438 162.722656 L 158.734375 65.574219 L 169.25 55.0625 C 179.15625 45.636719 190.757812 40.921875 204.046875 40.921875 C 217.339844 40.921875 228.820312 45.757812 238.484375 55.421875 L 266.035156 82.609375 C 275.945312 92.277344 280.898438 103.878906 280.898438 117.410156 C 280.898438 130.945312 275.945312 142.542969 266.035156 152.210938 Z M 296.125 304.460938 L 108.710938 117.046875 L 143.148438 81.886719 L 330.5625 270.023438 C 335.394531 274.617188 337.8125 280.292969 337.8125 287.0625 C 337.8125 293.828125 335.394531 299.628906 330.5625 304.460938 C 325.726562 309.054688 319.988281 311.410156 313.34375 311.53125 C 306.695312 311.652344 300.957031 309.292969 296.125 304.460938 Z M 296.125 304.460938 " fill-opacity="1" fill-rule="nonzero"/></svg>