<svg xmlns="http://www.w3.org/2000/svg" xmlns:xlink="http://www.w3.org/1999/xlink" width="500" zoomAndPan="magnify" viewBox="0 0 375 374.999991" height="500" preserveAspectRatio="xMidYMid meet" version="1.0"><defs><clipPath id="ca554478ce"><path d="M 63.605469 161.328125 L 311.410156 161.328125 L 311.410156 213.671875 L 63.605469 213.671875 Z M 63.605469 161.328125 " clip-rule="nonzero"/></clipPath><clipPath id="32566f8aef"><path d="M 89.777344 161.328125 L 285.222656 161.328125 C 292.164062 161.328125 298.820312 164.085938 303.730469 168.996094 C 308.636719 173.902344 311.394531 180.558594 311.394531 187.5 C 311.394531 194.441406 308.636719 201.097656 303.730469 206.003906 C 298.820312 210.914062 292.164062 213.671875 285.222656 213.671875 L 89.777344 213.671875 C 82.835938 213.671875 76.179688 210.914062 71.269531 206.003906 C 66.363281 201.097656 63.605469 194.441406 63.605469 187.5 C 63.605469 180.558594 66.363281 173.902344 71.269531 168.996094 C 76.179688 164.085938 82.835938 161.328125 89.777344 161.328125 Z M 89.777344 161.328125 " clip-rule="nonzero"/></clipPath><clipPath id="abbb3c6611"><path d="M 0.605469 0.328125 L 248.410156 0.328125 L 248.410156 52.671875 L 0.605469 52.671875 Z M 0.605469 0.328125 " clip-rule="nonzero"/></clipPath><clipPath id="426e7e5047"><path d="M 26.777344 0.328125 L 222.222656 0.328125 C 229.164062 0.328125 235.820312 3.085938 240.730469 7.996094 C 245.636719 12.902344 248.394531 19.558594 248.394531 26.5 C 248.394531 33.441406 245.636719 40.097656 240.730469 45.003906 C 235.820312 49.914062 229.164062 52.671875 222.222656 52.671875 L 26.777344 52.671875 C 19.835938 52.671875 13.179688 49.914062 8.269531 45.003906 C 3.363281 40.097656 0.605469 33.441406 0.605469 26.5 C 0.605469 19.558594 3.363281 12.902344 8.269531 7.996094 C 13.179688 3.085938 19.835938 0.328125 26.777344 0.328125 Z M 26.777344 0.328125 " clip-rule="nonzero"/></clipPath><clipPath id="300d3f588c"><rect x="0" width="249" y="0" height="53"/></clipPath><clipPath id="bb579a7d45"><path d="M 63.605469 246.480469 L 311.410156 246.480469 L 311.410156 298.820312 L 63.605469 298.820312 Z M 63.605469 246.480469 " clip-rule="nonzero"/></clipPath><clipPath id="18374d94ad"><path d="M 89.777344 246.480469 L 285.222656 246.480469 C 292.164062 246.480469 298.820312 249.238281 303.730469 254.144531 C 308.636719 259.050781 311.394531 265.710938 311.394531 272.648438 C 311.394531 279.589844 308.636719 286.246094 303.730469 291.15625 C 298.820312 296.0625 292.164062 298.820312 285.222656 298.820312 L 89.777344 298.820312 C 82.835938 298.820312 76.179688 296.0625 71.269531 291.15625 C 66.363281 286.246094 63.605469 279.589844 63.605469 272.648438 C 63.605469 265.710938 66.363281 259.050781 71.269531 254.144531 C 76.179688 249.238281 82.835938 246.480469 89.777344 246.480469 Z M 89.777344 246.480469 " clip-rule="nonzero"/></clipPath><clipPath id="feec43615c"><path d="M 0.605469 0.480469 L 248.410156 0.480469 L 248.410156 52.820312 L 0.605469 52.820312 Z M 0.605469 0.480469 " clip-rule="nonzero"/></clipPath><clipPath id="583a420427"><path d="M 26.777344 0.480469 L 222.222656 0.480469 C 229.164062 0.480469 235.820312 3.238281 240.730469 8.144531 C 245.636719 13.050781 248.394531 19.710938 248.394531 26.648438 C 248.394531 33.589844 245.636719 40.246094 240.730469 45.15625 C 235.820312 50.0625 229.164062 52.820312 222.222656 52.820312 L 26.777344 52.820312 C 19.835938 52.820312 13.179688 50.0625 8.269531 45.15625 C 3.363281 40.246094 0.605469 33.589844 0.605469 26.648438 C 0.605469 19.710938 3.363281 13.050781 8.269531 8.144531 C 13.179688 3.238281 19.835938 0.480469 26.777344 0.480469 Z M 26.777344 0.480469 " clip-rule="nonzero"/></clipPath><clipPath id="975ccb7907"><rect x="0" width="249" y="0" height="53"/></clipPath><clipPath id="d2d919c9bf"><path d="M 63.605469 75.988281 L 311.410156 75.988281 L 311.410156 128.328125 L 63.605469 128.328125 Z M 63.605469 75.988281 " clip-rule="nonzero"/></clipPath><clipPath id="11789e710a"><path d="M 89.777344 75.988281 L 285.222656 75.988281 C 292.164062 75.988281 298.820312 78.746094 303.730469 83.652344 C 308.636719 88.5625 311.394531 95.21875 311.394531 102.160156 C 311.394531 109.097656 308.636719 115.757812 303.730469 120.664062 C 298.820312 125.570312 292.164062 128.328125 285.222656 128.328125 L 89.777344 128.328125 C 82.835938 128.328125 76.179688 125.570312 71.269531 120.664062 C 66.363281 115.757812 63.605469 109.097656 63.605469 102.160156 C 63.605469 95.21875 66.363281 88.5625 71.269531 83.652344 C 76.179688 78.746094 82.835938 75.988281 89.777344 75.988281 Z M 89.777344 75.988281 " clip-rule="nonzero"/></clipPath><clipPath id="f9a38dd0fe"><path d="M 0.605469 0.988281 L 248.410156 0.988281 L 248.410156 53.328125 L 0.605469 53.328125 Z M 0.605469 0.988281 " clip-rule="nonzero"/></clipPath><clipPath id="7b3b909135"><path d="M 26.777344 0.988281 L 222.222656 0.988281 C 229.164062 0.988281 235.820312 3.746094 240.730469 8.652344 C 245.636719 13.5625 248.394531 20.21875 248.394531 27.160156 C 248.394531 34.097656 245.636719 40.757812 240.730469 45.664062 C 235.820312 50.570312 229.164062 53.328125 222.222656 53.328125 L 26.777344 53.328125 C 19.835938 53.328125 13.179688 50.570312 8.269531 45.664062 C 3.363281 40.757812 0.605469 34.097656 0.605469 27.160156 C 0.605469 20.21875 3.363281 13.5625 8.269531 8.652344 C 13.179688 3.746094 19.835938 0.988281 26.777344 0.988281 Z M 26.777344 0.988281 " clip-rule="nonzero"/></clipPath><clipPath id="8f41d70dfc"><rect x="0" width="249" y="0" height="54"/></clipPath></defs><g clip-path="url(#ca554478ce)"><g clip-path="url(#32566f8aef)"><g transform="matrix(1, 0, 0, 1, 63, 161)"><g clip-path="url(#300d3f588c)"><g clip-path="url(#abbb3c6611)"><g clip-path="url(#426e7e5047)"><path fill="#ffffff" d="M 0.605469 0.328125 L 248.410156 0.328125 L 248.410156 52.671875 L 0.605469 52.671875 Z M 0.605469 0.328125 " fill-opacity="1" fill-rule="nonzero"/></g></g></g></g></g></g><g clip-path="url(#bb579a7d45)"><g clip-path="url(#18374d94ad)"><g transform="matrix(1, 0, 0, 1, 63, 246)"><g clip-path="url(#975ccb7907)"><g clip-path="url(#feec43615c)"><g clip-path="url(#583a420427)"><path fill="#ffffff" d="M 0.605469 0.480469 L 248.410156 0.480469 L 248.410156 52.820312 L 0.605469 52.820312 Z M 0.605469 0.480469 " fill-opacity="1" fill-rule="nonzero"/></g></g></g></g></g></g><g clip-path="url(#d2d919c9bf)"><g clip-path="url(#11789e710a)"><g transform="matrix(1, 0, 0, 1, 63, 75)"><g clip-path="url(#8f41d70dfc)"><g clip-path="url(#f9a38dd0fe)"><g clip-path="url(#7b3b909135)"><path fill="#ffffff" d="M 0.605469 0.988281 L 248.410156 0.988281 L 248.410156 53.328125 L 0.605469 53.328125 Z M 0.605469 0.988281 " fill-opacity="1" fill-rule="nonzero"/></g></g></g></g></g></g></svg>