<svg xmlns="http://www.w3.org/2000/svg" xmlns:xlink="http://www.w3.org/1999/xlink" width="500" zoomAndPan="magnify" viewBox="0 0 375 374.999991" height="500" preserveAspectRatio="xMidYMid meet" version="1.0"><path fill="#ffffff" d="M 187.714844 343.386719 C 178.960938 343.386719 171.472656 340.3125 165.25 334.15625 C 159.023438 328 155.914062 320.546875 155.914062 311.796875 L 219.300781 311.796875 C 219.300781 320.546875 216.226562 328 210.070312 334.15625 C 203.917969 340.3125 196.464844 343.386719 187.714844 343.386719 Z M 187.503906 181.214844 Z M 82.632812 297.140625 C 77.238281 297.140625 72.652344 295.253906 68.878906 291.476562 C 65.101562 287.699219 63.210938 283.113281 63.210938 277.722656 C 63.210938 272.324219 65.101562 267.738281 68.878906 263.960938 C 72.652344 260.1875 77.238281 258.300781 82.632812 258.300781 L 90.039062 258.300781 L 90.039062 162.75 C 90.039062 140.679688 96.527344 120.90625 109.5 103.421875 C 122.472656 85.941406 139.558594 74.550781 160.757812 69.25 L 160.757812 60.648438 C 160.757812 53.160156 163.34375 46.832031 168.515625 41.660156 C 173.6875 36.488281 180.019531 33.898438 187.503906 33.898438 C 193.75 33.898438 199.25 35.832031 204.007812 39.691406 C 208.765625 43.550781 211.765625 48.398438 213.011719 54.226562 L 213.011719 56.296875 C 208.113281 63.742188 204.675781 71.65625 202.695312 80.039062 C 200.714844 88.417969 200.328125 96.988281 201.539062 105.75 C 199.234375 105.261719 196.957031 104.867188 194.703125 104.570312 C 192.453125 104.273438 190.050781 104.125 187.503906 104.125 C 171.382812 104.125 157.582031 109.867188 146.101562 121.347656 C 134.621094 132.828125 128.878906 146.628906 128.878906 162.75 L 128.878906 258.300781 L 246.128906 258.300781 L 246.128906 168.070312 C 252.046875 170.851562 258.335938 172.863281 265 174.097656 C 271.664062 175.335938 278.320312 175.609375 284.96875 174.917969 L 284.96875 258.300781 L 292.378906 258.300781 C 297.769531 258.300781 302.355469 260.1875 306.132812 263.960938 C 309.910156 267.738281 311.796875 272.324219 311.796875 277.722656 C 311.796875 283.113281 309.910156 287.699219 306.132812 291.476562 C 302.355469 295.253906 297.769531 297.140625 292.378906 297.140625 Z M 244.398438 131.851562 C 234.953125 122.402344 230.230469 110.882812 230.230469 97.289062 C 230.230469 83.695312 234.953125 72.175781 244.398438 62.730469 C 253.847656 53.28125 265.371094 48.554688 278.964844 48.554688 C 292.558594 48.554688 304.078125 53.28125 313.527344 62.730469 C 322.972656 72.175781 327.695312 83.695312 327.695312 97.289062 C 327.695312 110.882812 322.972656 122.402344 313.527344 131.851562 C 304.078125 141.296875 292.558594 146.019531 278.964844 146.019531 C 265.371094 146.019531 253.847656 141.296875 244.398438 131.851562 Z M 244.398438 131.851562 " fill-opacity="1" fill-rule="nonzero"/></svg>