<svg xmlns="http://www.w3.org/2000/svg" xmlns:xlink="http://www.w3.org/1999/xlink" width="500" zoomAndPan="magnify" viewBox="0 0 375 374.999991" height="500" preserveAspectRatio="xMidYMid meet" version="1.0"><path fill="#ffffff" d="M 187.5 181.113281 L 128.058594 240.558594 C 124.757812 243.859375 120.613281 245.507812 115.625 245.507812 C 110.636719 245.507812 106.492188 243.859375 103.191406 240.558594 C 99.890625 237.257812 98.242188 233.113281 98.242188 228.125 C 98.242188 223.136719 99.890625 218.992188 103.191406 215.691406 L 174.972656 143.910156 C 176.722656 142.164062 178.664062 140.886719 180.800781 140.078125 C 182.933594 139.269531 185.167969 138.867188 187.5 138.867188 C 189.832031 138.867188 192.066406 139.269531 194.199219 140.078125 C 196.335938 140.886719 198.277344 142.164062 200.027344 143.910156 L 271.808594 215.691406 C 275.109375 218.992188 276.757812 223.136719 276.757812 228.125 C 276.757812 233.113281 275.109375 237.257812 271.808594 240.558594 C 268.507812 243.859375 264.363281 245.507812 259.375 245.507812 C 254.386719 245.507812 250.242188 243.859375 246.941406 240.558594 Z M 187.5 181.113281 " fill-opacity="1" fill-rule="nonzero"/></svg>