<svg xmlns="http://www.w3.org/2000/svg" xmlns:xlink="http://www.w3.org/1999/xlink" width="500" zoomAndPan="magnify" viewBox="0 0 375 374.999991" height="500" preserveAspectRatio="xMidYMid meet" version="1.0"><defs><clipPath id="e465d1509d"><path d="M 4 8.402344 L 308 8.402344 L 308 314 L 4 314 Z M 4 8.402344 " clip-rule="nonzero"/></clipPath><clipPath id="177cbdd44f"><path d="M 110.855469 0.695312 L 206.144531 0.695312 L 206.144531 95.984375 L 110.855469 95.984375 Z M 110.855469 0.695312 " clip-rule="nonzero"/></clipPath><clipPath id="14a5be26ab"><path d="M 158.5 0.695312 C 132.1875 0.695312 110.855469 22.027344 110.855469 48.339844 C 110.855469 74.652344 132.1875 95.984375 158.5 95.984375 C 184.8125 95.984375 206.144531 74.652344 206.144531 48.339844 C 206.144531 22.027344 184.8125 0.695312 158.5 0.695312 Z M 158.5 0.695312 " clip-rule="nonzero"/></clipPath><clipPath id="b1f574e631"><path d="M 0.855469 0.695312 L 96.144531 0.695312 L 96.144531 95.984375 L 0.855469 95.984375 Z M 0.855469 0.695312 " clip-rule="nonzero"/></clipPath><clipPath id="e586b86a55"><path d="M 48.5 0.695312 C 22.1875 0.695312 0.855469 22.027344 0.855469 48.339844 C 0.855469 74.652344 22.1875 95.984375 48.5 95.984375 C 74.8125 95.984375 96.144531 74.652344 96.144531 48.339844 C 96.144531 22.027344 74.8125 0.695312 48.5 0.695312 Z M 48.5 0.695312 " clip-rule="nonzero"/></clipPath><clipPath id="b23cb1144e"><rect x="0" width="97" y="0" height="96"/></clipPath><clipPath id="e34b7814ef"><rect x="0" width="317" y="0" height="325"/></clipPath></defs><g transform="matrix(1, 0, 0, 1, 29, 25)"><g clip-path="url(#e34b7814ef)"><g clip-path="url(#e465d1509d)"><path fill="#ffffff" d="M 39.378906 164.050781 L 11.40625 136.40625 C 7.019531 132.019531 4.824219 126.699219 4.824219 120.449219 C 4.824219 114.195312 7.019531 108.875 11.40625 104.488281 L 39.378906 76.519531 C 43.984375 72.128906 49.304688 69.882812 55.335938 69.773438 C 61.371094 69.664062 66.582031 71.910156 70.96875 76.519531 L 99.269531 104.816406 C 103.875 109.207031 106.125 114.414062 106.015625 120.449219 C 105.902344 126.480469 103.65625 131.691406 99.269531 136.078125 L 71.296875 164.050781 C 66.910156 168.65625 61.589844 170.960938 55.335938 170.960938 C 49.085938 170.960938 43.765625 168.65625 39.378906 164.050781 Z M 132.832031 313.117188 C 126.472656 313.117188 121.152344 310.976562 116.875 306.699219 C 112.59375 302.421875 110.457031 297.101562 110.457031 290.738281 L 110.457031 251.910156 C 100.363281 251.253906 90.4375 250.210938 80.675781 248.785156 C 70.914062 247.359375 61.207031 245.546875 51.554688 243.355469 C 46.070312 242.039062 41.847656 239.023438 38.882812 234.304688 C 35.921875 229.589844 35.210938 224.488281 36.746094 219.003906 C 38.0625 213.519531 41.242188 209.460938 46.289062 206.828125 C 51.335938 204.195312 56.707031 203.539062 62.414062 204.855469 C 78.207031 208.144531 94.058594 210.449219 109.960938 211.765625 C 125.867188 213.082031 141.9375 213.738281 158.171875 213.738281 C 174.625 213.738281 190.914062 213.082031 207.039062 211.765625 C 223.160156 210.449219 239.230469 208.144531 255.246094 204.855469 C 260.949219 203.539062 266.269531 204.25 271.207031 206.992188 C 276.140625 209.734375 279.265625 213.847656 280.582031 219.332031 C 282.121094 224.816406 281.40625 229.808594 278.445312 234.304688 C 275.484375 238.800781 271.261719 241.710938 265.777344 243.027344 C 255.902344 245.21875 246.085938 247.082031 236.324219 248.621094 C 226.5625 250.15625 216.636719 251.253906 206.542969 251.910156 L 206.542969 290.738281 C 206.542969 297.101562 204.40625 302.421875 200.125 306.699219 C 195.847656 310.976562 190.527344 313.117188 184.167969 313.117188 Z M 126.417969 81.289062 C 117.53125 72.40625 113.089844 61.710938 113.089844 49.207031 C 113.089844 36.699219 117.53125 26.007812 126.417969 17.121094 C 135.300781 8.238281 145.996094 3.792969 158.5 3.792969 C 171.003906 3.792969 181.699219 8.238281 190.582031 17.121094 C 199.46875 26.007812 203.910156 36.699219 203.910156 49.207031 C 203.910156 61.710938 199.46875 72.40625 190.582031 81.289062 C 181.699219 90.175781 171.003906 94.617188 158.5 94.617188 C 145.996094 94.617188 135.300781 90.175781 126.417969 81.289062 Z M 135.136719 191.691406 C 128.773438 185.328125 125.59375 177.652344 125.59375 168.65625 C 125.59375 159.660156 128.773438 151.984375 135.136719 145.621094 C 141.5 139.261719 149.175781 136.078125 158.171875 136.078125 C 167.164062 136.078125 174.84375 139.261719 181.207031 145.621094 C 187.566406 151.984375 190.75 159.660156 190.75 168.65625 C 190.75 177.652344 187.566406 185.328125 181.207031 191.691406 C 174.84375 198.054688 167.164062 201.234375 158.171875 201.234375 C 149.175781 201.234375 141.5 198.054688 135.136719 191.691406 Z M 227.605469 160.757812 L 214.441406 137.722656 C 212.46875 134.433594 211.480469 130.8125 211.480469 126.863281 C 211.480469 122.917969 212.46875 119.296875 214.441406 116.003906 L 227.605469 92.972656 C 229.578125 89.242188 232.320312 86.390625 235.832031 84.414062 C 239.339844 82.441406 243.070312 81.453125 247.019531 81.453125 L 272.355469 81.453125 C 276.523438 81.453125 280.363281 82.441406 283.875 84.414062 C 287.382812 86.390625 290.125 89.242188 292.101562 92.972656 L 304.933594 116.003906 C 306.910156 119.296875 307.894531 122.917969 307.894531 126.863281 C 307.894531 130.8125 306.910156 134.433594 304.933594 137.722656 L 292.101562 160.757812 C 290.125 164.488281 287.382812 167.339844 283.875 169.316406 C 280.363281 171.289062 276.523438 172.277344 272.355469 172.277344 L 247.019531 172.277344 C 243.070312 172.277344 239.339844 171.289062 235.832031 169.316406 C 232.320312 167.339844 229.578125 164.488281 227.605469 160.757812 Z M 227.605469 160.757812 " fill-opacity="1" fill-rule="nonzero"/></g><g clip-path="url(#177cbdd44f)"><g clip-path="url(#14a5be26ab)"><g transform="matrix(1, 0, 0, 1, 110, 0)"><g clip-path="url(#b23cb1144e)"><g clip-path="url(#b1f574e631)"><g clip-path="url(#e586b86a55)"><path fill="#ffffff" d="M 0.855469 0.695312 L 96.144531 0.695312 L 96.144531 95.984375 L 0.855469 95.984375 Z M 0.855469 0.695312 " fill-opacity="1" fill-rule="nonzero"/></g></g></g></g></g></g></g></g></svg>