<svg xmlns="http://www.w3.org/2000/svg" xmlns:xlink="http://www.w3.org/1999/xlink" width="500" zoomAndPan="magnify" viewBox="0 0 375 374.999991" height="500" preserveAspectRatio="xMidYMid meet" version="1.0"><defs><clipPath id="855e364ad3"><path d="M 59.601562 59.601562 L 315.351562 59.601562 L 315.351562 315.351562 L 59.601562 315.351562 Z M 59.601562 59.601562 " clip-rule="nonzero"/></clipPath></defs><g clip-path="url(#855e364ad3)"><path fill="#ffffff" d="M 187.496094 59.601562 C 116.867188 59.601562 59.601562 116.867188 59.601562 187.496094 C 59.601562 241.707031 93.285156 288.019531 140.863281 306.652344 C 139.707031 296.546875 138.761719 280.96875 141.285156 269.914062 C 143.601562 259.914062 156.234375 206.335938 156.234375 206.335938 C 156.234375 206.335938 152.445312 198.652344 152.445312 187.390625 C 152.445312 169.601562 162.757812 156.339844 175.601562 156.339844 C 186.546875 156.339844 191.8125 164.550781 191.8125 174.339844 C 191.8125 185.285156 184.863281 201.707031 181.179688 216.96875 C 178.128906 229.707031 187.601562 240.125 200.128906 240.125 C 222.863281 240.125 240.335938 216.125 240.335938 181.601562 C 240.335938 150.96875 218.335938 129.601562 186.863281 129.601562 C 150.445312 129.601562 129.074219 156.863281 129.074219 185.074219 C 129.074219 196.023438 133.285156 207.8125 138.550781 214.230469 C 139.601562 215.496094 139.707031 216.652344 139.390625 217.917969 C 138.445312 221.917969 136.234375 230.652344 135.8125 232.441406 C 135.285156 234.757812 133.917969 235.285156 131.496094 234.125 C 115.496094 226.652344 105.496094 203.390625 105.496094 184.546875 C 105.496094 144.234375 134.761719 107.179688 190.023438 107.179688 C 234.335938 107.179688 268.863281 138.761719 268.863281 181.074219 C 268.863281 225.179688 241.074219 260.652344 202.546875 260.652344 C 189.601562 260.652344 177.390625 253.914062 173.285156 245.914062 C 173.285156 245.914062 166.863281 270.335938 165.285156 276.335938 C 162.445312 287.496094 154.65625 301.386719 149.390625 309.914062 C 161.390625 313.597656 174.023438 315.597656 187.285156 315.597656 C 257.914062 315.597656 315.179688 258.335938 315.179688 187.707031 C 315.386719 116.867188 258.125 59.601562 187.496094 59.601562 Z M 187.496094 59.601562 " fill-opacity="1" fill-rule="nonzero"/></g></svg>