<svg xmlns="http://www.w3.org/2000/svg" xmlns:xlink="http://www.w3.org/1999/xlink" width="500" zoomAndPan="magnify" viewBox="0 0 375 374.999991" height="500" preserveAspectRatio="xMidYMid meet" version="1.0"><path fill="#ffffff" d="M 155.335938 218.078125 L 71.476562 251.4375 C 64.683594 254.246094 58.300781 253.601562 52.335938 249.503906 C 46.375 245.402344 43.394531 239.726562 43.394531 232.472656 L 43.394531 223.351562 C 43.394531 219.957031 44.152344 216.769531 45.671875 213.796875 C 47.191406 210.824219 49.355469 208.339844 52.164062 206.347656 L 155.335938 134.503906 L 155.335938 75.558594 C 155.335938 66.699219 158.480469 59.125 164.773438 52.832031 C 171.066406 46.539062 178.644531 43.394531 187.5 43.394531 C 196.355469 43.394531 203.933594 46.539062 210.226562 52.832031 C 216.519531 59.125 219.664062 66.699219 219.664062 75.558594 L 219.664062 134.503906 L 322.835938 206.347656 C 325.644531 208.339844 327.808594 210.824219 329.328125 213.796875 C 330.847656 216.769531 331.605469 219.957031 331.605469 223.351562 L 331.605469 232.472656 C 331.605469 239.726562 328.625 245.402344 322.664062 249.503906 C 316.699219 253.601562 310.316406 254.246094 303.523438 251.4375 L 219.664062 218.078125 L 219.664062 259.808594 L 254.097656 283.585938 C 256.449219 285.21875 258.300781 287.335938 259.65625 289.929688 C 261.011719 292.523438 261.691406 295.226562 261.691406 298.039062 L 261.691406 308.035156 C 261.691406 313.785156 259.347656 318.417969 254.660156 321.929688 C 249.96875 325.441406 244.75 326.378906 239.003906 324.746094 L 187.5 309.429688 L 135.996094 324.746094 C 130.25 326.378906 125.03125 325.441406 120.339844 321.929688 C 115.652344 318.417969 113.308594 313.785156 113.308594 308.035156 L 113.308594 298.039062 C 113.308594 295.226562 113.988281 292.523438 115.34375 289.929688 C 116.699219 287.335938 118.550781 285.21875 120.902344 283.585938 L 155.335938 259.808594 Z M 155.335938 218.078125 " fill-opacity="1" fill-rule="nonzero"/></svg>