<svg xmlns="http://www.w3.org/2000/svg" xmlns:xlink="http://www.w3.org/1999/xlink" width="500" zoomAndPan="magnify" viewBox="0 0 375 374.999991" height="500" preserveAspectRatio="xMidYMid meet" version="1.0"><path fill="#ffffff" d="M 187.5 264.152344 C 193.167969 264.152344 197.792969 262.273438 201.378906 258.519531 C 204.960938 254.765625 206.753906 250.226562 206.753906 244.898438 L 206.753906 192.585938 C 206.753906 187.257812 204.960938 182.714844 201.378906 178.960938 C 197.792969 175.207031 193.226562 173.332031 187.679688 173.332031 C 182.136719 173.332031 177.507812 175.207031 173.804688 178.960938 C 170.097656 182.714844 168.246094 187.257812 168.246094 192.585938 L 168.246094 244.898438 C 168.246094 250.082031 170.121094 254.585938 173.875 258.414062 C 177.628906 262.238281 182.171875 264.152344 187.5 264.152344 Z M 187.53125 151.898438 C 193.511719 151.898438 198.511719 149.875 202.535156 145.832031 C 206.558594 141.785156 208.570312 136.773438 208.570312 130.796875 C 208.570312 124.816406 206.546875 119.816406 202.503906 115.792969 C 198.457031 111.769531 193.445312 109.757812 187.46875 109.757812 C 181.488281 109.757812 176.488281 111.78125 172.464844 115.824219 C 168.441406 119.871094 166.429688 124.882812 166.429688 130.859375 C 166.429688 136.839844 168.453125 141.839844 172.496094 145.863281 C 176.539062 149.886719 181.554688 151.898438 187.53125 151.898438 Z M 187.5 347.707031 C 185.105469 347.707031 182.574219 347.496094 179.898438 347.070312 C 177.226562 346.648438 174.550781 346.011719 171.878906 345.164062 C 136.519531 333.78125 108.121094 311.558594 86.6875 278.5 C 65.257812 245.441406 54.539062 210.75 54.539062 174.421875 L 54.539062 108.304688 C 54.539062 97.875 57.535156 88.488281 63.527344 80.148438 C 69.519531 71.804688 77.300781 65.808594 86.871094 62.167969 L 170.425781 30.925781 C 175.753906 28.746094 181.445312 27.65625 187.5 27.65625 C 193.554688 27.65625 199.246094 28.746094 204.574219 30.925781 L 288.128906 62.167969 C 297.699219 65.808594 305.480469 71.804688 311.472656 80.148438 C 317.464844 88.488281 320.460938 97.875 320.460938 108.304688 L 320.460938 174.421875 C 320.460938 210.75 309.742188 245.441406 288.308594 278.5 C 266.875 311.558594 238.480469 333.78125 203.121094 345.164062 C 200.449219 346.011719 197.773438 346.648438 195.101562 347.070312 C 192.425781 347.496094 189.894531 347.707031 187.5 347.707031 Z M 187.5 299.390625 C 211.234375 289.703125 231.09375 273.558594 247.078125 250.953125 C 263.0625 228.351562 271.054688 202.902344 271.054688 174.605469 L 271.054688 108.316406 L 187.5 77.425781 L 103.945312 108.457031 L 103.945312 174.339844 C 103.945312 202.8125 111.9375 228.351562 127.921875 250.953125 C 143.90625 273.558594 163.765625 289.703125 187.5 299.390625 Z M 187.5 188.226562 Z M 187.5 188.226562 " fill-opacity="1" fill-rule="nonzero"/></svg>