<svg xmlns="http://www.w3.org/2000/svg" xmlns:xlink="http://www.w3.org/1999/xlink" width="500" zoomAndPan="magnify" viewBox="0 0 375 374.999991" height="500" preserveAspectRatio="xMidYMid meet" version="1.0"><path fill="#ffffff" d="M 172.734375 195.15625 L 153.839844 176.464844 C 150.765625 173.386719 147.117188 171.882812 142.90625 171.945312 C 138.691406 172.011719 135.042969 173.578125 131.96875 176.640625 C 128.890625 179.707031 127.351562 183.34375 127.351562 187.554688 C 127.351562 191.769531 128.890625 195.414062 131.96875 198.488281 L 159.511719 226.386719 C 163.300781 230.125 167.71875 231.996094 172.769531 231.996094 C 177.820312 231.996094 182.214844 230.125 185.957031 226.386719 L 243.339844 169.003906 C 246.417969 165.871094 247.953125 162.15625 247.953125 157.851562 C 247.953125 153.546875 246.417969 149.855469 243.339844 146.777344 C 240.261719 143.699219 236.570312 142.164062 232.265625 142.164062 C 227.960938 142.164062 224.246094 143.699219 221.113281 146.777344 Z M 181.539062 332.628906 C 179.601562 332.324219 177.664062 331.875 175.730469 331.273438 C 143.160156 320.464844 117.105469 300.089844 97.558594 270.15625 C 78.015625 240.222656 68.242188 208.449219 68.242188 174.84375 L 68.242188 110.1875 C 68.242188 102.339844 70.472656 95.277344 74.929688 89.003906 C 79.390625 82.722656 85.242188 78.199219 92.488281 75.429688 L 174.476562 44.78125 C 178.683594 43.210938 183.027344 42.425781 187.5 42.425781 C 191.972656 42.425781 196.316406 43.210938 200.523438 44.78125 L 282.511719 75.429688 C 289.757812 78.199219 295.609375 82.722656 300.070312 89.003906 C 304.527344 95.277344 306.757812 102.339844 306.757812 110.1875 L 306.757812 174.84375 C 306.757812 208.449219 296.984375 240.222656 277.441406 270.15625 C 257.894531 300.089844 231.839844 320.464844 199.269531 331.273438 C 197.335938 331.875 195.398438 332.324219 193.460938 332.628906 C 191.527344 332.929688 189.539062 333.078125 187.5 333.078125 C 185.460938 333.078125 183.472656 332.929688 181.539062 332.628906 Z M 187.5 296.40625 C 210.945312 287.878906 230.472656 272.410156 246.082031 250 C 261.6875 227.59375 269.492188 202.570312 269.492188 174.933594 L 269.492188 110.1875 L 187.5 79.539062 L 105.507812 110.28125 L 105.507812 174.84375 C 105.507812 202.539062 113.3125 227.59375 128.917969 250 C 144.527344 272.410156 164.054688 287.878906 187.5 296.40625 Z M 187.5 187.898438 Z M 187.5 187.898438 " fill-opacity="1" fill-rule="nonzero"/></svg>