<svg xmlns="http://www.w3.org/2000/svg" xmlns:xlink="http://www.w3.org/1999/xlink" width="500" zoomAndPan="magnify" viewBox="0 0 375 374.999991" height="500" preserveAspectRatio="xMidYMid meet" version="1.0"><path fill="#ffffff" d="M 89.589844 325.277344 C 78.5 325.277344 69.066406 321.386719 61.289062 313.613281 C 53.515625 305.835938 49.625 296.402344 49.625 285.3125 L 49.625 89.589844 C 49.625 78.5 53.515625 69.066406 61.289062 61.289062 C 69.066406 53.515625 78.5 49.625 89.589844 49.625 L 285.3125 49.625 C 296.402344 49.625 305.835938 53.515625 313.613281 61.289062 C 321.386719 69.066406 325.277344 78.5 325.277344 89.589844 L 325.277344 285.3125 C 325.277344 296.402344 321.386719 305.835938 313.613281 313.613281 C 305.835938 321.386719 296.402344 325.277344 285.3125 325.277344 Z M 115.648438 263.894531 L 259.25 263.894531 C 263.476562 263.894531 266.472656 262.074219 268.230469 258.4375 C 269.992188 254.800781 269.640625 251.335938 267.171875 248.050781 L 227.777344 194.628906 C 225.78125 191.925781 223.140625 190.605469 219.855469 190.667969 C 216.566406 190.730469 213.898438 192.140625 211.847656 194.898438 L 176.855469 241.640625 L 152.460938 209.292969 C 150.410156 206.53125 147.742188 205.167969 144.453125 205.195312 C 141.167969 205.222656 138.527344 206.617188 136.53125 209.375 L 107.730469 248.050781 C 105.261719 251.335938 104.910156 254.800781 106.671875 258.4375 C 108.429688 262.074219 111.425781 263.894531 115.648438 263.894531 Z M 115.648438 263.894531 " fill-opacity="1" fill-rule="nonzero"/></svg>