<svg xmlns="http://www.w3.org/2000/svg" xmlns:xlink="http://www.w3.org/1999/xlink" width="500" zoomAndPan="magnify" viewBox="0 0 375 374.999991" height="500" preserveAspectRatio="xMidYMid meet" version="1.0"><path fill="#ffffff" d="M 89.789062 325.472656 C 78.695312 325.472656 69.261719 321.585938 61.488281 313.808594 C 53.710938 306.035156 49.824219 296.601562 49.824219 285.511719 L 49.824219 89.789062 C 49.824219 78.695312 53.710938 69.261719 61.488281 61.488281 C 69.261719 53.710938 78.695312 49.824219 89.789062 49.824219 L 285.511719 49.824219 C 296.601562 49.824219 306.035156 53.710938 313.808594 61.488281 C 321.585938 69.261719 325.472656 78.695312 325.472656 89.789062 L 325.472656 285.511719 C 325.472656 296.601562 321.585938 306.035156 313.808594 313.808594 C 306.035156 321.585938 296.601562 325.472656 285.511719 325.472656 Z M 89.789062 285.511719 L 285.511719 285.511719 L 285.511719 89.789062 L 89.789062 89.789062 Z M 89.789062 285.511719 L 89.789062 89.789062 Z M 115.847656 264.09375 L 259.449219 264.09375 C 263.675781 264.09375 266.667969 262.273438 268.429688 258.632812 C 270.191406 254.996094 269.835938 251.535156 267.371094 248.25 L 227.976562 194.828125 C 225.980469 192.125 223.339844 190.804688 220.050781 190.867188 C 216.765625 190.925781 214.097656 192.335938 212.046875 195.097656 L 177.054688 241.839844 L 152.65625 209.488281 C 150.605469 206.730469 147.9375 205.363281 144.652344 205.394531 C 141.367188 205.421875 138.722656 206.816406 136.726562 209.574219 L 107.925781 248.25 C 105.460938 251.535156 105.105469 254.996094 106.867188 258.632812 C 108.628906 262.273438 111.621094 264.09375 115.847656 264.09375 Z M 115.847656 264.09375 " fill-opacity="1" fill-rule="nonzero"/></svg>