<svg xmlns="http://www.w3.org/2000/svg" xmlns:xlink="http://www.w3.org/1999/xlink" width="500" zoomAndPan="magnify" viewBox="0 0 375 374.999991" height="500" preserveAspectRatio="xMidYMid meet" version="1.0"><path fill="#ffffff" d="M 100.691406 256.976562 C 112.804688 247.980469 126.207031 240.945312 140.902344 235.871094 C 155.597656 230.796875 171.070312 228.257812 187.320312 228.257812 C 203.574219 228.257812 219.148438 230.894531 234.042969 236.171875 C 248.9375 241.449219 262.242188 248.453125 273.949219 257.179688 C 281.863281 247.304688 288 236.5625 292.363281 224.953125 C 296.722656 213.339844 298.90625 200.796875 298.90625 187.320312 C 298.90625 156.539062 288.003906 130.246094 266.199219 108.445312 C 244.394531 86.640625 218.101562 75.738281 187.320312 75.738281 C 156.539062 75.738281 130.246094 86.640625 108.445312 108.445312 C 86.640625 130.246094 75.738281 156.539062 75.738281 187.320312 C 75.738281 200.660156 77.882812 213.136719 82.179688 224.75 C 86.476562 236.363281 92.648438 247.105469 100.691406 256.976562 Z M 150.667969 188.652344 C 140.78125 178.832031 135.835938 166.648438 135.835938 152.097656 C 135.835938 137.550781 140.78125 125.332031 150.667969 115.445312 C 160.554688 105.558594 172.773438 100.613281 187.320312 100.613281 C 201.871094 100.613281 214.089844 105.558594 223.976562 115.445312 C 233.863281 125.332031 238.804688 137.550781 238.804688 152.097656 C 238.804688 166.648438 233.863281 178.832031 223.976562 188.652344 C 214.089844 198.472656 201.871094 203.382812 187.320312 203.382812 C 172.773438 203.382812 160.554688 198.472656 150.667969 188.652344 Z M 187.320312 336.667969 C 166.667969 336.667969 147.269531 332.761719 129.128906 324.945312 C 110.984375 317.125 95.164062 306.46875 81.667969 292.972656 C 68.171875 279.476562 57.515625 263.65625 49.699219 245.515625 C 41.882812 227.371094 37.972656 207.972656 37.972656 187.320312 C 37.972656 166.667969 41.882812 147.269531 49.699219 129.128906 C 57.515625 110.984375 68.171875 95.164062 81.667969 81.667969 C 95.164062 68.171875 110.984375 57.515625 129.128906 49.699219 C 147.269531 41.882812 166.667969 37.972656 187.320312 37.972656 C 207.972656 37.972656 227.371094 41.882812 245.515625 49.699219 C 263.65625 57.515625 279.476562 68.171875 292.972656 81.667969 C 306.46875 95.164062 317.125 110.984375 324.945312 129.128906 C 332.761719 147.269531 336.667969 166.667969 336.667969 187.320312 C 336.667969 207.972656 332.761719 227.371094 324.945312 245.515625 C 317.125 263.65625 306.46875 279.476562 292.972656 292.972656 C 279.476562 306.46875 263.65625 317.125 245.515625 324.945312 C 227.371094 332.761719 207.972656 336.667969 187.320312 336.667969 Z M 220.730469 293.886719 C 231.085938 290.539062 240.898438 285.691406 250.160156 279.339844 C 240.628906 272.855469 230.851562 267.976562 220.828125 264.699219 C 210.808594 261.417969 199.640625 259.777344 187.320312 259.777344 C 175 259.777344 163.867188 261.417969 153.910156 264.699219 C 143.957031 267.976562 134.210938 272.855469 124.679688 279.339844 C 133.945312 285.691406 143.722656 290.539062 154.011719 293.886719 C 164.300781 297.234375 175.40625 298.90625 187.320312 298.90625 C 199.238281 298.90625 210.371094 297.234375 220.730469 293.886719 Z M 201.433594 166.210938 C 205.203125 162.441406 207.085938 157.738281 207.085938 152.097656 C 207.085938 146.460938 205.203125 141.722656 201.433594 137.886719 C 197.664062 134.050781 192.960938 132.132812 187.320312 132.132812 C 181.683594 132.132812 176.980469 134.050781 173.210938 137.886719 C 169.441406 141.722656 167.554688 146.460938 167.554688 152.097656 C 167.554688 157.738281 169.441406 162.441406 173.210938 166.210938 C 176.980469 169.980469 181.683594 171.863281 187.320312 171.863281 C 192.960938 171.863281 197.664062 169.980469 201.433594 166.210938 Z M 201.433594 166.210938 " fill-opacity="1" fill-rule="nonzero"/></svg>