<svg xmlns="http://www.w3.org/2000/svg" xmlns:xlink="http://www.w3.org/1999/xlink" width="500" zoomAndPan="magnify" viewBox="0 0 375 374.999991" height="500" preserveAspectRatio="xMidYMid meet" version="1.0"><path fill="#ffffff" d="M 187.5 334.453125 C 167.382812 334.453125 148.410156 330.585938 130.574219 322.851562 C 112.742188 315.117188 97.148438 304.570312 83.789062 291.210938 C 70.429688 277.851562 59.882812 262.253906 52.148438 244.417969 C 44.414062 226.578125 40.546875 207.601562 40.546875 187.480469 C 40.546875 167.101562 44.355469 148.066406 51.972656 130.371094 C 59.589844 112.675781 70.195312 97.089844 83.789062 83.613281 C 97.382812 70.136719 113.253906 59.589844 131.402344 51.972656 C 149.546875 44.355469 168.902344 40.546875 189.464844 40.546875 C 209.25 40.546875 227.929688 44.003906 245.507812 50.917969 C 263.085938 57.832031 278.496094 67.324219 291.738281 79.394531 C 304.980469 91.464844 315.410156 105.550781 323.027344 121.652344 C 330.644531 137.753906 334.453125 155.015625 334.453125 173.4375 C 334.453125 197.34375 326.425781 218.90625 310.371094 238.125 C 294.316406 257.34375 273.515625 266.953125 247.96875 266.953125 L 232.148438 266.953125 C 231.210938 266.953125 230.097656 267.304688 228.808594 268.007812 C 227.519531 268.710938 226.875 269.882812 226.875 271.523438 C 226.875 274.570312 227.929688 275.859375 230.039062 275.390625 C 232.148438 274.921875 233.203125 279.140625 233.203125 288.046875 C 233.203125 298.59375 228.75 308.964844 219.84375 319.160156 C 210.9375 329.355469 200.15625 334.453125 187.5 334.453125 Z M 187.5 187.5 Z M 115.78125 200.15625 C 121.640625 200.15625 126.621094 198.105469 130.722656 194.003906 C 134.824219 189.902344 136.875 184.921875 136.875 179.0625 C 136.875 173.203125 134.824219 168.222656 130.722656 164.121094 C 126.621094 160.019531 121.640625 157.96875 115.78125 157.96875 C 109.921875 157.96875 104.941406 160.019531 100.839844 164.121094 C 96.738281 168.222656 94.6875 173.203125 94.6875 179.0625 C 94.6875 184.921875 96.738281 189.902344 100.839844 194.003906 C 104.941406 198.105469 109.921875 200.15625 115.78125 200.15625 Z M 155.859375 152.695312 C 161.71875 152.695312 166.699219 150.644531 170.800781 146.542969 C 174.902344 142.441406 176.953125 137.460938 176.953125 131.601562 C 176.953125 125.742188 174.902344 120.761719 170.800781 116.660156 C 166.699219 112.558594 161.71875 110.507812 155.859375 110.507812 C 150 110.507812 145.019531 112.558594 140.917969 116.660156 C 136.816406 120.761719 134.765625 125.742188 134.765625 131.601562 C 134.765625 137.460938 136.816406 142.441406 140.917969 146.542969 C 145.019531 150.644531 150 152.695312 155.859375 152.695312 Z M 219.140625 152.695312 C 225 152.695312 229.980469 150.644531 234.082031 146.542969 C 238.183594 142.441406 240.234375 137.460938 240.234375 131.601562 C 240.234375 125.742188 238.183594 120.761719 234.082031 116.660156 C 229.980469 112.558594 225 110.507812 219.140625 110.507812 C 213.28125 110.507812 208.300781 112.558594 204.199219 116.660156 C 200.097656 120.761719 198.046875 125.742188 198.046875 131.601562 C 198.046875 137.460938 200.097656 142.441406 204.199219 146.542969 C 208.300781 150.644531 213.28125 152.695312 219.140625 152.695312 Z M 258.164062 200.15625 C 264.023438 200.15625 269.003906 198.105469 273.105469 194.003906 C 277.207031 189.902344 279.257812 184.921875 279.257812 179.0625 C 279.257812 173.203125 277.207031 168.222656 273.105469 164.121094 C 269.003906 160.019531 264.023438 157.96875 258.164062 157.96875 C 252.304688 157.96875 247.324219 160.019531 243.222656 164.121094 C 239.121094 168.222656 237.070312 173.203125 237.070312 179.0625 C 237.070312 184.921875 239.121094 189.902344 243.222656 194.003906 C 247.324219 198.105469 252.304688 200.15625 258.164062 200.15625 Z M 185.390625 292.96875 C 187.441406 292.96875 189.066406 292.101562 190.269531 290.371094 C 191.46875 288.636719 192.070312 287.160156 192.070312 285.9375 C 192.070312 282.1875 190.253906 279.316406 186.621094 277.324219 C 182.988281 275.332031 181.171875 270.351562 181.171875 262.382812 C 181.171875 252.304688 184.683594 243.632812 191.710938 236.367188 C 198.738281 229.101562 207.296875 225.46875 217.382812 225.46875 L 247.96875 225.46875 C 262.96875 225.46875 274.21875 220.195312 281.71875 209.648438 C 289.21875 199.101562 292.96875 187.851562 292.96875 175.898438 C 292.96875 148.945312 282.832031 126.5625 262.558594 108.75 C 242.285156 90.9375 217.917969 82.03125 189.460938 82.03125 C 159.457031 82.03125 134.050781 92.34375 113.242188 112.96875 C 92.433594 133.59375 82.03125 158.492188 82.03125 187.667969 C 82.03125 216.851562 92.109375 241.699219 112.265625 262.207031 C 132.421875 282.714844 156.796875 292.96875 185.390625 292.96875 Z M 185.390625 292.96875 " fill-opacity="1" fill-rule="nonzero"/></svg>