<svg xmlns="http://www.w3.org/2000/svg" xmlns:xlink="http://www.w3.org/1999/xlink" width="500" zoomAndPan="magnify" viewBox="0 0 375 374.999991" height="500" preserveAspectRatio="xMidYMid meet" version="1.0"><path fill="#ffffff" d="M 187.5 334.453125 C 167.449219 334.453125 148.496094 330.558594 130.644531 322.765625 C 112.796875 314.976562 97.210938 304.421875 83.894531 291.105469 C 70.578125 277.789062 60.023438 262.203125 52.234375 244.347656 C 44.441406 226.492188 40.546875 207.535156 40.546875 187.480469 C 40.546875 167.101562 44.355469 148.066406 51.972656 130.371094 C 59.589844 112.675781 70.195312 97.089844 83.789062 83.613281 C 97.382812 70.136719 113.253906 59.589844 131.402344 51.972656 C 149.546875 44.355469 168.933594 40.546875 189.554688 40.546875 C 209.195312 40.546875 227.824219 44.003906 245.445312 50.917969 C 263.066406 57.832031 278.496094 67.324219 291.738281 79.394531 C 304.980469 91.464844 315.410156 105.550781 323.027344 121.652344 C 330.644531 137.753906 334.453125 155.015625 334.453125 173.4375 C 334.453125 197.34375 326.417969 218.90625 310.34375 238.125 C 294.265625 257.34375 273.476562 266.953125 247.96875 266.953125 L 232.234375 266.953125 C 231.238281 266.953125 230.097656 267.304688 228.808594 268.007812 C 227.519531 268.710938 226.875 269.84375 226.875 271.40625 C 226.875 274.53125 227.929688 275.859375 230.039062 275.390625 C 232.148438 274.921875 233.203125 279.140625 233.203125 288.046875 C 233.203125 298.59375 228.75 308.964844 219.84375 319.160156 C 210.9375 329.355469 200.15625 334.453125 187.5 334.453125 Z M 115.78125 200.15625 C 121.640625 200.15625 126.621094 198.105469 130.722656 194.003906 C 134.824219 189.902344 136.875 184.921875 136.875 179.0625 C 136.875 173.203125 134.824219 168.222656 130.722656 164.121094 C 126.621094 160.019531 121.640625 157.96875 115.78125 157.96875 C 109.921875 157.96875 104.941406 160.019531 100.839844 164.121094 C 96.738281 168.222656 94.6875 173.203125 94.6875 179.0625 C 94.6875 184.921875 96.738281 189.902344 100.839844 194.003906 C 104.941406 198.105469 109.921875 200.15625 115.78125 200.15625 Z M 155.859375 152.695312 C 161.71875 152.695312 166.699219 150.644531 170.800781 146.542969 C 174.902344 142.441406 176.953125 137.460938 176.953125 131.601562 C 176.953125 125.742188 174.902344 120.761719 170.800781 116.660156 C 166.699219 112.558594 161.71875 110.507812 155.859375 110.507812 C 150 110.507812 145.019531 112.558594 140.917969 116.660156 C 136.816406 120.761719 134.765625 125.742188 134.765625 131.601562 C 134.765625 137.460938 136.816406 142.441406 140.917969 146.542969 C 145.019531 150.644531 150 152.695312 155.859375 152.695312 Z M 219.140625 152.695312 C 225 152.695312 229.980469 150.644531 234.082031 146.542969 C 238.183594 142.441406 240.234375 137.460938 240.234375 131.601562 C 240.234375 125.742188 238.183594 120.761719 234.082031 116.660156 C 229.980469 112.558594 225 110.507812 219.140625 110.507812 C 213.28125 110.507812 208.300781 112.558594 204.199219 116.660156 C 200.097656 120.761719 198.046875 125.742188 198.046875 131.601562 C 198.046875 137.460938 200.097656 142.441406 204.199219 146.542969 C 208.300781 150.644531 213.28125 152.695312 219.140625 152.695312 Z M 258.164062 200.15625 C 264.023438 200.15625 269.003906 198.105469 273.105469 194.003906 C 277.207031 189.902344 279.257812 184.921875 279.257812 179.0625 C 279.257812 173.203125 277.207031 168.222656 273.105469 164.121094 C 269.003906 160.019531 264.023438 157.96875 258.164062 157.96875 C 252.304688 157.96875 247.324219 160.019531 243.222656 164.121094 C 239.121094 168.222656 237.070312 173.203125 237.070312 179.0625 C 237.070312 184.921875 239.121094 189.902344 243.222656 194.003906 C 247.324219 198.105469 252.304688 200.15625 258.164062 200.15625 Z M 258.164062 200.15625 " fill-opacity="1" fill-rule="nonzero"/></svg>