<svg xmlns="http://www.w3.org/2000/svg" xmlns:xlink="http://www.w3.org/1999/xlink" width="500" zoomAndPan="magnify" viewBox="0 0 375 374.999991" height="500" preserveAspectRatio="xMidYMid meet" version="1.0"><defs><clipPath id="29090dbd30"><path d="M 0.578125 0.5 L 286.292969 0.5 L 286.292969 286.214844 L 0.578125 286.214844 Z M 0.578125 0.5 " clip-rule="nonzero"/></clipPath><clipPath id="f477ec6fc7"><path d="M 63.980469 63.898438 L 188.484375 63.898438 L 188.484375 188.40625 L 63.980469 188.40625 Z M 63.980469 63.898438 " clip-rule="nonzero"/></clipPath><clipPath id="98ca458f25"><path d="M 126.230469 63.898438 C 91.851562 63.898438 63.980469 91.773438 63.980469 126.152344 C 63.980469 160.535156 91.851562 188.40625 126.230469 188.40625 C 160.613281 188.40625 188.484375 160.535156 188.484375 126.152344 C 188.484375 91.773438 160.613281 63.898438 126.230469 63.898438 Z M 126.230469 63.898438 " clip-rule="nonzero"/></clipPath><clipPath id="c62f67375f"><path d="M 0.980469 0.898438 L 125.484375 0.898438 L 125.484375 125.40625 L 0.980469 125.40625 Z M 0.980469 0.898438 " clip-rule="nonzero"/></clipPath><clipPath id="924af4ae7f"><path d="M 63.230469 0.898438 C 28.851562 0.898438 0.980469 28.773438 0.980469 63.152344 C 0.980469 97.535156 28.851562 125.40625 63.230469 125.40625 C 97.613281 125.40625 125.484375 97.535156 125.484375 63.152344 C 125.484375 28.773438 97.613281 0.898438 63.230469 0.898438 Z M 63.230469 0.898438 " clip-rule="nonzero"/></clipPath><clipPath id="06db6d5dac"><rect x="0" width="126" y="0" height="126"/></clipPath><clipPath id="6f62ca643f"><path d="M 187 187 L 291 187 L 291 291 L 187 291 Z M 187 187 " clip-rule="nonzero"/></clipPath><clipPath id="38c34637d6"><path d="M 177.710938 210.449219 L 210.53125 177.625 L 300.664062 267.757812 L 267.839844 300.582031 Z M 177.710938 210.449219 " clip-rule="nonzero"/></clipPath><clipPath id="ad590011b8"><path d="M 194.121094 194.039062 C 198.472656 189.683594 204.375 187.238281 210.53125 187.238281 C 216.6875 187.238281 222.589844 189.683594 226.941406 194.039062 L 284.167969 251.261719 C 288.519531 255.617188 290.964844 261.519531 290.964844 267.675781 C 290.964844 273.828125 288.519531 279.734375 284.167969 284.085938 C 279.816406 288.4375 273.910156 290.882812 267.757812 290.882812 C 261.601562 290.882812 255.699219 288.4375 251.34375 284.085938 L 194.121094 226.859375 C 189.765625 222.507812 187.324219 216.605469 187.324219 210.449219 C 187.324219 204.292969 189.765625 198.390625 194.121094 194.039062 Z M 194.121094 194.039062 " clip-rule="nonzero"/></clipPath><clipPath id="70205f2446"><path d="M 0.320312 0.160156 L 104 0.160156 L 104 104 L 0.320312 104 Z M 0.320312 0.160156 " clip-rule="nonzero"/></clipPath><clipPath id="dccf3578d5"><path d="M -9.289062 23.449219 L 23.53125 -9.375 L 113.664062 80.757812 L 80.839844 113.582031 Z M -9.289062 23.449219 " clip-rule="nonzero"/></clipPath><clipPath id="d25e8839dd"><path d="M 7.121094 7.039062 C 11.472656 2.683594 17.375 0.238281 23.53125 0.238281 C 29.6875 0.238281 35.589844 2.683594 39.941406 7.039062 L 97.167969 64.261719 C 101.519531 68.617188 103.964844 74.519531 103.964844 80.675781 C 103.964844 86.828125 101.519531 92.734375 97.167969 97.085938 C 92.816406 101.4375 86.910156 103.882812 80.757812 103.882812 C 74.601562 103.882812 68.699219 101.4375 64.34375 97.085938 L 7.121094 39.859375 C 2.765625 35.507812 0.324219 29.605469 0.324219 23.449219 C 0.324219 17.292969 2.765625 11.390625 7.121094 7.039062 Z M 7.121094 7.039062 " clip-rule="nonzero"/></clipPath><clipPath id="ef537dc503"><rect x="0" width="104" y="0" height="104"/></clipPath><clipPath id="feb24af0a1"><rect x="0" width="301" y="0" height="301"/></clipPath></defs><g transform="matrix(1, 0, 0, 1, 45, 37)"><g clip-path="url(#feb24af0a1)"><g clip-path="url(#29090dbd30)"><path fill="#fefefe" d="M 281.066406 255.800781 L 225.769531 200.476562 C 267.144531 145.183594 255.863281 66.8125 200.566406 25.4375 C 145.273438 -15.941406 66.902344 -4.660156 25.527344 50.636719 C -15.851562 105.929688 -4.570312 184.300781 50.726562 225.675781 C 95.144531 258.914062 156.148438 258.914062 200.566406 225.675781 L 255.890625 281 C 262.84375 287.953125 274.113281 287.953125 281.066406 281 C 288.019531 274.046875 288.019531 262.777344 281.066406 255.824219 Z M 126.109375 215 C 76.964844 215 37.125 175.160156 37.125 126.019531 C 37.125 76.875 76.964844 37.035156 126.109375 37.035156 C 175.25 37.035156 215.089844 76.875 215.089844 126.019531 C 215.039062 175.140625 175.230469 214.945312 126.109375 215 Z M 126.109375 215 " fill-opacity="1" fill-rule="nonzero"/></g><g clip-path="url(#f477ec6fc7)"><g clip-path="url(#98ca458f25)"><g transform="matrix(1, 0, 0, 1, 63, 63)"><g clip-path="url(#06db6d5dac)"><g clip-path="url(#c62f67375f)"><g clip-path="url(#924af4ae7f)"><path fill="#fefefe" d="M 0.980469 0.898438 L 125.484375 0.898438 L 125.484375 125.40625 L 0.980469 125.40625 Z M 0.980469 0.898438 " fill-opacity="1" fill-rule="nonzero"/></g></g></g></g></g></g><g clip-path="url(#6f62ca643f)"><g clip-path="url(#38c34637d6)"><g clip-path="url(#ad590011b8)"><g transform="matrix(1, 0, 0, 1, 187, 187)"><g clip-path="url(#ef537dc503)"><g clip-path="url(#70205f2446)"><g clip-path="url(#dccf3578d5)"><g clip-path="url(#d25e8839dd)"><path fill="#ffffff" d="M -9.289062 23.449219 L 23.53125 -9.375 L 113.535156 80.628906 L 80.710938 113.453125 Z M -9.289062 23.449219 " fill-opacity="1" fill-rule="nonzero"/></g></g></g></g></g></g></g></g></g></g></svg>