<svg xmlns="http://www.w3.org/2000/svg" xmlns:xlink="http://www.w3.org/1999/xlink" width="500" zoomAndPan="magnify" viewBox="0 0 375 374.999991" height="500" preserveAspectRatio="xMidYMid meet" version="1.0"><defs><clipPath id="af0737f9f1"><path d="M 45.578125 37.5 L 331.328125 37.5 L 331.328125 323.25 L 45.578125 323.25 Z M 45.578125 37.5 " clip-rule="nonzero"/></clipPath><clipPath id="914c73edd5"><path d="M 232 224 L 336 224 L 336 328 L 232 328 Z M 232 224 " clip-rule="nonzero"/></clipPath><clipPath id="95772042e2"><path d="M 222.710938 247.449219 L 255.535156 214.625 L 345.664062 304.757812 L 312.84375 337.578125 Z M 222.710938 247.449219 " clip-rule="nonzero"/></clipPath><clipPath id="b43a411d4e"><path d="M 239.121094 231.035156 C 243.476562 226.683594 249.378906 224.238281 255.535156 224.238281 C 261.6875 224.238281 267.59375 226.683594 271.945312 231.035156 L 329.167969 288.261719 C 333.523438 292.613281 335.96875 298.519531 335.96875 304.671875 C 335.96875 310.828125 333.523438 316.730469 329.167969 321.082031 C 324.816406 325.4375 318.914062 327.882812 312.757812 327.882812 C 306.605469 327.882812 300.699219 325.4375 296.347656 321.082031 L 239.121094 263.859375 C 234.769531 259.507812 232.324219 253.601562 232.324219 247.449219 C 232.324219 241.292969 234.769531 235.390625 239.121094 231.035156 Z M 239.121094 231.035156 " clip-rule="nonzero"/></clipPath><clipPath id="8f29299ff4"><path d="M 0.320312 0.160156 L 104 0.160156 L 104 104 L 0.320312 104 Z M 0.320312 0.160156 " clip-rule="nonzero"/></clipPath><clipPath id="1b07ecd690"><path d="M -9.289062 23.449219 L 23.535156 -9.375 L 113.664062 80.757812 L 80.84375 113.578125 Z M -9.289062 23.449219 " clip-rule="nonzero"/></clipPath><clipPath id="04052071c7"><path d="M 7.121094 7.035156 C 11.476562 2.683594 17.378906 0.238281 23.535156 0.238281 C 29.6875 0.238281 35.59375 2.683594 39.945312 7.035156 L 97.167969 64.261719 C 101.523438 68.613281 103.96875 74.519531 103.96875 80.671875 C 103.96875 86.828125 101.523438 92.730469 97.167969 97.082031 C 92.816406 101.4375 86.914062 103.882812 80.757812 103.882812 C 74.605469 103.882812 68.699219 101.4375 64.347656 97.082031 L 7.121094 39.859375 C 2.769531 35.507812 0.324219 29.601562 0.324219 23.449219 C 0.324219 17.292969 2.769531 11.390625 7.121094 7.035156 Z M 7.121094 7.035156 " clip-rule="nonzero"/></clipPath><clipPath id="429ce2f0da"><rect x="0" width="104" y="0" height="104"/></clipPath></defs><g clip-path="url(#af0737f9f1)"><path fill="#fefefe" d="M 326.054688 292.789062 L 270.757812 237.46875 C 312.136719 182.175781 300.851562 103.8125 245.558594 62.433594 C 190.265625 21.058594 111.902344 32.339844 70.527344 87.632812 C 29.148438 142.925781 40.429688 221.292969 95.722656 262.667969 C 140.140625 295.90625 201.144531 295.90625 245.558594 262.667969 L 300.878906 317.988281 C 307.832031 324.941406 319.105469 324.941406 326.054688 317.988281 C 333.007812 311.035156 333.007812 299.765625 326.054688 292.8125 Z M 171.101562 251.992188 C 121.960938 251.992188 82.125 212.15625 82.125 163.011719 C 82.125 113.871094 121.960938 74.035156 171.101562 74.035156 C 220.246094 74.035156 260.082031 113.871094 260.082031 163.011719 C 260.027344 212.132812 220.222656 251.9375 171.101562 251.992188 Z M 171.101562 251.992188 " fill-opacity="1" fill-rule="nonzero"/></g><g clip-path="url(#914c73edd5)"><g clip-path="url(#95772042e2)"><g clip-path="url(#b43a411d4e)"><g transform="matrix(1, 0, 0, 1, 232, 224)"><g clip-path="url(#429ce2f0da)"><g clip-path="url(#8f29299ff4)"><g clip-path="url(#1b07ecd690)"><g clip-path="url(#04052071c7)"><path fill="#ffffff" d="M -9.289062 23.449219 L 23.535156 -9.375 L 113.535156 80.628906 L 80.714844 113.449219 Z M -9.289062 23.449219 " fill-opacity="1" fill-rule="nonzero"/></g></g></g></g></g></g></g></g></svg>