<svg xmlns="http://www.w3.org/2000/svg" xmlns:xlink="http://www.w3.org/1999/xlink" width="500" zoomAndPan="magnify" viewBox="0 0 375 374.999991" height="500" preserveAspectRatio="xMidYMid meet" version="1.0"><path fill="#ffffff" d="M 186.617188 320.007812 C 149.808594 320.007812 118.519531 307.125 92.757812 281.359375 C 66.992188 255.597656 54.109375 224.308594 54.109375 187.5 C 54.109375 150.691406 66.992188 119.402344 92.757812 93.640625 C 118.519531 67.875 149.808594 54.992188 186.617188 54.992188 C 205.910156 54.992188 224.238281 58.925781 241.601562 66.789062 C 258.964844 74.652344 273.800781 86 286.109375 100.832031 L 286.109375 72.382812 C 286.109375 67.515625 287.789062 63.398438 291.152344 60.035156 C 294.515625 56.671875 298.628906 54.992188 303.5 54.992188 C 308.367188 54.992188 312.484375 56.671875 315.847656 60.035156 C 319.210938 63.398438 320.890625 67.515625 320.890625 72.382812 L 320.890625 154.484375 C 320.890625 160.238281 318.878906 165.125 314.851562 169.148438 C 310.828125 173.175781 305.941406 175.1875 300.1875 175.1875 L 217.644531 175.1875 C 212.777344 175.1875 208.699219 173.507812 205.410156 170.144531 C 202.121094 166.78125 200.476562 162.664062 200.476562 157.796875 C 200.476562 152.925781 202.15625 148.847656 205.519531 145.558594 C 208.882812 142.269531 212.996094 140.625 217.867188 140.625 L 264.777344 140.625 C 256.445312 126.925781 245.382812 116.128906 231.589844 108.238281 C 217.796875 100.34375 202.808594 96.398438 186.617188 96.398438 C 161.3125 96.398438 139.800781 105.253906 122.085938 122.96875 C 104.371094 140.683594 95.515625 162.195312 95.515625 187.5 C 95.515625 212.804688 104.371094 234.316406 122.085938 252.03125 C 139.800781 269.746094 161.3125 278.601562 186.617188 278.601562 C 202.707031 278.601562 217.554688 274.660156 231.164062 266.78125 C 244.773438 258.902344 255.6875 248.363281 263.910156 235.171875 C 266.875 230.644531 270.984375 227.480469 276.230469 225.679688 C 281.476562 223.878906 286.644531 223.925781 291.730469 225.816406 C 297.074219 227.707031 300.953125 231.175781 303.363281 236.226562 C 305.773438 241.277344 305.644531 246.066406 302.972656 250.59375 C 291.414062 271.574219 275.332031 288.390625 254.730469 301.035156 C 234.128906 313.683594 211.425781 320.007812 186.617188 320.007812 Z M 186.617188 320.007812 " fill-opacity="1" fill-rule="nonzero"/></svg>