<svg xmlns="http://www.w3.org/2000/svg" xmlns:xlink="http://www.w3.org/1999/xlink" width="500" zoomAndPan="magnify" viewBox="0 0 375 374.999991" height="500" preserveAspectRatio="xMidYMid meet" version="1.0"><path fill="#ffffff" d="M 187.542969 265.753906 C 192.535156 265.753906 196.75 264.035156 200.191406 260.601562 C 203.628906 257.160156 205.34375 252.945312 205.34375 247.953125 C 205.34375 242.960938 203.628906 238.714844 200.191406 235.207031 C 196.75 231.699219 192.535156 229.945312 187.542969 229.945312 C 182.554688 229.945312 178.335938 231.699219 174.898438 235.207031 C 171.460938 238.714844 169.742188 242.960938 169.742188 247.953125 C 169.742188 252.945312 171.460938 257.160156 174.898438 260.601562 C 178.335938 264.035156 182.554688 265.753906 187.542969 265.753906 Z M 199.152344 203.300781 C 202.3125 200.140625 203.890625 196.269531 203.890625 191.695312 L 203.890625 126.71875 C 203.890625 122.140625 202.3125 118.273438 199.152344 115.113281 C 195.992188 111.953125 192.121094 110.371094 187.542969 110.371094 C 182.964844 110.371094 179.097656 111.953125 175.9375 115.113281 C 172.777344 118.273438 171.195312 122.140625 171.195312 126.71875 L 171.195312 191.695312 C 171.195312 196.269531 172.777344 200.140625 175.9375 203.300781 C 179.097656 206.464844 182.964844 208.042969 187.542969 208.042969 C 192.121094 208.042969 195.992188 206.464844 199.152344 203.300781 Z M 145.621094 326.789062 C 140.460938 326.789062 135.515625 325.8125 130.789062 323.859375 C 126.0625 321.90625 121.871094 319.097656 118.207031 315.4375 L 59.652344 256.878906 C 55.992188 253.21875 53.183594 249.023438 51.230469 244.300781 C 49.277344 239.574219 48.300781 234.628906 48.300781 229.464844 L 48.300781 145.621094 C 48.300781 140.460938 49.277344 135.515625 51.230469 130.789062 C 53.183594 126.0625 55.992188 121.871094 59.652344 118.207031 L 118.207031 59.652344 C 121.871094 55.992188 126.0625 53.183594 130.789062 51.230469 C 135.515625 49.277344 140.460938 48.300781 145.621094 48.300781 L 229.464844 48.300781 C 234.628906 48.300781 239.574219 49.277344 244.300781 51.230469 C 249.023438 53.183594 253.21875 55.992188 256.878906 59.652344 L 315.4375 118.207031 C 319.097656 121.871094 321.90625 126.0625 323.859375 130.789062 C 325.8125 135.515625 326.789062 140.460938 326.789062 145.621094 L 326.789062 229.464844 C 326.789062 234.628906 325.8125 239.574219 323.859375 244.300781 C 321.90625 249.023438 319.097656 253.21875 315.4375 256.878906 L 256.878906 315.4375 C 253.21875 319.097656 249.023438 321.90625 244.300781 323.859375 C 239.574219 325.8125 234.628906 326.789062 229.464844 326.789062 Z M 145.621094 326.789062 " fill-opacity="1" fill-rule="nonzero"/></svg>