<svg xmlns="http://www.w3.org/2000/svg" xmlns:xlink="http://www.w3.org/1999/xlink" width="500" zoomAndPan="magnify" viewBox="0 0 375 374.999991" height="500" preserveAspectRatio="xMidYMid meet" version="1.0"><path fill="#ffffff" d="M 187.5 265.710938 C 192.492188 265.710938 196.707031 263.992188 200.144531 260.554688 C 203.582031 257.117188 205.300781 252.902344 205.300781 247.910156 C 205.300781 242.917969 203.582031 238.667969 200.144531 235.160156 C 196.707031 231.65625 192.492188 229.902344 187.5 229.902344 C 182.507812 229.902344 178.292969 231.65625 174.855469 235.160156 C 171.417969 238.667969 169.699219 242.917969 169.699219 247.910156 C 169.699219 252.902344 171.417969 257.117188 174.855469 260.554688 C 178.292969 263.992188 182.507812 265.710938 187.5 265.710938 Z M 199.105469 203.257812 C 202.265625 200.097656 203.847656 196.226562 203.847656 191.648438 L 203.847656 126.675781 C 203.847656 122.097656 202.265625 118.230469 199.105469 115.070312 C 195.945312 111.910156 192.078125 110.328125 187.5 110.328125 C 182.921875 110.328125 179.054688 111.910156 175.894531 115.070312 C 172.734375 118.230469 171.152344 122.097656 171.152344 126.675781 L 171.152344 191.648438 C 171.152344 196.226562 172.734375 200.097656 175.894531 203.257812 C 179.054688 206.417969 182.921875 208 187.5 208 C 192.078125 208 195.945312 206.417969 199.105469 203.257812 Z M 145.578125 326.746094 C 140.414062 326.746094 135.472656 325.769531 130.742188 323.816406 C 126.019531 321.859375 121.824219 319.054688 118.164062 315.390625 L 59.609375 256.835938 C 55.945312 253.175781 53.140625 248.980469 51.183594 244.257812 C 49.230469 239.527344 48.253906 234.585938 48.253906 229.421875 L 48.253906 145.578125 C 48.253906 140.414062 49.230469 135.472656 51.183594 130.742188 C 53.140625 126.019531 55.945312 121.824219 59.609375 118.164062 L 118.164062 59.609375 C 121.824219 55.945312 126.019531 53.140625 130.742188 51.183594 C 135.472656 49.230469 140.414062 48.253906 145.578125 48.253906 L 229.421875 48.253906 C 234.585938 48.253906 239.527344 49.230469 244.257812 51.183594 C 248.980469 53.140625 253.175781 55.945312 256.835938 59.609375 L 315.390625 118.164062 C 319.054688 121.824219 321.859375 126.019531 323.816406 130.742188 C 325.769531 135.472656 326.746094 140.414062 326.746094 145.578125 L 326.746094 229.421875 C 326.746094 234.585938 325.769531 239.527344 323.816406 244.257812 C 321.859375 248.980469 319.054688 253.175781 315.390625 256.835938 L 256.835938 315.390625 C 253.175781 319.054688 248.980469 321.859375 244.257812 323.816406 C 239.527344 325.769531 234.585938 326.746094 229.421875 326.746094 Z M 145.945312 287.824219 L 229.054688 287.824219 L 287.824219 229.054688 L 287.824219 145.945312 L 229.054688 87.175781 L 145.945312 87.175781 L 87.175781 145.945312 L 87.175781 229.054688 Z M 145.945312 287.824219 " fill-opacity="1" fill-rule="nonzero"/></svg>