<svg xmlns="http://www.w3.org/2000/svg" xmlns:xlink="http://www.w3.org/1999/xlink" width="500" zoomAndPan="magnify" viewBox="0 0 375 374.999991" height="500" preserveAspectRatio="xMidYMid meet" version="1.0"><defs><clipPath id="406ad4b4e4"><path d="M 32.222656 155.628906 L 347.328125 155.628906 L 347.328125 219.347656 L 32.222656 219.347656 Z M 32.222656 155.628906 " clip-rule="nonzero"/></clipPath><clipPath id="57c0bd66c4"><path d="M 64.082031 155.628906 L 315.382812 155.628906 C 323.835938 155.628906 331.9375 158.988281 337.914062 164.960938 C 343.886719 170.9375 347.242188 179.039062 347.242188 187.488281 C 347.242188 195.9375 343.886719 204.042969 337.914062 210.015625 C 331.9375 215.992188 323.835938 219.347656 315.382812 219.347656 L 64.082031 219.347656 C 55.632812 219.347656 47.527344 215.992188 41.554688 210.015625 C 35.578125 204.042969 32.222656 195.9375 32.222656 187.488281 C 32.222656 179.039062 35.578125 170.9375 41.554688 164.960938 C 47.527344 158.988281 55.632812 155.628906 64.082031 155.628906 Z M 64.082031 155.628906 " clip-rule="nonzero"/></clipPath><clipPath id="28f9fabcc7"><path d="M 0.222656 0.628906 L 315.28125 0.628906 L 315.28125 64.347656 L 0.222656 64.347656 Z M 0.222656 0.628906 " clip-rule="nonzero"/></clipPath><clipPath id="29bec5e314"><path d="M 32.082031 0.628906 L 283.382812 0.628906 C 291.835938 0.628906 299.9375 3.988281 305.914062 9.960938 C 311.886719 15.9375 315.242188 24.039062 315.242188 32.488281 C 315.242188 40.9375 311.886719 49.042969 305.914062 55.015625 C 299.9375 60.992188 291.835938 64.347656 283.382812 64.347656 L 32.082031 64.347656 C 23.632812 64.347656 15.527344 60.992188 9.554688 55.015625 C 3.578125 49.042969 0.222656 40.9375 0.222656 32.488281 C 0.222656 24.039062 3.578125 15.9375 9.554688 9.960938 C 15.527344 3.988281 23.632812 0.628906 32.082031 0.628906 Z M 32.082031 0.628906 " clip-rule="nonzero"/></clipPath><clipPath id="9e292407ee"><rect x="0" width="316" y="0" height="65"/></clipPath><clipPath id="8b1eb3390e"><path d="M 18 156 L 191 156 L 191 329 L 18 329 Z M 18 156 " clip-rule="nonzero"/></clipPath><clipPath id="7947baac1d"><path d="M 159.316406 341.75 L 4.890625 187.324219 L 49.410156 142.804688 L 203.835938 297.230469 Z M 159.316406 341.75 " clip-rule="nonzero"/></clipPath><clipPath id="c76c0f1465"><path d="M 137.058594 319.492188 L 27.3125 209.746094 C 21.40625 203.84375 18.089844 195.835938 18.089844 187.484375 C 18.089844 179.136719 21.40625 171.128906 27.3125 165.226562 C 33.214844 159.324219 41.222656 156.007812 49.570312 156.007812 C 57.921875 156.007812 65.925781 159.324219 71.832031 165.226562 L 181.578125 274.972656 C 187.480469 280.875 190.796875 288.882812 190.796875 297.230469 C 190.796875 305.582031 187.480469 313.589844 181.578125 319.492188 C 175.671875 325.394531 167.667969 328.710938 159.316406 328.710938 C 150.96875 328.710938 142.960938 325.394531 137.058594 319.492188 Z M 137.058594 319.492188 " clip-rule="nonzero"/></clipPath><clipPath id="1fa0ce1abc"><path d="M 0 0 L 172.800781 0 L 172.800781 172.800781 L 0 172.800781 Z M 0 0 " clip-rule="nonzero"/></clipPath><clipPath id="c81f30ce66"><path d="M 141.316406 185.75 L -13.109375 31.324219 L 31.410156 -13.195312 L 185.835938 141.230469 Z M 141.316406 185.75 " clip-rule="nonzero"/></clipPath><clipPath id="2a9bb4f389"><path d="M 119.058594 163.492188 L 9.3125 53.746094 C 3.40625 47.84375 0.0898438 39.835938 0.0898438 31.484375 C 0.0898438 23.136719 3.40625 15.128906 9.3125 9.226562 C 15.214844 3.324219 23.222656 0.0078125 31.570312 0.0078125 C 39.921875 0.0078125 47.925781 3.324219 53.832031 9.226562 L 163.578125 118.972656 C 169.480469 124.875 172.796875 132.882812 172.796875 141.230469 C 172.796875 149.582031 169.480469 157.589844 163.578125 163.492188 C 157.671875 169.394531 149.667969 172.710938 141.316406 172.710938 C 132.96875 172.710938 124.960938 169.394531 119.058594 163.492188 Z M 119.058594 163.492188 " clip-rule="nonzero"/></clipPath><clipPath id="d0ead481bc"><rect x="0" width="173" y="0" height="173"/></clipPath><clipPath id="3b0d4c97e9"><path d="M 18 46 L 191 46 L 191 219 L 18 219 Z M 18 46 " clip-rule="nonzero"/></clipPath><clipPath id="8c024e68e8"><path d="M 203.832031 77.742188 L 49.40625 232.167969 L 4.886719 187.648438 L 159.3125 33.222656 Z M 203.832031 77.742188 " clip-rule="nonzero"/></clipPath><clipPath id="d51261074b"><path d="M 181.574219 100 L 71.828125 209.746094 C 65.925781 215.648438 57.917969 218.96875 49.566406 218.96875 C 41.21875 218.96875 33.210938 215.648438 27.308594 209.746094 C 21.40625 203.84375 18.089844 195.835938 18.089844 187.488281 C 18.089844 179.136719 21.40625 171.132812 27.308594 165.226562 L 137.054688 55.480469 C 142.957031 49.578125 150.964844 46.261719 159.3125 46.261719 C 167.664062 46.261719 175.671875 49.578125 181.574219 55.480469 C 187.476562 61.386719 190.792969 69.390625 190.792969 77.742188 C 190.792969 86.089844 187.476562 94.097656 181.574219 100 Z M 181.574219 100 " clip-rule="nonzero"/></clipPath><clipPath id="6c987c66fa"><path d="M 0 0.078125 L 172.800781 0.078125 L 172.800781 173 L 0 173 Z M 0 0.078125 " clip-rule="nonzero"/></clipPath><clipPath id="b24f5489fa"><path d="M 185.832031 31.742188 L 31.40625 186.167969 L -13.113281 141.648438 L 141.3125 -12.777344 Z M 185.832031 31.742188 " clip-rule="nonzero"/></clipPath><clipPath id="edd4dff0b5"><path d="M 163.574219 54 L 53.828125 163.746094 C 47.925781 169.648438 39.917969 172.96875 31.566406 172.96875 C 23.21875 172.96875 15.210938 169.648438 9.308594 163.746094 C 3.40625 157.84375 0.0898438 149.835938 0.0898438 141.488281 C 0.0898438 133.136719 3.40625 125.132812 9.308594 119.226562 L 119.054688 9.480469 C 124.957031 3.578125 132.964844 0.261719 141.3125 0.261719 C 149.664062 0.261719 157.671875 3.578125 163.574219 9.480469 C 169.476562 15.386719 172.792969 23.390625 172.792969 31.742188 C 172.792969 40.089844 169.476562 48.097656 163.574219 54 Z M 163.574219 54 " clip-rule="nonzero"/></clipPath><clipPath id="f2414d6e3e"><rect x="0" width="173" y="0" height="173"/></clipPath><clipPath id="19a702a7eb"><rect x="0" width="369" y="0" height="375"/></clipPath></defs><g transform="matrix(1, 0, 0, 1, 6, 0)"><g clip-path="url(#19a702a7eb)"><g clip-path="url(#406ad4b4e4)"><g clip-path="url(#57c0bd66c4)"><g transform="matrix(1, 0, 0, 1, 32, 155)"><g clip-path="url(#9e292407ee)"><g clip-path="url(#28f9fabcc7)"><g clip-path="url(#29bec5e314)"><path fill="#ffffff" d="M 0.222656 0.628906 L 315.328125 0.628906 L 315.328125 64.347656 L 0.222656 64.347656 Z M 0.222656 0.628906 " fill-opacity="1" fill-rule="nonzero"/></g></g></g></g></g></g><g clip-path="url(#8b1eb3390e)"><g clip-path="url(#7947baac1d)"><g clip-path="url(#c76c0f1465)"><g transform="matrix(1, 0, 0, 1, 18, 156)"><g clip-path="url(#d0ead481bc)"><g clip-path="url(#1fa0ce1abc)"><g clip-path="url(#c81f30ce66)"><g clip-path="url(#2a9bb4f389)"><path fill="#ffffff" d="M 141.316406 185.75 L -12.933594 31.5 L 31.585938 -13.019531 L 185.835938 141.230469 Z M 141.316406 185.75 " fill-opacity="1" fill-rule="nonzero"/></g></g></g></g></g></g></g></g><g clip-path="url(#3b0d4c97e9)"><g clip-path="url(#8c024e68e8)"><g clip-path="url(#d51261074b)"><g transform="matrix(1, 0, 0, 1, 18, 46)"><g clip-path="url(#f2414d6e3e)"><g clip-path="url(#6c987c66fa)"><g clip-path="url(#b24f5489fa)"><g clip-path="url(#edd4dff0b5)"><path fill="#ffffff" d="M 185.832031 31.742188 L 31.582031 185.992188 L -12.9375 141.472656 L 141.3125 -12.777344 Z M 185.832031 31.742188 " fill-opacity="1" fill-rule="nonzero"/></g></g></g></g></g></g></g></g></g></g></svg>