<svg xmlns="http://www.w3.org/2000/svg" xmlns:xlink="http://www.w3.org/1999/xlink" width="500" zoomAndPan="magnify" viewBox="0 0 375 374.999991" height="500" preserveAspectRatio="xMidYMid meet" version="1.0"><path fill="#ffffff" d="M 122.570312 168.15625 C 125.054688 163.3125 127.585938 158.628906 130.167969 154.101562 C 132.75 149.574219 135.605469 144.988281 138.726562 140.335938 L 122.6875 137.042969 L 100.886719 159.03125 Z M 284.304688 83.582031 C 268.738281 84.65625 252.835938 89.40625 236.601562 97.828125 C 220.367188 106.25 205.460938 117.25 191.882812 130.824219 C 182.671875 140.035156 174.644531 149.636719 167.808594 159.617188 C 160.972656 169.605469 155.335938 179.644531 150.894531 189.738281 L 187.230469 226.113281 C 197.324219 221.675781 207.394531 216.070312 217.441406 209.296875 C 227.488281 202.523438 237.121094 194.53125 246.332031 185.316406 C 259.910156 171.738281 270.875 156.824219 279.234375 140.578125 C 287.59375 124.328125 292.375 108.417969 293.574219 92.851562 C 293.699219 91.585938 293.5625 90.347656 293.167969 89.144531 C 292.769531 87.941406 292.113281 86.878906 291.195312 85.960938 C 290.277344 85.042969 289.214844 84.386719 288.011719 83.988281 C 286.808594 83.59375 285.570312 83.457031 284.304688 83.582031 Z M 209.085938 142.722656 C 209.085938 135.648438 211.519531 129.683594 216.382812 124.820312 C 221.246094 119.953125 227.207031 117.523438 234.265625 117.523438 C 241.324219 117.523438 247.289062 119.953125 252.152344 124.820312 C 257.015625 129.683594 259.445312 135.648438 259.445312 142.722656 C 259.445312 149.796875 257.015625 155.765625 252.152344 160.628906 C 247.289062 165.492188 241.324219 167.925781 234.265625 167.925781 C 227.207031 167.925781 221.246094 165.492188 216.382812 160.628906 C 211.519531 155.765625 209.085938 149.796875 209.085938 142.722656 Z M 209 254.253906 L 218.125 276.269531 L 239.921875 254.46875 L 236.820312 238.242188 C 232.167969 241.363281 227.582031 244.191406 223.054688 246.722656 C 218.53125 249.257812 213.84375 251.769531 209 254.253906 Z M 329.296875 66.6875 C 330.574219 94.667969 326.164062 120.6875 316.0625 144.746094 C 305.960938 168.804688 290.601562 191.144531 269.976562 211.769531 C 269.722656 212.019531 269.410156 212.335938 269.035156 212.714844 C 268.65625 213.089844 268.339844 213.402344 268.089844 213.65625 L 274.949219 247.246094 C 276.09375 253.078125 275.777344 258.828125 274 264.5 C 272.226562 270.171875 269.214844 275.128906 264.972656 279.375 L 224.824219 319.519531 C 220.480469 323.863281 215.191406 325.515625 208.949219 324.488281 C 202.707031 323.457031 198.382812 320.027344 195.972656 314.199219 L 174.117188 262.914062 L 114.242188 203.039062 L 62.957031 181.183594 C 57.128906 178.773438 53.644531 174.480469 52.503906 168.300781 C 51.359375 162.121094 52.960938 156.859375 57.300781 152.519531 L 97.828125 111.996094 C 102.070312 107.75 106.988281 104.804688 112.585938 103.15625 C 118.179688 101.507812 123.890625 101.253906 129.722656 102.394531 L 163.503906 109.257812 C 163.753906 109.003906 164.003906 108.722656 164.257812 108.40625 C 164.507812 108.09375 164.757812 107.808594 165.011719 107.558594 C 185.886719 86.683594 208.320312 71.226562 232.316406 61.1875 C 256.308594 51.152344 282.300781 46.707031 310.285156 47.859375 C 312.691406 47.957031 315.003906 48.488281 317.222656 49.453125 C 319.441406 50.421875 321.46875 51.824219 323.308594 53.660156 C 325.144531 55.496094 326.578125 57.523438 327.605469 59.746094 C 328.636719 61.964844 329.199219 64.277344 329.296875 66.6875 Z M 72.09375 241.5625 C 81.136719 232.519531 91.996094 227.945312 104.671875 227.832031 C 117.347656 227.722656 128.207031 232.1875 137.25 241.230469 C 146.289062 250.269531 150.753906 261.128906 150.640625 273.804688 C 150.53125 286.480469 145.953125 297.339844 136.914062 306.378906 C 124.984375 318.3125 110.726562 325.5 94.148438 327.941406 C 77.570312 330.382812 61 332.476562 44.4375 334.230469 C 46.1875 317.539062 48.25 300.90625 50.628906 284.328125 C 53.007812 267.75 60.164062 253.496094 72.09375 241.5625 Z M 97.332031 266.464844 C 94.308594 269.492188 92.164062 273.171875 90.910156 277.503906 C 89.652344 281.835938 88.640625 286.214844 87.875 290.644531 C 92.304688 289.878906 96.683594 288.859375 101.015625 287.589844 C 105.347656 286.320312 109.027344 284.171875 112.054688 281.144531 C 114.222656 278.976562 115.351562 276.476562 115.449219 273.636719 C 115.546875 270.800781 114.511719 268.296875 112.34375 266.132812 C 110.179688 263.964844 107.675781 262.9375 104.839844 263.050781 C 102 263.160156 99.5 264.300781 97.332031 266.464844 Z M 97.332031 266.464844 " fill-opacity="1" fill-rule="nonzero"/></svg>