<svg xmlns="http://www.w3.org/2000/svg" height="24px" viewBox="0 -960 960 960" width="24px" fill="#FFFFFF"><path d="M657.21-50Q592-50 546-95.5T500-206q0-10 4-22L299-351q-20.21 13.87-43.06 21.44Q233.09-322 207-322q-66 0-111.5-46.12t-45.5-112Q50-546 95.5-592.5T207-639q27 0 50.72 8.53Q281.45-621.94 302-607l201-122q-1-6-2-12.31-1-6.31-1-11.69 0-65.83 46.08-111.92Q592.17-911 658-911q65 0 111 46.5T815-753q0 65-46.21 111T658-596q-27.91 0-53.45-9.5Q579-615 559-631L362-514q2 8.05 3 17.02 1 8.98 1 17.48t-1 17.65q-1 9.15-4 17.85l196 118q22-18 46.5-28t54.5-10q65.42 0 111.21 46.08Q815-271.83 815-206q0 65.42-46.29 110.71Q722.41-50 657.21-50Zm-.65-118q16.39 0 28.41-11.39Q697-190.78 697-207.61q0-16.84-11.79-27.62Q673.42-246 656-246q-15.4 0-26.7 11.5Q618-223 618-207.53q0 15.93 11.09 27.73 11.08 11.8 27.47 11.8Zm-449.6-272q16.99 0 29.02-11.78Q248-463.56 248-480.28T235.91-509q-12.09-12-28.61-12t-27.91 11.78Q168-497.44 168-480.72T179.2-452q11.2 12 27.76 12ZM684.5-725.18q11.5-11.17 11.5-27.7 0-16.52-11.18-28.32-11.17-11.8-27.7-11.8-16.52 0-28.32 11.64T617-752.51q0 16.36 12.18 27.44 12.17 11.07 28 11.07 15.82 0 27.32-11.18ZM659-207ZM208-480Zm450-274Z"/></svg>