<svg xmlns="http://www.w3.org/2000/svg" xmlns:xlink="http://www.w3.org/1999/xlink" width="500" zoomAndPan="magnify" viewBox="0 0 375 374.999991" height="500" preserveAspectRatio="xMidYMid meet" version="1.0"><path fill="#ffffff" d="M 153.996094 113.308594 L 240.335938 113.308594 C 244.878906 113.308594 248.730469 114.886719 251.882812 118.039062 C 255.035156 121.195312 256.613281 125.042969 256.613281 129.585938 C 256.613281 134.128906 255.035156 137.976562 251.882812 141.132812 C 248.730469 144.285156 244.878906 145.863281 240.335938 145.863281 L 153.996094 145.863281 C 149.453125 145.863281 145.605469 144.285156 142.449219 141.132812 C 139.296875 137.976562 137.71875 134.128906 137.71875 129.585938 C 137.71875 125.042969 139.296875 121.195312 142.449219 118.039062 C 145.605469 114.886719 149.453125 113.308594 153.996094 113.308594 Z M 153.996094 159.613281 L 240.335938 159.613281 C 244.878906 159.613281 248.730469 161.1875 251.882812 164.339844 C 255.035156 167.496094 256.613281 171.34375 256.613281 175.886719 C 256.613281 180.429688 255.035156 184.277344 251.882812 187.429688 C 248.730469 190.585938 244.878906 192.164062 240.335938 192.164062 L 153.996094 192.164062 C 149.453125 192.164062 145.605469 190.585938 142.449219 187.429688 C 139.296875 184.277344 137.71875 180.429688 137.71875 175.886719 C 137.71875 171.34375 139.296875 167.496094 142.449219 164.339844 C 145.605469 161.1875 149.453125 159.613281 153.996094 159.613281 Z M 175.085938 295.167969 L 82.332031 295.167969 Z M 96.082031 331.605469 C 82.160156 331.605469 70.316406 326.722656 60.546875 316.953125 C 50.777344 307.183594 45.894531 295.339844 45.894531 281.417969 L 45.894531 249.839844 C 45.894531 244.777344 47.664062 240.472656 51.207031 236.929688 C 54.75 233.390625 59.050781 231.621094 64.113281 231.621094 L 87.53125 231.621094 L 87.53125 79.832031 C 87.53125 69.679688 91.066406 61.066406 98.136719 53.996094 C 105.207031 46.929688 113.816406 43.394531 123.96875 43.394531 L 270.363281 43.394531 C 280.515625 43.394531 289.128906 46.929688 296.199219 53.996094 C 303.265625 61.066406 306.800781 69.679688 306.800781 79.832031 L 306.800781 157.667969 C 306.800781 162.730469 305.027344 167.03125 301.488281 170.574219 C 297.945312 174.117188 293.644531 175.886719 288.582031 175.886719 C 283.519531 175.886719 279.21875 174.117188 275.675781 170.574219 C 272.132812 167.03125 270.363281 162.730469 270.363281 157.667969 L 270.363281 79.832031 L 123.96875 79.832031 L 123.96875 231.621094 L 156.867188 231.621094 C 161.929688 231.621094 166.230469 233.390625 169.769531 236.929688 C 173.3125 240.472656 175.085938 244.777344 175.085938 249.839844 C 175.085938 254.898438 173.3125 259.199219 169.769531 262.742188 C 166.230469 266.285156 161.929688 268.058594 156.867188 268.058594 L 82.332031 268.058594 L 82.332031 281.417969 C 82.332031 285.316406 83.648438 288.582031 86.285156 291.214844 C 88.917969 293.851562 92.183594 295.167969 96.082031 295.167969 L 156.867188 295.167969 C 161.929688 295.167969 166.230469 296.941406 169.769531 300.480469 C 173.3125 304.023438 175.085938 308.324219 175.085938 313.386719 C 175.085938 318.449219 173.3125 322.75 169.769531 326.292969 C 166.230469 329.835938 161.929688 331.605469 156.867188 331.605469 Z M 202.585938 313.386719 L 202.585938 291.476562 C 202.585938 288.996094 203.058594 286.667969 204.003906 284.496094 C 204.949219 282.324219 206.304688 280.359375 208.070312 278.59375 L 279.71875 207.09375 C 282.171875 204.640625 284.882812 202.859375 287.855469 201.75 C 290.828125 200.640625 293.835938 200.085938 296.875 200.085938 C 300.144531 200.085938 303.265625 200.699219 306.238281 201.921875 C 309.214844 203.148438 311.925781 204.984375 314.378906 207.4375 L 327.097656 220.15625 C 329.320312 222.609375 331.042969 225.320312 332.269531 228.292969 C 333.492188 231.265625 334.105469 234.273438 334.105469 237.3125 C 334.105469 240.480469 333.550781 243.578125 332.441406 246.605469 C 331.328125 249.628906 329.546875 252.363281 327.097656 254.816406 L 255.597656 326.316406 C 253.832031 328.078125 251.863281 329.402344 249.691406 330.285156 C 247.519531 331.164062 245.195312 331.605469 242.714844 331.605469 L 220.804688 331.605469 C 215.742188 331.605469 211.441406 329.835938 207.898438 326.292969 C 204.355469 322.75 202.585938 318.449219 202.585938 313.386719 Z M 309.59375 237.3125 L 296.875 224.59375 Z M 227.09375 307.09375 L 240.15625 307.09375 L 280.972656 265.933594 L 274.785156 259.402344 L 268.253906 253.214844 L 227.09375 294.03125 Z M 274.785156 259.402344 L 268.253906 253.214844 L 280.972656 265.933594 Z M 274.785156 259.402344 " fill-opacity="1" fill-rule="nonzero"/></svg>