<svg xmlns="http://www.w3.org/2000/svg" xmlns:xlink="http://www.w3.org/1999/xlink" width="500" zoomAndPan="magnify" viewBox="0 0 375 374.999991" height="500" preserveAspectRatio="xMidYMid meet" version="1.0"><path fill="#ffffff" d="M 91.25 331.023438 C 81.097656 331.023438 72.488281 327.488281 65.417969 320.417969 C 58.347656 313.351562 54.8125 304.738281 54.8125 294.585938 L 54.8125 248.746094 C 54.8125 244.375 55.578125 240.066406 57.113281 235.820312 C 58.648438 231.574219 60.949219 227.800781 64.019531 224.503906 L 85.136719 201.027344 C 88.5625 197.140625 92.898438 195.074219 98.140625 194.832031 C 103.378906 194.585938 107.894531 196.355469 111.679688 200.144531 C 115.105469 203.570312 116.902344 207.734375 117.070312 212.632812 C 117.234375 217.527344 115.667969 221.804688 112.367188 225.464844 L 97.152344 242.5 L 277.847656 242.5 L 262.929688 225.757812 C 259.632812 222.105469 258.097656 217.828125 258.328125 212.929688 C 258.554688 208.035156 260.382812 203.871094 263.8125 200.441406 C 267.597656 196.65625 272.113281 194.886719 277.351562 195.132812 C 282.59375 195.375 286.929688 197.4375 290.355469 201.324219 L 310.980469 224.503906 C 314.050781 227.800781 316.351562 231.574219 317.886719 235.820312 C 319.421875 240.066406 320.1875 244.375 320.1875 248.746094 L 320.1875 294.585938 C 320.1875 304.738281 316.652344 313.351562 309.582031 320.417969 C 302.511719 327.488281 293.902344 331.023438 283.75 331.023438 Z M 91.25 294.585938 L 283.75 294.585938 L 283.75 270 L 91.25 270 Z M 162.183594 214.132812 L 117.988281 169.550781 C 110.902344 162.335938 107.417969 153.691406 107.535156 143.621094 C 107.648438 133.546875 111.246094 124.96875 118.332031 117.882812 L 181.820312 54.394531 C 188.90625 47.308594 197.507812 43.71875 207.632812 43.617188 C 217.753906 43.519531 226.359375 47.074219 233.441406 54.289062 L 277.636719 98.679688 C 284.722656 105.894531 288.28125 114.511719 288.316406 124.53125 C 288.351562 134.554688 284.828125 143.109375 277.742188 150.195312 L 213.460938 214.476562 C 206.375 221.5625 197.828125 225.078125 187.820312 225.027344 C 177.8125 224.980469 169.265625 221.347656 162.183594 214.132812 Z M 252.167969 124.292969 L 207.585938 80.292969 L 143.800781 144.082031 L 188.1875 188.277344 Z M 252.167969 124.292969 " fill-opacity="1" fill-rule="nonzero"/></svg>