<svg xmlns="http://www.w3.org/2000/svg" xmlns:xlink="http://www.w3.org/1999/xlink" width="500" zoomAndPan="magnify" viewBox="0 0 375 374.999991" height="500" preserveAspectRatio="xMidYMid meet" version="1.0"><defs><clipPath id="661c36cdae"><path d="M 123 56 L 275 56 L 275 209 L 123 209 Z M 123 56 " clip-rule="nonzero"/></clipPath><clipPath id="15a3f0c7fd"><path d="M 213.191406 49.65625 L 281.433594 117.898438 L 184.136719 215.191406 L 115.898438 146.953125 Z M 213.191406 49.65625 " clip-rule="nonzero"/></clipPath><clipPath id="6452c1aeb5"><path d="M 225.390625 61.855469 L 269.234375 105.699219 C 272.46875 108.933594 274.289062 113.320312 274.289062 117.898438 C 274.289062 122.472656 272.46875 126.859375 269.234375 130.09375 L 196.371094 202.960938 C 193.132812 206.195312 188.746094 208.011719 184.171875 208.011719 C 179.597656 208.011719 175.207031 206.195312 171.972656 202.960938 L 128.128906 159.117188 C 124.894531 155.878906 123.078125 151.492188 123.078125 146.917969 C 123.078125 142.34375 124.894531 137.957031 128.128906 134.71875 L 200.996094 61.855469 C 204.230469 58.621094 208.617188 56.800781 213.191406 56.800781 C 217.769531 56.800781 222.15625 58.621094 225.390625 61.855469 Z M 225.390625 61.855469 " clip-rule="nonzero"/></clipPath><clipPath id="b0450b61f6"><path d="M 0 0.640625 L 151.320312 0.640625 L 151.320312 152.078125 L 0 152.078125 Z M 0 0.640625 " clip-rule="nonzero"/></clipPath><clipPath id="8198e4cf73"><path d="M 90.191406 -6.34375 L 158.433594 61.898438 L 61.136719 159.191406 L -7.101562 90.953125 Z M 90.191406 -6.34375 " clip-rule="nonzero"/></clipPath><clipPath id="fd4584420b"><path d="M 102.390625 5.855469 L 146.234375 49.699219 C 149.46875 52.933594 151.289062 57.320312 151.289062 61.898438 C 151.289062 66.472656 149.46875 70.859375 146.234375 74.09375 L 73.371094 146.960938 C 70.132812 150.195312 65.746094 152.011719 61.171875 152.011719 C 56.597656 152.011719 52.207031 150.195312 48.972656 146.960938 L 5.128906 103.117188 C 1.894531 99.878906 0.078125 95.492188 0.078125 90.917969 C 0.078125 86.34375 1.894531 81.957031 5.128906 78.71875 L 77.996094 5.855469 C 81.230469 2.621094 85.617188 0.800781 90.191406 0.800781 C 94.769531 0.800781 99.15625 2.621094 102.390625 5.855469 Z M 102.390625 5.855469 " clip-rule="nonzero"/></clipPath><clipPath id="cc3471b56c"><rect x="0" width="152" y="0" height="153"/></clipPath></defs><path fill="#ffffff" d="M 91.25 331.023438 C 81.097656 331.023438 72.488281 327.488281 65.417969 320.417969 C 58.347656 313.351562 54.8125 304.738281 54.8125 294.585938 L 54.8125 248.746094 C 54.8125 244.375 55.578125 240.066406 57.113281 235.820312 C 58.648438 231.574219 60.949219 227.800781 64.019531 224.503906 L 85.136719 201.027344 C 88.5625 197.140625 92.898438 195.074219 98.140625 194.832031 C 103.378906 194.585938 107.894531 196.355469 111.679688 200.144531 C 115.105469 203.570312 116.902344 207.734375 117.070312 212.632812 C 117.234375 217.527344 115.667969 221.804688 112.367188 225.464844 L 97.152344 242.5 L 277.847656 242.5 L 262.929688 225.757812 C 259.632812 222.105469 258.097656 217.828125 258.328125 212.929688 C 258.554688 208.035156 260.382812 203.871094 263.8125 200.441406 C 267.597656 196.65625 272.113281 194.886719 277.351562 195.132812 C 282.59375 195.375 286.929688 197.4375 290.355469 201.324219 L 310.980469 224.503906 C 314.050781 227.800781 316.351562 231.574219 317.886719 235.820312 C 319.421875 240.066406 320.1875 244.375 320.1875 248.746094 L 320.1875 294.585938 C 320.1875 304.738281 316.652344 313.351562 309.582031 320.417969 C 302.511719 327.488281 293.902344 331.023438 283.75 331.023438 Z M 162.03125 214.28125 L 118.136719 169.699219 C 111.050781 162.488281 107.542969 153.816406 107.609375 143.691406 C 107.671875 133.570312 111.246094 124.96875 118.332031 117.882812 L 181.820312 54.394531 C 188.90625 47.308594 197.507812 43.769531 207.632812 43.769531 C 217.753906 43.769531 226.359375 47.375 233.441406 54.589844 L 277.636719 98.679688 C 284.722656 105.890625 288.257812 114.535156 288.242188 124.609375 C 288.226562 134.679688 284.675781 143.261719 277.59375 150.34375 L 213.3125 214.625 C 206.226562 221.710938 197.679688 225.230469 187.671875 225.179688 C 177.664062 225.128906 169.117188 221.496094 162.03125 214.28125 Z M 252.167969 124.144531 L 207.4375 80.292969 L 143.457031 144.082031 L 188.1875 188.125 Z M 252.167969 124.144531 " fill-opacity="1" fill-rule="nonzero"/><g clip-path="url(#661c36cdae)"><g clip-path="url(#15a3f0c7fd)"><g clip-path="url(#6452c1aeb5)"><g transform="matrix(1, 0, 0, 1, 123, 56)"><g clip-path="url(#cc3471b56c)"><g clip-path="url(#b0450b61f6)"><g clip-path="url(#8198e4cf73)"><g clip-path="url(#fd4584420b)"><path fill="#ffffff" d="M 90.191406 -6.34375 L 158.433594 61.898438 L 61.136719 159.191406 L -7.101562 90.953125 Z M 90.191406 -6.34375 " fill-opacity="1" fill-rule="nonzero"/></g></g></g></g></g></g></g></g></svg>