<svg xmlns="http://www.w3.org/2000/svg" height="24px" viewBox="0 -960 960 960" width="24px" fill="#FFFFFF"><path d="M115.22-110.39q-14.96 0-26.79-7.48-11.82-7.48-18.52-19.3-6.69-11.83-7.19-25.72-.5-13.89 7.19-27.28L433.7-820q7.69-13.39 20.3-19.8 12.61-6.42 26-6.42t26 6.42q12.61 6.41 20.3 19.8l363.79 629.83q7.69 13.39 7.19 27.28t-7.19 25.72q-6.7 11.82-18.52 19.3-11.83 7.48-26.79 7.48H115.22Zm76.91-97.52h575.74L480-704.17 192.13-207.91Zm318.07-46.42q12.63-12.63 12.63-30.19 0-17.57-12.63-29.92-12.63-12.34-30.2-12.34t-30.2 12.34q-12.63 12.35-12.63 29.92 0 17.56 12.63 30.19 12.63 12.63 30.2 12.63t30.2-12.63Zm-1.7-117.17Q520-383 520-400v-113.78q0-17-11.5-28.5t-28.5-11.5q-17 0-28.5 11.5t-11.5 28.5V-400q0 17 11.5 28.5T480-360q17 0 28.5-11.5ZM480-456.04Z"/></svg>