<svg xmlns="http://www.w3.org/2000/svg" xmlns:xlink="http://www.w3.org/1999/xlink" width="500" zoomAndPan="magnify" viewBox="0 0 375 374.999991" height="500" preserveAspectRatio="xMidYMid meet" version="1.0"><defs><clipPath id="12168e0e06"><path d="M 63.769531 63.082031 L 311.269531 63.082031 L 311.269531 312 L 63.769531 312 Z M 63.769531 63.082031 " clip-rule="nonzero"/></clipPath></defs><g clip-path="url(#12168e0e06)"><path fill="#ffffff" d="M 275.207031 99.238281 C 251.945312 75.9375 221.003906 63.09375 188.039062 63.082031 C 120.113281 63.082031 64.832031 118.390625 64.804688 186.371094 C 64.792969 208.101562 70.472656 229.3125 81.257812 248.007812 L 63.773438 311.902344 L 129.101562 294.757812 C 147.097656 304.582031 167.367188 309.753906 187.988281 309.761719 L 188.039062 309.761719 C 255.957031 309.761719 311.246094 254.449219 311.269531 186.46875 C 311.28125 153.523438 298.476562 122.550781 275.207031 99.246094 Z M 188.039062 288.941406 L 188 288.941406 C 169.621094 288.933594 151.59375 283.992188 135.867188 274.65625 L 132.125 272.433594 L 93.359375 282.609375 L 103.703125 244.789062 L 101.269531 240.910156 C 91.019531 224.59375 85.597656 205.734375 85.613281 186.375 C 85.636719 129.875 131.582031 83.90625 188.082031 83.90625 C 215.441406 83.917969 241.15625 94.585938 260.496094 113.960938 C 279.835938 133.328125 290.476562 159.082031 290.464844 186.457031 C 290.441406 242.964844 244.492188 288.933594 188.039062 288.933594 Z M 244.222656 212.191406 C 241.144531 210.648438 226.003906 203.199219 223.179688 202.171875 C 220.355469 201.144531 218.304688 200.628906 216.253906 203.714844 C 214.203125 206.800781 208.300781 213.742188 206.503906 215.792969 C 204.710938 217.851562 202.914062 218.105469 199.835938 216.5625 C 196.757812 215.019531 186.835938 211.765625 175.070312 201.273438 C 165.917969 193.101562 159.738281 183.015625 157.941406 179.929688 C 156.144531 176.84375 157.753906 175.179688 159.289062 173.648438 C 160.671875 172.261719 162.367188 170.046875 163.910156 168.25 C 165.453125 166.453125 165.960938 165.164062 166.988281 163.113281 C 168.015625 161.054688 167.5 159.257812 166.734375 157.714844 C 165.964844 156.171875 159.808594 141.007812 157.238281 134.839844 C 154.738281 128.835938 152.199219 129.652344 150.3125 129.550781 C 148.515625 129.460938 146.464844 129.445312 144.410156 129.445312 C 142.355469 129.445312 139.019531 130.210938 136.195312 133.296875 C 133.371094 136.382812 125.417969 143.839844 125.417969 158.996094 C 125.417969 174.15625 136.449219 188.8125 137.992188 190.867188 C 139.535156 192.925781 159.707031 224.039062 190.59375 237.390625 C 197.9375 240.5625 203.675781 242.460938 208.148438 243.878906 C 215.523438 246.226562 222.234375 245.894531 227.539062 245.105469 C 233.457031 244.21875 245.757812 237.648438 248.320312 230.453125 C 250.886719 223.257812 250.886719 217.085938 250.117188 215.804688 C 249.351562 214.519531 247.292969 213.746094 244.214844 212.203125 Z M 244.222656 212.191406 " fill-opacity="1" fill-rule="evenodd"/></g></svg>