<svg xmlns="http://www.w3.org/2000/svg" xmlns:xlink="http://www.w3.org/1999/xlink" width="500" zoomAndPan="magnify" viewBox="0 0 375 374.999991" height="500" preserveAspectRatio="xMidYMid meet" version="1.0"><defs><clipPath id="afb89fd55f"><path d="M 49 48 L 328 48 L 328 329 L 49 329 Z M 49 48 " clip-rule="nonzero"/></clipPath><clipPath id="1c9baf1d53"><path d="M 287.476562 89.347656 C 261.359375 63.195312 226.621094 48.789062 189.597656 48.773438 C 113.328125 48.773438 51.261719 110.820312 51.226562 187.097656 C 51.21875 211.472656 57.589844 235.277344 69.691406 256.25 L 50.421875 307 C 45.621094 319.667969 57.851562 332.136719 70.597656 327.585938 L 123.414062 308.695312 C 143.628906 319.703125 166.386719 325.511719 189.53125 325.523438 L 189.585938 325.523438 C 265.847656 325.523438 327.929688 263.476562 327.957031 187.199219 C 327.976562 150.238281 313.609375 115.492188 287.476562 89.347656 Z M 189.597656 298.324219 L 189.550781 298.324219 C 169.605469 298.324219 150.046875 292.96875 132.980469 282.835938 L 128.917969 280.421875 L 86.84375 291.460938 L 98.066406 250.449219 L 95.429688 246.25 C 84.300781 228.550781 78.414062 208.105469 78.433594 187.105469 C 78.460938 125.824219 128.324219 75.980469 189.644531 75.980469 C 219.332031 75.988281 247.25 87.570312 268.234375 108.570312 C 289.222656 129.582031 300.769531 157.511719 300.761719 187.199219 C 300.742188 248.476562 250.867188 298.324219 189.597656 298.324219 Z M 189.597656 298.324219 " clip-rule="nonzero"/></clipPath><clipPath id="8a67acf767"><path d="M 109 107 L 271 107 L 271 269 L 109 269 Z M 109 107 " clip-rule="nonzero"/></clipPath><clipPath id="7069ac8148"><path d="M 123.257812 195.152344 C 114.050781 195.152344 107.546875 204.101562 110.285156 212.890625 C 118.410156 238.976562 138.992188 259.5625 165.082031 267.683594 C 173.871094 270.421875 182.816406 263.929688 182.816406 254.714844 C 182.816406 248.726562 178.882812 243.492188 173.167969 241.707031 C 155.609375 236.21875 141.75 222.363281 136.261719 204.804688 C 134.488281 199.085938 129.25 195.152344 123.257812 195.152344 Z M 123.257812 180.960938 C 129.242188 180.960938 134.476562 177.03125 136.261719 171.3125 C 141.75 153.753906 155.609375 139.898438 173.167969 134.410156 C 178.882812 132.625 182.816406 127.390625 182.816406 121.402344 C 182.816406 112.199219 173.871094 105.695312 165.082031 108.433594 C 138.992188 116.554688 118.410156 137.140625 110.285156 163.226562 C 107.558594 172.015625 114.050781 180.960938 123.257812 180.960938 Z M 256.574219 180.960938 C 265.78125 180.960938 272.285156 172.015625 269.546875 163.226562 C 261.421875 137.140625 240.839844 116.554688 214.75 108.433594 C 205.960938 105.695312 197.015625 112.1875 197.015625 121.402344 C 197.015625 127.390625 200.949219 132.625 206.664062 134.410156 C 224.222656 139.898438 238.082031 153.753906 243.570312 171.3125 C 245.355469 177.023438 250.582031 180.960938 256.574219 180.960938 Z M 197.015625 254.714844 C 197.015625 263.917969 205.960938 270.421875 214.75 267.683594 C 240.839844 259.5625 261.421875 238.976562 269.546875 212.890625 C 272.285156 204.101562 265.789062 195.152344 256.574219 195.152344 C 250.589844 195.152344 245.355469 199.085938 243.570312 204.804688 C 238.082031 222.363281 224.222656 236.21875 206.664062 241.707031 C 200.949219 243.492188 197.015625 248.726562 197.015625 254.714844 Z M 197.015625 254.714844 " clip-rule="nonzero"/></clipPath></defs><g clip-path="url(#afb89fd55f)"><g clip-path="url(#1c9baf1d53)"><path fill="#ffffff" d="M 45.621094 48.773438 L 45.621094 330 L 327.976562 330 L 327.976562 48.773438 Z M 45.621094 48.773438 " fill-opacity="1" fill-rule="nonzero"/></g></g><g clip-path="url(#8a67acf767)"><g clip-path="url(#7069ac8148)"><path fill="#ffffff" d="M 107.546875 105.695312 L 107.546875 270.421875 L 272.285156 270.421875 L 272.285156 105.695312 Z M 107.546875 105.695312 " fill-opacity="1" fill-rule="nonzero"/></g></g></svg>