<svg xmlns="http://www.w3.org/2000/svg" xmlns:xlink="http://www.w3.org/1999/xlink" width="500" zoomAndPan="magnify" viewBox="0 0 375 374.999991" height="500" preserveAspectRatio="xMidYMid meet" version="1.0"><defs><clipPath id="9e9e078c2d"><path d="M 42 86.261719 L 332 86.261719 L 332 288.761719 L 42 288.761719 Z M 42 86.261719 " clip-rule="nonzero"/></clipPath></defs><g clip-path="url(#9e9e078c2d)"><path fill="#ffffff" d="M 324.988281 117.941406 C 321.605469 105.476562 312.105469 95.777344 299.441406 92.394531 C 277.066406 86.261719 186.488281 86.261719 186.488281 86.261719 C 186.488281 86.261719 96.128906 86.261719 73.75 92.378906 C 61.285156 95.761719 51.574219 105.476562 47.988281 117.941406 C 42.074219 140.324219 42.074219 187.402344 42.074219 187.402344 C 42.074219 187.402344 42.074219 234.5 47.988281 257.097656 C 51.574219 269.34375 61.285156 279.261719 73.75 282.644531 C 96.128906 288.761719 186.488281 288.761719 186.488281 288.761719 C 186.488281 288.761719 277.066406 288.761719 299.441406 282.644531 C 312.105469 279.261719 321.605469 269.34375 324.988281 257.097656 C 331.101562 234.5 331.101562 187.417969 331.101562 187.417969 C 331.101562 187.417969 331.101562 140.324219 324.988281 117.941406 Z M 157.777344 230.914062 L 157.777344 144.121094 L 232.726562 187.417969 Z M 157.777344 230.914062 " fill-opacity="1" fill-rule="nonzero"/></g></svg>